<?xml version="1.0" encoding="UTF-8"?>
<svg id="Camada_2" data-name="Camada 2" xmlns="http://www.w3.org/2000/svg" viewBox="0 0 2120.62 743.65">
  <defs>
    <style>
      .cls-1 {
        fill: #9e4a25;
      }

      .cls-1, .cls-2 {
        stroke-width: 0px;
      }

      .cls-2 {
        fill: #fff;
      }
    </style>
  </defs>
  <g id="Camada_1-2" data-name="Camada 1">
    <g>
      <path class="cls-1" d="M2120.61,5.78c0-1.62-.05-3.25-.07-4.87-1.89-.03-3.79-.1-5.68-.1-490.85,0-981.7,0-1472.55-.05-1.75,0-3.76.94-5.31-.76h-108.87c-9.33,2.53-18.73,4.87-27.99,7.63-65.32,19.46-125.53,49.54-181.72,87.83-66.91,45.59-124.18,101.26-173.03,165.72-51.97,68.58-90.93,144.1-121.1,224.46-10.96,29.2-17.6,59.26-21.65,90.01-1.02,7.75-1.31,15.6-1.93,23.4-.24-.03-.47-.01-.7.05v26.79l.33.12.34-.06c.69,14.22,2.88,28.16,8.36,41.39,6.04,14.58,15.65,25.7,30.86,31.38,9.84,3.67,18.01,1.06,24.96-6.26,6.13-6.46,9.19-14.56,11.37-22.95,2.69-10.34,3.58-20.95,4.33-31.6.8-11.28,3.39-22.35,5.51-33.46,5.37-28.04,12.05-55.73,21.13-82.84,5.29-15.78,12.97-30.45,20.24-45.32,2.09-4.28,4.81-8.34,9.35-10.33,5.9-2.58,9.37-1.42,9.73,5.13.33,6.1-1.1,11.77-3.44,17.28-11.2,26.29-19.46,53.58-27.72,80.88-7.41,24.48-13.82,49.22-18.26,74.42-2.6,14.78-4.86,29.66-3.6,44.7,1.69,20.11,15.81,45.18,45.01,47.62,10.1.84,18.08-4.78,24.47-12.28,6.26-7.34,9.69-16.21,9.8-25.62.16-12.68,2.7-24.89,5.17-37.15,6.49-32.2,14.09-64.11,25.12-95.12,4.75-13.34,10.02-26.46,17.67-38.48,3.61-5.67,8.06-10.8,10.77-17.04.32-.73.87-1.37,1.36-2.01,5.26-6.83,12.16-5.94,15.76,1.92.84,1.84-.19,3.11-.79,4.52-13.97,32.82-26.84,66.06-37.73,100.04-7.31,22.83-13.81,45.87-17.29,69.64-1.35,9.23-1.84,18.55-.75,29.1,1.72,7.23,3.14,10.97,4.6,12.86,13.24,25.25,45.73,20.12,60.08,1.96,5.02-6.35,8.53-13.51,10.14-21.39,3.51-17.17,9.08-33.75,14.28-50.43,8.42-26.97,17.3-53.79,29.21-79.49,3.47-7.48,7.45-14.68,12.81-21.02,1.31-1.55,2.58-3.16,4.06-4.53,2.95-2.75,5.96-6.34,10.43-4.9,4.5,1.45,4.53,6.18,5.57,10.06.57,2.1-.6,3.37-1.41,4.83-16.35,29.34-31.07,59.44-42.44,91.09-5.19,14.46-9.48,29.19-11.43,44.48-1.03,8.06-1.09,16.16.6,24.22,2.04,9.7,6.55,13.77,19.44,16.61,9.59,2.11,18.62-.54,26.88-5.29,16.03-9.22,28.8-21.99,38.27-37.78,21.81-36.34,50.27-65.04,90.56-80.56,15.97-6.15,32.53-8.84,49.61-8.8,39.94.1,79.89.4,119.83.11,189.4-1.34,378.8-.4,568.19-.53,304.52-.2,609.05-.05,913.57-.05q5.69,0,5.69-5.82c0-197.79,0-395.57,0-593.36Z"/>
      <circle class="cls-2" cx="39.11" cy="652.96" r="24.59"/>
      <circle class="cls-2" cx="128.01" cy="690.21" r="24.59"/>
      <circle class="cls-2" cx="216.92" cy="711.57" r="24.59"/>
      <circle class="cls-2" cx="315.75" cy="703.6" r="24.59"/>
    </g>
  </g>
</svg>