<svg width="80" height="9" viewBox="0 0 80 9" fill="none" xmlns="http://www.w3.org/2000/svg">
<path d="M8 4.90259C8 7.11173 6.20914 8.90259 4 8.90259C1.79086 8.90259 0 7.11173 0 4.90259C0 2.69345 1.79086 0.902588 4 0.902588C6.20914 0.902588 8 2.69345 8 4.90259Z" fill="#FF752B"/>
<path d="M32 4.90259C32 7.11173 30.2091 8.90259 28 8.90259C25.7909 8.90259 24 7.11173 24 4.90259C24 2.69345 25.7909 0.902588 28 0.902588C30.2091 0.902588 32 2.69345 32 4.90259Z" fill="#D9D9D9"/>
<path d="M56 4.90259C56 7.11173 54.2091 8.90259 52 8.90259C49.7909 8.90259 48 7.11173 48 4.90259C48 2.69345 49.7909 0.902588 52 0.902588C54.2091 0.902588 56 2.69345 56 4.90259Z" fill="#D9D9D9"/>
<path d="M80 4.90259C80 7.11173 78.2091 8.90259 76 8.90259C73.7909 8.90259 72 7.11173 72 4.90259C72 2.69345 73.7909 0.902588 76 0.902588C78.2091 0.902588 80 2.69345 80 4.90259Z" fill="#D9D9D9"/>
</svg>
