<svg width="16" height="16" viewBox="0 0 16 16" fill="none" xmlns="http://www.w3.org/2000/svg">
<g clip-path="url(#clip0_5688_5322)">
<path d="M7.99967 1.33337C4.31967 1.33337 1.33301 4.32004 1.33301 8.00004C1.33301 11.68 4.31967 14.6667 7.99967 14.6667C11.6797 14.6667 14.6663 11.68 14.6663 8.00004C14.6663 4.32004 11.6797 1.33337 7.99967 1.33337ZM6.19301 10.86L3.79967 8.46671C3.53967 8.20671 3.53967 7.78671 3.79967 7.52671C4.05967 7.26671 4.47967 7.26671 4.73967 7.52671L6.66634 9.44671L11.253 4.86004C11.513 4.60004 11.933 4.60004 12.193 4.86004C12.453 5.12004 12.453 5.54004 12.193 5.80004L7.13301 10.86C6.87967 11.12 6.45301 11.12 6.19301 10.86Z" fill="white"/>
</g>
<defs>
<clipPath id="clip0_5688_5322">
<rect width="16" height="16" fill="white"/>
</clipPath>
</defs>
</svg>
