<svg width="160" height="5" viewBox="0 0 160 5" fill="none" xmlns="http://www.w3.org/2000/svg">
<path fill-rule="evenodd" clip-rule="evenodd" d="M159.999 1.09271C160.014 1.28252 159.873 1.44894 159.683 1.46441C132.825 3.65378 105.91 3.4201 79.0258 3.1867C70.6854 3.11429 62.3481 3.04191 54.0165 3.04191C49.8909 3.04191 45.7658 3.03497 41.641 3.02804C32.1904 3.01216 22.7414 2.99628 13.292 3.06379C13.1145 3.06506 12.9371 3.06628 12.7598 3.0675C9.43771 3.09033 6.13228 3.11305 2.83835 3.45147C3.19653 3.47738 3.51684 3.50563 3.69834 3.54082C3.8853 3.57707 4.00748 3.75801 3.97123 3.94497C3.93499 4.13194 3.75404 4.25411 3.56708 4.21787C3.38647 4.18285 2.97671 4.15129 2.47617 4.11769C2.39373 4.11216 2.30941 4.10659 2.22415 4.10097C1.80765 4.0735 1.36863 4.04454 1.01598 4.01005C0.805094 3.98943 0.612381 3.96569 0.469253 3.93666C0.400953 3.9228 0.32353 3.90386 0.256849 3.87513C0.225469 3.86161 0.171681 3.8357 0.121614 3.78927C0.0696197 3.74104 -0.0156383 3.63247 0.00248356 3.47391C0.0186579 3.3324 0.108105 3.24996 0.147095 3.21882C0.192263 3.18274 0.23977 3.15961 0.273949 3.14496C0.344553 3.11469 0.431973 3.09007 0.526317 3.06824C0.719539 3.02352 1.00678 2.97617 1.40271 2.9244C5.18556 2.42974 8.9778 2.40374 12.742 2.37794C12.9238 2.3767 13.1054 2.37545 13.287 2.37415C22.7397 2.30662 32.1936 2.3225 41.6457 2.33839C45.7697 2.34532 49.8934 2.35225 54.0165 2.35225C62.3617 2.35225 70.7077 2.42469 79.0533 2.49712C105.931 2.7304 132.803 2.96363 159.627 0.777037C159.817 0.761565 159.983 0.902895 159.999 1.09271ZM0.54357 3.77979C0.543547 3.77978 0.544085 3.77952 0.545252 3.77901C0.544177 3.77954 0.543592 3.7798 0.54357 3.77979Z" fill="#00E88F"/>
</svg>
