<svg width="323" height="7" viewBox="0 0 323 7" fill="none" xmlns="http://www.w3.org/2000/svg">
<path fill-rule="evenodd" clip-rule="evenodd" d="M0.0243225 6.60085C-0.106171 6.3304 0.301209 6.06596 0.934204 6.01021C55.1024 1.23898 109.417 1.74875 163.55 2.25683C180.32 2.41423 197.074 2.57147 213.8 2.57147C222.112 2.57147 230.42 2.58656 238.724 2.60165C257.742 2.63619 276.744 2.6707 295.754 2.52394C296.099 2.52128 296.444 2.51871 296.788 2.51614C304.404 2.45935 311.823 2.40403 319.208 1.36362C318.774 1.32852 318.306 1.2951 317.829 1.26111C317.653 1.24851 317.475 1.23583 317.298 1.22295C316.803 1.1871 316.312 1.14966 315.885 1.10903C315.484 1.07084 315.041 1.02105 314.697 0.94904C314.117 0.827468 313.877 0.527926 314.161 0.279996C314.446 0.0320656 315.147 -0.0703675 315.727 0.0512045C315.801 0.0665415 316.005 0.0959734 316.394 0.133022C316.758 0.167638 317.198 0.201478 317.689 0.237095C317.849 0.248641 318.013 0.26039 318.182 0.272396C319.02 0.33205 319.946 0.398038 320.692 0.476893C321.134 0.523571 321.6 0.583257 321.976 0.665618C322.162 0.706496 322.397 0.767783 322.595 0.859982C322.806 0.958195 323.02 1.11496 322.998 1.31931C322.978 1.51364 322.752 1.65766 322.559 1.74703C322.365 1.83684 322.129 1.90768 321.899 1.96507C321.438 2.0804 320.795 2.19265 319.978 2.30811C312.234 3.40237 304.476 3.45959 296.927 3.51528C296.549 3.51806 296.172 3.52084 295.796 3.52375C276.76 3.67071 257.714 3.63613 238.684 3.60157C230.386 3.5865 222.09 3.57144 213.8 3.57144C196.959 3.57144 180.132 3.4137 163.317 3.25607C109.24 2.74915 55.2903 2.24341 1.40683 6.98957C0.773773 7.04533 0.154816 6.87129 0.0243225 6.60085ZM320.941 1.56347C320.941 1.56347 320.94 1.56318 320.938 1.56256L320.941 1.56347Z" fill="#F84001"/>
</svg>
