<svg width="249" height="9" viewBox="0 0 249 9" fill="none" xmlns="http://www.w3.org/2000/svg">
<path fill-rule="evenodd" clip-rule="evenodd" d="M248.015 6.82603C248.035 7.10146 247.828 7.34076 247.552 7.36051C205.739 10.3589 164.057 8.08694 122.432 5.81812C109.52 5.11435 96.6141 4.41088 83.7112 3.8651C77.3199 3.59476 70.9302 3.30939 64.5412 3.02405C49.9035 2.37031 35.2693 1.71673 20.6261 1.24431C20.3521 1.23547 20.0781 1.22653 19.8043 1.21759C13.9979 1.02808 8.23559 0.84001 2.45393 1.63428C2.79037 1.68377 3.1473 1.7321 3.50123 1.78003C3.63452 1.79808 3.76739 1.81607 3.89857 1.83405C4.63221 1.93457 5.35953 2.03967 5.72823 2.15689C5.9914 2.24056 6.13691 2.52172 6.05324 2.78488C5.96957 3.04804 5.68841 3.19355 5.42525 3.10989C5.15956 3.02542 4.53967 2.93123 3.76282 2.82479C3.63615 2.80743 3.50641 2.78987 3.37509 2.7721C2.73246 2.68511 2.05184 2.59299 1.50599 2.49445C1.18004 2.43561 0.87751 2.37031 0.651325 2.29548C0.542676 2.25953 0.417573 2.21064 0.311735 2.14041C0.239818 2.09269 -0.0211054 1.90361 0.0215203 1.56042C0.0412685 1.40142 0.122443 1.28834 0.188021 1.22084C0.252892 1.15406 0.324974 1.1079 0.383344 1.07608C0.499854 1.01255 0.643028 0.962977 0.79474 0.920727C1.10439 0.834495 1.55907 0.749664 2.17862 0.662893C8.09391 -0.16558 13.9799 0.0267398 19.811 0.217265C20.0936 0.226498 20.376 0.235727 20.6584 0.244835C35.3079 0.71746 49.9523 1.37149 64.5929 2.02535C70.9805 2.31063 77.3673 2.59587 83.7535 2.866C96.6839 3.41293 109.608 4.11731 122.53 4.8216C164.141 7.08949 205.736 9.35649 247.481 6.36307C247.756 6.34332 247.996 6.55059 248.015 6.82603ZM0.860079 1.95519C0.860055 1.95518 0.860578 1.95486 0.861709 1.95424L0.860079 1.95519Z" fill="#1C5947"/>
</svg>
