<svg width="96" height="4" viewBox="0 0 96 4" fill="none" xmlns="http://www.w3.org/2000/svg">
<path fill-rule="evenodd" clip-rule="evenodd" d="M95.9976 1.35307C96.0249 1.62787 95.8242 1.87271 95.5494 1.89994C79.5135 3.48919 63.4384 3.31946 47.4031 3.15016C42.4326 3.09768 37.466 3.04524 32.5055 3.04524C30.0439 3.04524 27.5832 3.04021 25.1231 3.03518C19.4883 3.02367 13.8566 3.01216 8.22352 3.06109C8.1202 3.06199 8.01697 3.06285 7.91382 3.06372C6.23516 3.07779 4.57955 3.09166 2.93429 3.24201C2.96341 3.32775 2.96961 3.42245 2.9473 3.51709C2.88394 3.78587 2.6147 3.9524 2.34592 3.88904C2.26839 3.87077 2.0551 3.84947 1.74407 3.82409C1.69619 3.82018 1.64681 3.81622 1.59655 3.81219C1.34831 3.79229 1.07845 3.77066 0.86121 3.74484C0.733136 3.72961 0.601389 3.71053 0.495353 3.68438C0.44709 3.67248 0.370888 3.6514 0.296913 3.61265C0.260938 3.59381 0.194218 3.55496 0.132642 3.48553C0.0650693 3.40934 -0.0147699 3.27212 0.00234801 3.09003C0.0182077 2.92133 0.109068 2.81162 0.162094 2.76013C0.216781 2.70703 0.272885 2.67446 0.307665 2.65634C0.378499 2.61942 0.455439 2.59451 0.519177 2.57658C0.653198 2.53887 0.839711 2.50218 1.079 2.46414C3.35989 2.10152 5.64393 2.08254 7.88277 2.06393C7.99357 2.06301 8.10426 2.06209 8.21484 2.06113C13.8535 2.01215 19.494 2.02367 25.1313 2.03519C27.5901 2.04022 30.0483 2.04524 32.5055 2.04524C37.4898 2.04524 42.4718 2.09779 47.4515 2.15033C63.4751 2.31936 79.4747 2.48814 95.4508 0.904818C95.7256 0.877584 95.9704 1.07827 95.9976 1.35307ZM0.722264 2.71004C0.722296 2.71003 0.72315 2.71027 0.724728 2.71081C0.72302 2.71031 0.722231 2.71005 0.722264 2.71004Z" fill="#00E88F"/>
</svg>
