<svg width="160" height="52" viewBox="0 0 160 52" fill="none" xmlns="http://www.w3.org/2000/svg">
<g clip-path="url(#clip0_5301_7182)">
<path d="M7.04488 8.04003C8.01485 7.48227 9.12462 7.2041 10.3742 7.2041V12.1231H9.13615C7.66462 12.1231 6.55485 12.469 5.80684 13.1608C5.05882 13.8526 4.68554 15.0575 4.68554 16.7741V26.0082H2.06677C0.925288 26.0082 0 25.0829 0 23.9415V7.47218H4.68409V10.3489C5.28654 9.36743 6.07203 8.5978 7.04344 8.04003H7.04488Z" fill="#4A4A49"/>
<path d="M30.6171 18.1447H17.0663C17.1773 19.4836 17.6457 20.5314 18.4716 21.2895C19.296 22.0476 20.312 22.4267 21.5169 22.4267C23.2565 22.4267 24.4946 21.6801 25.2311 20.1855H30.2841C29.748 21.9698 28.7232 23.437 27.2056 24.5857C25.6879 25.7344 23.8258 26.3094 21.6178 26.3094C19.8335 26.3094 18.2323 25.9131 16.817 25.1218C15.4002 24.3306 14.2962 23.2093 13.505 21.7594C12.7123 20.3095 12.3174 18.6361 12.3174 16.7409C12.3174 14.8456 12.708 13.1392 13.4891 11.6893C14.2703 10.2394 15.3628 9.12383 16.768 8.34411C18.1732 7.56295 19.7903 7.17236 21.6193 7.17236C23.4482 7.17236 24.9587 7.55142 26.3538 8.30952C27.7475 9.06762 28.8299 10.1442 29.5995 11.5379C30.3692 12.9316 30.754 14.5329 30.754 16.3388C30.754 17.0075 30.7093 17.61 30.6199 18.1461L30.6171 18.1447ZM25.8984 14.9998C25.8768 13.795 25.4415 12.8308 24.594 12.1058C23.7451 11.3808 22.7089 11.0191 21.4823 11.0191C20.3221 11.0191 19.3464 11.3708 18.5552 12.0726C17.7625 12.776 17.2782 13.7517 17.0995 14.9998H25.8984Z" fill="#4A4A49"/>
<path d="M58.4863 17.6762C58.4863 19.1477 58.1188 20.2806 57.3823 21.0718C56.6459 21.8631 55.6312 22.2594 54.3384 22.2594C53.0456 22.2594 52.0627 21.8631 51.3276 21.0718C50.5911 20.2806 50.2236 19.1477 50.2236 17.6762V7.47209H39.417V6.70246C39.417 5.65466 39.6404 4.92971 40.0858 4.5276C40.5326 4.12548 41.3238 3.93668 42.461 3.9583V0.0106878C39.8509 -0.0556101 37.8994 0.445946 36.6051 1.5168C35.3109 2.58766 34.6638 4.26096 34.6638 6.53527V7.47209H32.5566V11.3203H34.6638V23.8635C34.6638 25.0483 35.6236 26.0081 36.8084 26.0081H39.4142V11.3203H41.7216C41.8499 11.3203 44.4528 11.339 45.5366 11.3476V18.3464C45.5366 19.9981 45.8551 21.4192 46.4907 22.6125C47.1263 23.8059 48.0012 24.7096 49.1167 25.3221C50.2322 25.9361 51.5135 26.2416 52.9649 26.2416C54.102 26.2416 55.157 26.0125 56.127 25.5556C57.097 25.0987 57.8839 24.4689 58.4863 23.6646V26.0067H61.1613C62.2884 26.0067 63.2036 25.0929 63.2036 23.9644V7.47065H58.4863V17.6748V17.6762Z" fill="#706F6F"/>
<path d="M93.5842 17.676C93.5842 19.1475 93.2166 20.2803 92.4802 21.0716C91.7437 21.8629 90.729 22.2592 89.4362 22.2592C88.1434 22.2592 87.1605 21.8629 86.4254 21.0716C85.6889 20.2803 85.3214 19.1475 85.3214 17.676V7.47188H73.2768V2.88867H68.5596V7.47188H66.3516V11.32H68.5596V20.253C68.5596 24.0896 70.5341 26.0079 74.4817 26.0079H75.518C76.5715 26.0079 77.4262 25.1533 77.4262 24.0997V22.0589H75.2513C74.5365 22.0589 74.0306 21.9205 73.7294 21.6409C73.4281 21.3627 73.2783 20.9102 73.2783 20.2861V11.3186H76.72C76.8526 11.3186 79.6299 11.3388 80.6388 11.3474V18.3447C80.6388 19.9964 80.9573 21.4175 81.5929 22.6109C82.2285 23.8042 83.1033 24.7079 84.2189 25.3204C85.3344 25.9344 86.6157 26.24 88.067 26.24C89.2042 26.24 90.2592 26.0108 91.2292 25.5539C92.1991 25.097 92.986 24.4672 93.5885 23.663V26.005H96.2577C97.3891 26.005 98.3057 25.0884 98.3057 23.957V7.469H93.5885V17.6731L93.5842 17.676Z" fill="#706F6F"/>
<path d="M107.603 10.3489V7.47218H102.919V23.9933C102.919 25.106 103.821 26.0082 104.934 26.0082H107.603V16.7741C107.603 15.0561 107.976 13.8526 108.724 13.1608C109.471 12.4705 110.581 12.1231 112.054 12.1231H113.292V7.2041C112.042 7.2041 110.932 7.48371 109.962 8.04003C108.992 8.5978 108.205 9.36743 107.603 10.3489Z" fill="#706F6F"/>
<path d="M116.436 23.9242C116.436 25.0757 117.368 26.0082 118.52 26.0082H121.12V7.47217H116.436V23.9242Z" fill="#706F6F"/>
<path d="M155.28 7.47212V10.1154C154.656 9.26793 153.824 8.56459 152.786 8.00683C151.749 7.44906 150.54 7.1709 149.156 7.1709C147.572 7.1709 146.139 7.56148 144.857 8.3412C143.574 9.12236 142.559 10.2379 141.811 11.6864C141.063 13.1363 140.69 14.798 140.69 16.6717C140.69 18.5453 141.063 20.246 141.811 21.7074C141.891 21.8631 141.976 22.0144 142.062 22.1629H138.283V22.1586H130.019L138.182 11.2511V7.47068H124.732V11.3188H132.796L124.699 22.2263V23.9241C124.699 25.0742 125.632 26.0082 126.783 26.0082H138.119C138.119 26.0082 138.122 26.0125 138.123 26.0125C138.249 26.0125 145.116 26.1811 148.205 26.2575C148.506 26.2892 148.811 26.3108 149.124 26.3108C149.31 26.3108 149.495 26.3051 149.675 26.295C149.681 26.295 149.683 26.295 149.683 26.295C150.839 26.2272 151.874 25.9491 152.789 25.4576C153.849 24.8883 154.68 24.1691 155.283 23.3V26.0096H157.955C159.085 26.0096 160 25.093 160 23.963V7.47356H155.283L155.28 7.47212ZM154.611 19.6681C154.164 20.4824 153.562 21.1064 152.804 21.5417C152.046 21.977 151.231 22.1946 150.361 22.1946C149.49 22.1946 148.716 21.9712 147.968 21.5258C147.22 21.0805 146.618 20.4391 146.161 19.6018C145.704 18.7658 145.475 17.7901 145.475 16.6746C145.475 15.559 145.704 14.5948 146.161 13.7805C146.618 12.9662 147.215 12.3479 147.951 11.9242C148.688 11.5004 149.49 11.2886 150.359 11.2886C151.228 11.2886 152.043 11.5062 152.802 11.9415C153.56 12.3767 154.163 13.0008 154.61 13.8151C155.055 14.6294 155.278 15.6052 155.278 16.7423C155.278 17.8795 155.055 18.8566 154.61 19.6695L154.611 19.6681Z" fill="#706F6F"/>
<path d="M118.777 5.60254C120.277 5.60254 121.492 4.38685 121.492 2.88721C121.492 1.38757 120.277 0.171875 118.777 0.171875C117.277 0.171875 116.062 1.38757 116.062 2.88721C116.062 4.38685 117.277 5.60254 118.777 5.60254Z" fill="#706F6F"/>
<path d="M109.526 48.5283C111.503 48.5283 112.669 47.5251 112.669 45.7106C112.669 43.8961 111.369 42.8656 109.744 42.8656C108.524 42.8656 107.766 43.1639 106.979 43.5703L105.3 40.6705L111.261 37.2562H102.266V33.5449H116.545V37.2562L110.34 40.8319C110.802 40.7512 111.316 40.6691 112.318 40.6691C114.187 40.6691 117.627 41.5367 117.627 45.8446C117.627 49.5299 115.216 51.9945 109.581 51.9945C104.433 51.9945 101.507 49.8268 101.452 45.6818H106.247C106.355 47.5785 107.575 48.5268 109.526 48.5268V48.5283Z" fill="url(#paint0_linear_5301_7182)"/>
<path d="M118.776 42.7025C118.776 35.7931 122.65 33.085 127.312 33.085C131.973 33.085 134.49 35.2526 134.871 38.5041H130.129C129.913 37.4477 129.126 36.58 127.366 36.58C124.549 36.58 123.547 38.53 123.547 41.5106V41.9718C124.739 40.6444 126.744 39.9396 128.966 39.9396C132 39.9396 134.953 41.4832 134.953 45.4394C134.953 49.3957 131.837 51.9957 127.123 51.9957C122.408 51.9957 118.778 49.6926 118.778 42.7025H118.776ZM126.932 48.5281C129.289 48.5281 130.102 47.4169 130.102 45.7104C130.102 44.0039 129.236 42.8654 127.013 42.8654C124.791 42.8654 123.789 44.0299 123.789 45.7104C123.789 47.2814 124.547 48.5281 126.932 48.5281Z" fill="url(#paint1_linear_5301_7182)"/>
<path d="M136.02 42.567C136.02 37.8253 138.403 33.085 144.987 33.085C151.571 33.085 153.955 37.8541 153.955 42.567C153.955 47.2799 151.571 51.9957 144.987 51.9957C138.403 51.9957 136.02 47.3895 136.02 42.567ZM144.987 48.1216C148.184 48.1216 148.969 46.0895 148.969 42.567C148.969 39.0446 148.184 36.985 144.987 36.985C141.79 36.985 141.005 38.9898 141.005 42.567C141.005 46.1442 141.79 48.1216 144.987 48.1216Z" fill="url(#paint2_linear_5301_7182)"/>
<path d="M157.285 38.9771C158.784 38.9771 160 37.7614 160 36.2617C160 34.7621 158.784 33.5464 157.285 33.5464C155.785 33.5464 154.569 34.7621 154.569 36.2617C154.569 37.7614 155.785 38.9771 157.285 38.9771Z" fill="url(#paint3_linear_5301_7182)"/>
</g>
<defs>
<linearGradient id="paint0_linear_5301_7182" x1="101.302" y1="42.7704" x2="158.94" y2="42.7704" gradientUnits="userSpaceOnUse">
<stop offset="0.24" stop-color="#FF6514"/>
<stop offset="0.34" stop-color="#FA6616"/>
<stop offset="0.45" stop-color="#EB6A1E"/>
<stop offset="0.57" stop-color="#D3702A"/>
<stop offset="0.7" stop-color="#B2793C"/>
<stop offset="0.83" stop-color="#878552"/>
<stop offset="0.96" stop-color="#54936D"/>
<stop offset="1" stop-color="#439877"/>
</linearGradient>
<linearGradient id="paint1_linear_5301_7182" x1="101.303" y1="42.5411" x2="158.94" y2="42.5411" gradientUnits="userSpaceOnUse">
<stop offset="0.24" stop-color="#FF6514"/>
<stop offset="0.34" stop-color="#FA6616"/>
<stop offset="0.45" stop-color="#EB6A1E"/>
<stop offset="0.57" stop-color="#D3702A"/>
<stop offset="0.7" stop-color="#B2793C"/>
<stop offset="0.83" stop-color="#878552"/>
<stop offset="0.96" stop-color="#54936D"/>
<stop offset="1" stop-color="#439877"/>
</linearGradient>
<linearGradient id="paint2_linear_5301_7182" x1="-58.3573" y1="42.5411" x2="158.94" y2="42.5411" gradientUnits="userSpaceOnUse">
<stop offset="0.24" stop-color="#FF6514"/>
<stop offset="0.34" stop-color="#FA6616"/>
<stop offset="0.45" stop-color="#EB6A1E"/>
<stop offset="0.57" stop-color="#D3702A"/>
<stop offset="0.7" stop-color="#B2793C"/>
<stop offset="0.83" stop-color="#878552"/>
<stop offset="0.96" stop-color="#54936D"/>
<stop offset="1" stop-color="#439877"/>
</linearGradient>
<linearGradient id="paint3_linear_5301_7182" x1="101.302" y1="36.2617" x2="158.939" y2="36.2617" gradientUnits="userSpaceOnUse">
<stop offset="0.24" stop-color="#FF6514"/>
<stop offset="0.34" stop-color="#FA6616"/>
<stop offset="0.45" stop-color="#EB6A1E"/>
<stop offset="0.57" stop-color="#D3702A"/>
<stop offset="0.7" stop-color="#B2793C"/>
<stop offset="0.83" stop-color="#878552"/>
<stop offset="0.96" stop-color="#54936D"/>
<stop offset="1" stop-color="#439877"/>
</linearGradient>
<clipPath id="clip0_5301_7182">
<rect width="160" height="51.9906" fill="white" transform="translate(0 0.00488281)"/>
</clipPath>
</defs>
</svg>
