<svg width="254" height="30" viewBox="0 0 254 30" fill="none" xmlns="http://www.w3.org/2000/svg">
<g clip-path="url(#clip0_5443_1722)">
<path d="M8.0081 9.13357C9.11069 8.49954 10.3722 8.18335 11.7926 8.18335V13.7749H10.3853C8.71258 13.7749 7.45107 14.1681 6.60079 14.9545C5.7505 15.7409 5.32618 17.1105 5.32618 19.0618V29.5585H2.34935C1.0518 29.5585 0 28.5067 0 27.2091V8.48807H5.32454V11.7582C6.00935 10.6425 6.90224 9.7676 8.00646 9.13357H8.0081Z" fill="white"/>
<path d="M34.8027 20.62H19.3992C19.5254 22.142 20.0578 23.333 20.9966 24.1948C21.9337 25.0565 23.0887 25.4874 24.4584 25.4874C26.4358 25.4874 27.8431 24.6388 28.6803 22.9398H34.4243C33.8148 24.9681 32.65 26.6359 30.9248 27.9416C29.1997 29.2474 27.083 29.9011 24.573 29.9011C22.5448 29.9011 20.7246 29.4505 19.1158 28.5511C17.5053 27.6516 16.2504 26.377 15.3509 24.7289C14.4499 23.0807 14.001 21.1786 14.001 19.0243C14.001 16.8699 14.445 14.9301 15.3329 13.282C16.2209 11.6338 17.4627 10.3657 19.0601 9.47941C20.6575 8.59144 22.4957 8.14746 24.5747 8.14746C26.6537 8.14746 28.3707 8.57834 29.9566 9.44009C31.5408 10.3018 32.7712 11.5257 33.6461 13.1099C34.5209 14.6942 34.9583 16.5144 34.9583 18.5672C34.9583 19.3273 34.9076 20.0122 34.806 20.6216L34.8027 20.62ZM29.4389 17.0452C29.4143 15.6755 28.9195 14.5795 27.9562 13.7554C26.9912 12.9314 25.8133 12.5201 24.419 12.5201C23.1002 12.5201 21.9911 12.9199 21.0916 13.7177C20.1905 14.5172 19.6401 15.6264 19.4369 17.0452H29.4389Z" fill="white"/>
<path d="M66.4828 20.0875C66.4828 21.7602 66.065 23.0479 65.2278 23.9473C64.3907 24.8468 63.2373 25.2973 61.7677 25.2973C60.2982 25.2973 59.1808 24.8468 58.3453 23.9473C57.5081 23.0479 57.0903 21.7602 57.0903 20.0875V8.48817H44.8062V7.61331C44.8062 6.42225 45.0601 5.59818 45.5664 5.14109C46.0743 4.684 46.9737 4.46938 48.2663 4.49395V0.00659872C45.2993 -0.0687639 43.0811 0.501368 41.6098 1.71864C40.1386 2.93591 39.403 4.838 39.403 7.42326V8.48817H37.0078V12.8625H39.403V27.1208C39.403 28.4675 40.4942 29.5586 41.8409 29.5586H44.8029V12.8625H47.4259C47.5717 12.8625 50.5305 12.8838 51.7625 12.8936V20.8493C51.7625 22.7268 52.1246 24.3422 52.8471 25.6987C53.5696 27.0552 54.564 28.0825 55.8321 28.7787C57.1002 29.4767 58.5566 29.824 60.2064 29.824C61.499 29.824 62.6983 29.5635 63.8009 29.0442C64.9035 28.5248 65.798 27.8089 66.4828 26.8947V29.5569H69.5235C70.8047 29.5569 71.845 28.5183 71.845 27.2355V8.48653H66.4828V20.0858V20.0875Z" fill="white"/>
<path d="M106.379 20.0875C106.379 21.7602 105.961 23.0479 105.124 23.9473C104.287 24.8468 103.133 25.2973 101.664 25.2973C100.194 25.2973 99.0769 24.8468 98.2414 23.9473C97.4042 23.0479 96.9864 21.7602 96.9864 20.0875V8.48817H83.295V3.27832H77.9328V8.48817H75.4229V12.8625H77.9328V23.0168C77.9328 27.378 80.1773 29.5586 84.6646 29.5586H85.8426C87.0402 29.5586 88.0117 28.5871 88.0117 27.3895V25.0696H85.5395C84.7269 25.0696 84.1518 24.9123 83.8094 24.5945C83.467 24.2783 83.2966 23.7638 83.2966 23.0545V12.8608H87.2089C87.3596 12.8608 90.5167 12.8838 91.6635 12.8936V20.8476C91.6635 22.7252 92.0256 24.3405 92.7481 25.6971C93.4706 27.0536 94.465 28.0808 95.7331 28.7771C97.0012 29.475 98.4576 29.8224 100.107 29.8224C101.4 29.8224 102.599 29.5619 103.702 29.0425C104.804 28.5232 105.699 27.8072 106.384 26.893V29.5553H109.418C110.704 29.5553 111.746 28.5133 111.746 27.2273V8.4849H106.384V20.0842L106.379 20.0875Z" fill="white"/>
<path d="M122.315 11.7582V8.48807H116.99V27.2681C116.99 28.5329 118.016 29.5585 119.281 29.5585H122.315V19.0618C122.315 17.1089 122.739 15.7409 123.589 14.9545C124.438 14.1698 125.7 13.7749 127.374 13.7749H128.781V8.18335C127.361 8.18335 126.099 8.50118 124.997 9.13357C123.894 9.7676 123 10.6425 122.315 11.7582Z" fill="white"/>
<path d="M132.354 27.188C132.354 28.497 133.414 29.557 134.724 29.557H137.679V8.48657H132.354V27.188Z" fill="white"/>
<path d="M176.511 8.48816V11.4928C175.801 10.5295 174.856 9.73 173.677 9.09597C172.497 8.46195 171.122 8.14575 169.55 8.14575C167.749 8.14575 166.121 8.58974 164.663 9.47607C163.204 10.364 162.051 11.6321 161.201 13.2786C160.351 14.9268 159.926 16.8157 159.926 18.9455C159.926 21.0754 160.351 23.0086 161.201 24.6698C161.291 24.8468 161.388 25.0188 161.486 25.1875H157.19V25.1826H147.796L157.076 12.7838V8.48652H141.787V12.8608H150.953L141.749 25.2596V27.1896C141.749 28.4969 142.809 29.5586 144.118 29.5586H157.003C157.003 29.5586 157.007 29.5635 157.008 29.5635C157.151 29.5635 164.957 29.7552 168.468 29.842C168.811 29.8781 169.158 29.9026 169.514 29.9026C169.725 29.9026 169.935 29.8961 170.139 29.8846C170.146 29.8846 170.149 29.8846 170.149 29.8846C171.463 29.8076 172.64 29.4914 173.68 28.9327C174.884 28.2856 175.829 27.4681 176.514 26.4802V29.5602H179.552C180.836 29.5602 181.876 28.5182 181.876 27.2338V8.4898H176.514L176.511 8.48816ZM175.751 22.35C175.243 23.2756 174.558 23.985 173.696 24.4798C172.834 24.9746 171.909 25.2219 170.919 25.2219C169.93 25.2219 169.05 24.968 168.2 24.4618C167.349 23.9555 166.665 23.2265 166.145 22.2746C165.626 21.3244 165.365 20.2152 165.365 18.9472C165.365 17.6791 165.626 16.5831 166.145 15.6574C166.665 14.7318 167.343 14.029 168.18 13.5473C169.017 13.0656 169.93 12.8248 170.918 12.8248C171.906 12.8248 172.831 13.0722 173.695 13.5669C174.556 14.0617 175.241 14.7711 175.749 15.6968C176.255 16.6224 176.509 17.7316 176.509 19.0242C176.509 20.3168 176.255 21.4276 175.749 22.3516L175.751 22.35Z" fill="white"/>
<path d="M135.017 6.36337C136.722 6.36337 138.104 4.98145 138.104 3.27678C138.104 1.5721 136.722 0.190186 135.017 0.190186C133.313 0.190186 131.931 1.5721 131.931 3.27678C131.931 4.98145 133.313 6.36337 135.017 6.36337Z" fill="white"/>
<path d="M196.624 25.9592C198.872 25.9592 200.197 24.8189 200.197 22.7563C200.197 20.6936 198.72 19.5222 196.872 19.5222C195.486 19.5222 194.624 19.8614 193.729 20.3234L191.821 17.0271L198.597 13.1459H188.372V8.92725H204.603V13.1459L197.55 17.2106C198.074 17.1188 198.659 17.0255 199.798 17.0255C201.922 17.0255 205.833 18.0117 205.833 22.9087C205.833 27.0978 203.092 29.8994 196.686 29.8994C190.834 29.8994 187.509 27.4353 187.446 22.7235H192.897C193.02 24.8796 194.406 25.9576 196.624 25.9576V25.9592Z" fill="url(#paint0_linear_5443_1722)"/>
<path d="M207.139 19.3387C207.139 11.4846 211.542 8.40625 216.841 8.40625C222.139 8.40625 225.001 10.8703 225.434 14.5663H220.044C219.798 13.3654 218.903 12.3792 216.903 12.3792C213.7 12.3792 212.562 14.5958 212.562 17.9839V18.5081C213.916 16.9992 216.195 16.1981 218.722 16.1981C222.17 16.1981 225.527 17.9527 225.527 22.4499C225.527 26.9471 221.985 29.9026 216.626 29.9026C211.267 29.9026 207.14 27.2846 207.14 19.3387H207.139ZM216.41 25.9592C219.089 25.9592 220.013 24.696 220.013 22.7563C220.013 20.8165 219.028 19.5222 216.502 19.5222C213.975 19.5222 212.837 20.846 212.837 22.7563C212.837 24.542 213.699 25.9592 216.41 25.9592Z" fill="url(#paint1_linear_5443_1722)"/>
<path d="M226.739 19.1847C226.739 13.7947 229.449 8.40625 236.933 8.40625C244.417 8.40625 247.127 13.8274 247.127 19.1847C247.127 24.542 244.417 29.9026 236.933 29.9026C229.449 29.9026 226.739 24.6666 226.739 19.1847ZM236.933 25.4972C240.567 25.4972 241.46 23.1872 241.46 19.1831C241.46 15.1791 240.567 12.8379 236.933 12.8379C233.299 12.8379 232.406 15.1168 232.406 19.1831C232.406 23.2494 233.299 25.4972 236.933 25.4972Z" fill="url(#paint2_linear_5443_1722)"/>
<path d="M250.913 15.1021C252.617 15.1021 253.999 13.7202 253.999 12.0155C253.999 10.3109 252.617 8.92896 250.913 8.92896C249.208 8.92896 247.826 10.3109 247.826 12.0155C247.826 13.7202 249.208 15.1021 250.913 15.1021Z" fill="url(#paint3_linear_5443_1722)"/>
</g>
<defs>
<linearGradient id="paint0_linear_5443_1722" x1="187.276" y1="19.4158" x2="252.794" y2="19.4158" gradientUnits="userSpaceOnUse">
<stop offset="0.24" stop-color="#FF6514"/>
<stop offset="0.34" stop-color="#FA6616"/>
<stop offset="0.45" stop-color="#EB6A1E"/>
<stop offset="0.57" stop-color="#D3702A"/>
<stop offset="0.7" stop-color="#B2793C"/>
<stop offset="0.83" stop-color="#878552"/>
<stop offset="0.96" stop-color="#54936D"/>
<stop offset="1" stop-color="#439877"/>
</linearGradient>
<linearGradient id="paint1_linear_5443_1722" x1="187.276" y1="19.1536" x2="252.794" y2="19.1536" gradientUnits="userSpaceOnUse">
<stop offset="0.24" stop-color="#FF6514"/>
<stop offset="0.34" stop-color="#FA6616"/>
<stop offset="0.45" stop-color="#EB6A1E"/>
<stop offset="0.57" stop-color="#D3702A"/>
<stop offset="0.7" stop-color="#B2793C"/>
<stop offset="0.83" stop-color="#878552"/>
<stop offset="0.96" stop-color="#54936D"/>
<stop offset="1" stop-color="#439877"/>
</linearGradient>
<linearGradient id="paint2_linear_5443_1722" x1="187.275" y1="19.1536" x2="252.793" y2="19.1536" gradientUnits="userSpaceOnUse">
<stop offset="0.24" stop-color="#FF6514"/>
<stop offset="0.34" stop-color="#FA6616"/>
<stop offset="0.45" stop-color="#EB6A1E"/>
<stop offset="0.57" stop-color="#D3702A"/>
<stop offset="0.7" stop-color="#B2793C"/>
<stop offset="0.83" stop-color="#878552"/>
<stop offset="0.96" stop-color="#54936D"/>
<stop offset="1" stop-color="#439877"/>
</linearGradient>
<linearGradient id="paint3_linear_5443_1722" x1="187.275" y1="12.0155" x2="252.794" y2="12.0155" gradientUnits="userSpaceOnUse">
<stop offset="0.24" stop-color="#FF6514"/>
<stop offset="0.34" stop-color="#FA6616"/>
<stop offset="0.45" stop-color="#EB6A1E"/>
<stop offset="0.57" stop-color="#D3702A"/>
<stop offset="0.7" stop-color="#B2793C"/>
<stop offset="0.83" stop-color="#878552"/>
<stop offset="0.96" stop-color="#54936D"/>
<stop offset="1" stop-color="#439877"/>
</linearGradient>
<clipPath id="clip0_5443_1722">
<rect width="254" height="29.9026" fill="white"/>
</clipPath>
</defs>
</svg>
