<?xml version="1.0" encoding="UTF-8"?>
<svg id="Camada_2" data-name="Camada 2" xmlns="http://www.w3.org/2000/svg" viewBox="0 0 1374.93 2361.54">
  <defs>
    <style>
      .cls-1 {
        fill: #8e4819;
      }

      .cls-1, .cls-2, .cls-3, .cls-4, .cls-5, .cls-6, .cls-7, .cls-8, .cls-9, .cls-10, .cls-11, .cls-12 {
        stroke-width: 0px;
      }

      .cls-2 {
        fill: #0aaab7;
      }

      .cls-3 {
        fill: #fffcf9;
      }

      .cls-4 {
        fill: #bb4c18;
      }

      .cls-5 {
        fill: #141b21;
      }

      .cls-6 {
        fill: #028996;
      }

      .cls-7 {
        fill: #2fb8ca;
      }

      .cls-8 {
        fill: #a05828;
      }

      .cls-9 {
        fill: #49b7c3;
      }

      .cls-10 {
        fill: #fff;
      }

      .cls-11 {
        fill: #eb693a;
      }

      .cls-12 {
        fill: #f6a756;
      }
    </style>
  </defs>
  <g id="Camada_1-2" data-name="Camada 1">
    <g>
      <path class="cls-3" d="M972.49,1255.85c0,6.11-4.95,11.06-11.06,11.06-6.11,0-11.06-4.95-11.06-11.06,0-6.11,4.95-11.06,11.06-11.06,6.11,0,11.06,4.95,11.06,11.06Z"/>
      <path class="cls-10" d="M609.78,294.31c-14.17-9.05-29.77-13.9-46.69-14.34-11.06-.28-21.72,1.67-32.18,5.08-7.91,2.57-15.24,6.26-21.79,11.44-6.48,5.13-12.4,10.88-17.92,17.03-14.18,15.77-27.11,32.54-39.03,50.07-23.5,34.54-43.96,70.81-62.29,108.31-1.17,2.4-2.55,4.68-3.84,7.02-1.03-2.7-2.22-5.35-3.05-8.12-2.66-8.97-4.65-18.09-5.79-27.42-3.12-25.41-.96-50.26,7.3-74.52,3.59-10.57,8.18-20.71,13.67-30.45,1.04-1.83,2.71-3.49,2.44-5.92l26.26-34.37c1.53.8,2.29-.87,3.19-1.7,2.8-2.55,5.5-5.23,8.3-7.77,2-1.83,4.27-2.95,7.08-3.42,7.24-1.19,14.43-2.76,21.63-4.21,32.51-6.56,65-13.13,97.52-19.69,5.64-1.14,5.65-1.11,5.71-6.77v-2.01s39.46,41.76,39.46,41.76Z"/>
      <path class="cls-4" d="M1373.45,1612.1c-9.62,35.01-31.66,57.86-67.15,66.22-19.47,4.58-39.39,7.27-59.11,10.74-19.07,3.36-38.16,6.6-57.23,9.95-19.07,3.34-38.12,6.77-57.2,10.1-19.07,3.33-38.16,6.58-57.23,9.9-19.73,3.44-39.46,6.89-59.18,10.39-7.22,1.29-14.42,2.75-21.63,4.12-.66,0-1.35-.07-1.99.04-11.62,2.08-23.23,4.23-34.87,6.25-24.36,4.24-48.73,8.4-73.09,12.65-21.72,3.79-43.43,7.72-65.15,11.53-24.35,4.26-48.74,8.38-73.08,12.71-11.78,2.1-23.53,2.37-35.18-.43-34.58-8.33-57.15-29.56-67.4-63.68-2.57-8.56-3.51-17.47-5.06-26.24-4.76-26.77-9.31-53.58-14-80.36-4.69-26.78-9.46-53.55-14.16-80.33-5.28-30.07-10.48-60.16-15.84-90.22-2.51-14.03-2.99-28.02,1.07-41.76,10.3-34.92,33.22-56.93,68.85-64.62,20.67-4.45,41.68-7.32,62.51-11.1,6.56-1.18,13.25-1.79,19.65-3.82,2.21-.08,4.49.15,6.62-.3,8.41-1.77,16.8-3.66,25.43-3.99.57-.03,1.12-.64,1.68-.98l.62-.17.63.06c2.34-.02,4.82.69,6.82-1.24,4.76-.91,9.51-1.83,14.26-2.74,6.47-1.25,12.94-2.49,19.41-3.73,1.95.46,3.94.78,5.83,1.4,20.53,6.69,41.84,7.59,63.13,8.74,5.81.32,11.52-.94,17.29-.94,9.59,0,19.06-1.18,28.45-2.97,7.43-1.42,14.71-3.47,21.4-7.16,1.74-.96,3.34-2.18,4.9-3.42.9-.72,1.28-1.79.83-2.99.34-.29.68-.59,1.03-.89,2.6.38,3.58-1.42,3.96-3.39.65-3.44.99-6.96-.46-10.32-.62-1.46-.05-2.52.73-3.62,19.72-3.44,39.43-6.9,59.15-10.32,7.01-1.21,14.04-2.31,21.06-3.46,9.86-1.81,19.71-3.61,29.57-5.41,20.19-3.53,40.38-7.05,60.57-10.57,16.24-2.84,32.47-5.69,48.71-8.52,13.39-2.32,26.73-5.06,40.19-6.83,19.16-2.54,37.33,1.3,54.06,10.98,24.45,14.13,39.11,35.34,44.07,63.08,6.75,37.74,13.29,75.53,19.89,113.3,5.13,29.43,10.2,58.87,15.32,88.3,3.63,20.86,8.54,41.54,10.94,62.59,3.78,33.18.82,41.99.41,43.48Z"/>
      <path class="cls-5" d="M514.16,2361.54h-2.68c-1.6-1.82-3.9-2.06-6.04-2.51-19.6-4.13-39.22-8.18-58.83-12.29-24.18-5.06-48.37-10.13-72.55-15.22-22.43-4.72-44.86-9.48-67.3-14.21-24.61-5.19-49.22-10.38-73.84-15.55-20.04-4.21-40.09-8.39-60.14-12.59-24.41-5.12-48.8-10.26-73.2-15.39-18.09-3.8-36.16-7.61-54.24-11.4-9.16-1.92-18.32-3.8-27.48-5.69-2.94-.61-5.2-1.95-6.89-4.66-4.64-7.43-9.94-14.98-10.44-23.75-1.39-24.11.32-27.8,1.55-31.17,3.04-8.3,7.92-15.41,14.05-21.71,7.2-7.4,15.52-13.35,24.48-18.42,15.76-8.94,32.65-15.16,49.99-20.13,19.04-5.46,38.39-9.62,58-12.47,11.67-1.7,23.35-3.43,35.04-4.91,7.07-.9,14.19-1.36,21.28-2.01.88.05,1.81.35,2.63.15,5.71-1.42,11.51-1.13,17.3-.88,4.23.17,8.44.67,12.67.83,11.8.42,23.61.44,35.41,1.23,12.22.81,24.49.5,36.73,1.32,12.67.85,25.39.48,38.07,1.36,12.67.87,25.39.51,38.08,1.39,11.77.81,23.6.48,35.4,1.3,11.99.85,24.05.44,36.06,1.3,11.78.85,23.62.22,35.39,1.47,5.66.61,5.69.31,7.84-5.34.98,16.26,1.98,32.52,2.95,48.77,1.18,20.05,2.33,40.1,3.49,60.15.51,8.69,1.04,17.38,1.52,26.07,1.08,19.83,2.11,39.66,3.22,59.49.62,10.92,1.39,21.83,2.02,32.75.25,4.23.31,8.48.46,12.71Z"/>
      <path class="cls-2" d="M723.01,1233.86c-.21.62-.26,1.59-.67,1.79-5.2,2.53-10.38,5.12-15.71,7.32-6.36,2.64-12.95,4.7-19.29,7.39-11.91,5.06-24.44,8.11-36.86,11.43-10.69,2.87-21.48,5.36-32.41,7.24-10.02,1.72-19.98,3.78-30.09,5.03-3.95.5-7.92.9-11.86,1.44-7.9,1.08-15.82,1.81-23.73,2.64-6.43.67-12.82,1.04-19.25,1.18-.66.02-1.38.05-1.97.31-2.76,1.22-5.69.95-8.57.96-6.02.03-12.04,0-18.06.03-1.56,0-3.24-.27-4.65.23-4.13,1.44-8.37,1.06-12.57,1.07-10.7.05-21.4.03-32.1,0-1.78,0-3.7.26-5.31-.3-3.28-1.15-6.59-.99-9.91-1-6.47-.03-12.93,0-19.4-.03-1.56,0-3.23.29-4.66-.16-5.69-1.83-11.49-.99-17.24-1.11-6.6-.72-13.18-1.86-19.87-1.5-.21,0-.45,0-.65-.07-4.08-1.48-8.33-1.07-12.54-1.19-1.54-.06-3.19.05-4.62-.44-2.61-.88-5.24-.82-7.9-.89-1.33-.04-2.71,0-3.98-.33-5.81-1.58-11.86-1.12-17.75-2.21-5.41-.99-11-.98-16.48-1.72-8.53-1.13-17.04-2.52-25.55-3.8-3.93-.6-7.86-1.17-11.78-1.83-6.75-1.15-13.49-2.33-20.23-3.54-1.08-.19-2.17-.45-3.2-.82-1.64-.58-2.54-1.75-2.41-3.55.06-.88.11-1.77.26-2.65,1.3-7.41,2.56-14.83,2.33-22.39.39-.53,1.08-1.06,1.09-1.61.13-4.89,1.07-9.71,1.43-14.55.37-5.1,1.36-10.1,1.8-15.19.64-7.26,2.21-14.44,2.43-21.77.02-.67,0-1.38.24-1.98,1.81-4.88,1.52-10.1,2.11-15.11.65-5.47,2.33-10.92,1.68-16.54-.07-.64.06-1.36.28-1.97,1.7-4.89,1.45-10.1,2.09-15.12.69-5.47,2.28-10.92,1.67-16.54-.07-.63.08-1.35.3-1.97,1.77-4.88,1.27-10.1,2.02-15.13.81-5.42,2.31-10.91,1.7-16.53-.07-.63.14-1.33.34-1.97,1.61-4.9,1.34-10.1,2-15.13.72-5.46,2.34-10.91,1.68-16.54-.07-.62.19-1.31.39-1.95,1.46-4.93,1.33-10.11,1.97-15.14.7-5.47,2.32-10.92,1.64-16.54,1.7-4.01,1.03-8.35,1.69-12.5.87-5.47,1.75-10.94,2.2-16.45.44-5.3,2.01-10.5,1.57-15.88,1.9-3.76.51-7.99,1.64-11.83,1.44-4.95,1.44-10.13,1.94-15.14.55-5.5,2.19-10.93,1.71-16.54-.05-.63.29-1.3.39-1.96.74-5.03,2-10.07,2.04-15.11.03-5.61,2.07-10.96,1.57-16.56,1.52-3.61.69-7.56,1.54-11.18.89-3.77,1.05-7.47,1.05-11.25,0-11.83,0-23.66.03-35.49,0-2-.31-4.16.31-5.98,1.28-3.73.9-7.5,1.01-11.26.09-3.34-.43-6.82.36-9.99.94-3.78.88-7.5.99-11.26.05-1.78-.18-3.69.39-5.31.99-2.84.89-5.69.96-8.59.03-1.55-.17-3.21.29-4.65,1.78-5.58,1.29-11.45,2.11-17.14.71-4.78,1.49-9.63,1.92-14.49.65-7.25,2.42-14.39,3.62-21.59,1.49-8.96,2.64-17.98,4.36-26.89,2.08-10.65,4.39-21.28,6.99-31.82,3.42-13.8,6.58-27.66,10.99-41.19.69-2.1,1.11-4.3,1.54-6.48.18-.95-.35-1.8-1.29-2.07-4.59-1.31-8.49-.05-11.08,3.94-1.57,2.42-2.66,5.13-3.97,7.72-.41.83-.56,1.71-.17,2.58,1.43,3.14.38,6.09-.63,9.07-.5,1.47-1.18,2.99-1.21,4.49-.23,8.04-2.17,15.79-3.7,23.62-.72,3.68-1.71,7.51-1.34,11.15.44,4.27-1.07,8.33-.5,12.51-2.58,6.59.04,13.82-2.58,20.41.31,4.05-.38,7.98-1.36,11.88-1.16,4.57-1.6,9.19-1.36,13.88.1,1.82-.48,3.46-1.03,5.19-1.75,5.43-3.75,10.88-1.89,16.77.3.97,0,2.2-.22,3.27-2.04,9.98-5.19,19.76-4.96,30.11.02.86-.43,1.72-.57,2.59-.7,4.37-1.98,8.77-1.85,13.13.14,4.65-2.14,9.12-.68,13.81.21.67-.53,1.64-.82,2.47-.44,1.25-1.07,2.48-1.27,3.78-1.4,8.96-2.76,17.93-4,26.92-.3,2.2-.8,4.4-1,6.55-.54,5.77-1.19,11.47-2.99,17.01-.14.41-.2.93-.07,1.32,1.47,4.62-.48,9.21-.09,13.83.17,1.98-.33,3.95-.63,5.93-.84,5.47-2.45,10.85-2.04,16.48.2,2.7-.28,5.24-1.41,7.79-1.83,4.08-2.77,8.41-2.6,12.96.1,2.44.46,5.06-.21,7.33-1.37,4.62-1.01,9.27-1.1,13.92-.05,2.22.18,4.49-1.43,6.37-1.26,1.48-1.33,3.29-1.21,5.08.35,5.41-.83,10.63-2.19,15.77-1.37,5.21-2.11,10.43-1.9,15.82.17,4.45.29,8.9-1.24,13.23-1.35,3.81-1.61,7.82-1.43,11.86.07,1.54.1,3.19-.32,4.65-1.31,4.49-1.95,9.07-2.56,13.7-.99,7.47-2.71,14.83-2.46,22.44.02.66.04,1.38-.16,1.99-2.03,6.21-1.14,12.76-2.32,19.12-1.26,6.74-2.26,13.55-4.1,20.16-.97,3.48-1.53,6.91-1.47,10.51.08,4.67.43,9.39-1.34,13.88-1.52,3.84-1.4,7.86-1.3,11.87.13,4.94-.69,9.88-2.2,14.4-1.3,3.94-1.83,7.71-1.86,11.72,0,2.21.26,4.65-.52,6.6-2.87,7.19-3.77,14.55-3.61,22.24.07,3.47-.42,6.96.08,10.48.25,1.74.27,3.6-.55,5.26-.89,1.81-.46,3.42.36,5.11.66,1.36,1.74,2.7.95,4.39-.84,1.79.16,2.98,1.36,4.07.82.74,1.8,1.34,2.49,2.19.42.51.1,1.36-.6,1.56-.84.24-1.76.22-2.65.32-10.76-2.66-20.23-7.84-28.65-14.93-2.19-1.84-4.06-4.1-5.91-6.3-3.45-4.12-4.64-8.46-3.37-14.12,2.43-10.79,3.87-21.81,5.7-32.74.73-3.69,1.47-7.38,2.16-11.08,1.11-5.88,2.21-11.76,3.27-17.64,1.22-6.75,2.38-13.51,3.59-20.26,1.01-5.67,2.09-11.33,3.1-16.99,1.19-6.76,2.31-13.53,3.51-20.28,1.05-5.89,2.17-11.77,3.21-17.65,1.16-6.53,2.24-13.09,3.41-19.62,1.06-5.89,2.21-11.75,3.28-17.64,1.21-6.75,2.35-13.52,3.56-20.27,1.01-5.67,2.11-11.32,3.11-16.98,1.2-6.76,2.31-13.53,3.5-20.29,1.04-5.89,2.18-11.76,3.22-17.65,1.16-6.53,2.21-13.09,3.39-19.63,1.06-5.88,2.23-11.75,3.29-17.63,1.22-6.75,2.34-13.52,3.55-20.27,1.02-5.67,2.18-11.32,3.13-16.99,1.51-8.95,2.45-18.02,4.45-26.86,1.91-8.44,2.67-17.07,4.73-25.46.25-1.02,0-2.2-.17-3.28-.2-1.31-.69-2.58-.86-3.89-.99-7.24-1.75-14.51-2.91-21.72-1.25-7.67-2.61-15.3-2.5-23.1,0-.45.06-.92-.06-1.33-2.06-6.99-1-14.16-1.3-21.26-.07-1.76-.05-3.61-.56-5.27-.68-2.2-.74-4.38-.74-6.61,0-8.48-.02-16.96,0-25.43,0-1.56-.22-3.26.3-4.65,1.23-3.26.96-6.59,1-9.92.07-4.45-.68-9.1.3-13.34,1.73-7.45.1-15.16,2.38-22.47-.5-5.61,1.27-11,1.66-16.55.52-7.24,2.49-14.37,3.59-21.59,1.37-8.98,3.04-17.89,4.97-26.78.83-3.8,2.59-7.66,1.47-11.78,6.88-20.88,11.65-42.38,18.87-63.17,7.16-20.58,14.61-41.04,24.19-60.63,3.7-7.57,7.65-15.06,13.17-21.55.02,1.33.14,2.67.04,4-.83,10.2-1.84,20.41-2.52,30.62-.71,10.44-1.11,20.91-1.64,31.37-1.41,27.87-.41,55.68,2.22,83.44.62,6.58,1.75,13.11,2.71,20.13,2.75-1.58,2.6-4.12,3.21-6.04,11.61-36.78,25.49-72.67,41.63-107.71,1.68-3.63,3.17-7.35,4.75-11.02,1.29-2.34,2.67-4.62,3.84-7.02,18.33-37.5,38.8-73.78,62.29-108.31,11.92-17.53,24.85-34.3,39.03-50.07,5.52-6.14,11.44-11.9,17.92-17.03,6.55-5.17,13.88-8.86,21.79-11.44,10.45-3.41,21.12-5.36,32.18-5.08,16.92.44,32.52,5.29,46.69,14.34,8.5,5.43,15.42,12.79,22.04,20.35,18.19,20.78,30.66,44.81,39.91,70.61,7.84,21.87,13.17,44.38,16.72,67.34,2.35,15.2,4.34,30.42,5.25,45.78.11,1.78.04,3.56.05,5.35-2.52-2.49-2.81-5.99-3.78-9.08-3.5-11.23-6.6-22.59-9.97-33.87-1.97-6.6-4.21-13.13-6.18-19.72-3.19-10.64-6.39-21.27-9.3-31.97-1.12-4.11-3.28-7.36-6.52-9.82-2.48-1.88-4.78-4-7.27-5.84-13.98-10.33-28.6-19.54-44.83-26.11-12.46-5.06-25.4-8.04-38.65-9.44-9.74-1.03-19.62-.38-29.22,1.61-6.48,1.34-12.93,2.99-19.12,5.68-5.12,2.22-10.04,4.81-15.1,7.11-13.19,6.01-23.35,16.09-34.15,25.31-.51.43-1.04.9-1.35,1.47-1.85,3.4-4.73,5.9-7.4,8.57-1.42,1.43-2.47,3.13-3.68,4.71-1.83,2.36-2.08,4.51-1.24,7.41,3.57,12.37,6.82,24.83,10.21,37.25,2.04,7.5,4.17,14.96,6.23,22.45,3.22,11.78,6.42,23.56,9.63,35.34,2.1,7.72,4.19,15.42,6.29,23.13,3.26,12,6.53,23.99,9.8,35.98,2.1,7.71,4.22,15.41,6.33,23.12,3.23,11.77,6.48,23.54,9.68,35.32,2.1,7.72,4.12,15.44,6.21,23.15,3.31,12.22,6.64,24.41,9.98,36.62,2.1,7.71,4.25,15.39,6.37,23.1,3.21,11.78,6.42,23.56,9.63,35.34,2.09,7.72,4.19,15.42,6.29,23.13,3.26,12,6.53,23.99,9.8,35.98,2.1,7.71,4.22,15.41,6.33,23.12,3.22,11.78,6.48,23.54,9.68,35.33,2.09,7.71,4.11,15.43,6.21,23.14,3.31,12.22,6.64,24.41,9.98,36.62,2.1,7.71,4.25,15.4,6.37,23.11,3.21,11.78,6.42,23.55,9.63,35.34,2.09,7.71,4.19,15.41,6.28,23.12,3.27,12,6.53,23.99,9.8,35.98,2.1,7.71,4.23,15.41,6.34,23.12,3.22,11.78,6.47,23.54,9.67,35.33,2.1,7.71,4.12,15.43,6.22,23.14,3.31,12.22,6.65,24.41,9.98,36.62,2.68,9.85,5.34,19.71,8.08,29.54.28,1.02.97,1.97,1.64,2.84,1.4,1.8,3.37,2.86,5.37,3.87,9.59,4.87,19.71,8.06,30.29,9.84,0,.22,0,.45.03.67.02.22.05.44.09.65s.12.41.22.61c.06.1.11.19.17.29.06.09.15.18.23.27,1.74,2.11,3.47,4.23,5.21,6.34,1.73,2.12,3.47,4.23,5.21,6.34,2.51,3.02,5.03,6.02,7.55,9.03Z"/>
      <path class="cls-6" d="M550.31,1768.13c-.06.73-.13,1.46-.19,2.2-1.69,11.68-3.38,23.36-5.07,35.04-2.58,17.86-5.17,35.71-7.73,53.57-1.93,13.45-3.8,26.9-5.73,40.36-2.5,17.42-5.05,34.82-7.54,52.25-2.46,17.19-4.84,34.41-7.3,51.6-2.46,17.2-5.02,34.38-7.49,51.58-2.43,16.97-4.75,33.97-7.24,50.94-.77,5.29-1.49,10.56-1.52,15.91-2.16,5.65-2.19,5.94-7.84,5.34-11.78-1.25-23.62-.62-35.39-1.47-12.01-.86-24.07-.46-36.06-1.3-11.8-.83-23.63-.5-35.4-1.3-12.69-.88-25.42-.51-38.08-1.39-12.68-.88-25.41-.51-38.07-1.36-12.24-.83-24.52-.51-36.73-1.32-11.8-.79-23.61-.81-35.41-1.23-4.23-.16-8.44-.65-12.67-.83-5.79-.25-11.58-.54-17.3.88-.82.2-1.75-.09-2.63-.15-3.6-1.67-7.46-.97-11.22-1.13-6.82-.28-6.82,0-6.36-6.71,1.19-17.13,2.44-34.26,3.66-51.39.51-7.12,1.02-14.24,1.49-21.36,1.07-16.47,2.03-32.95,3.18-49.42,1.52-21.8,3.2-43.59,4.75-65.4.65-9.12,1.11-18.25,1.75-27.37,1.16-16.47,2.38-32.93,3.56-49.39.52-7.34,1.03-14.69,1.52-22.03,1.07-16.48,2.09-32.95,3.2-49.42,1.3-19.36,2.66-38.72,4-58.08,1.35-19.58,2.71-39.16,4.06-58.74,1.32-19.13,2.65-38.27,3.96-57.41,1.35-19.58,2.7-39.17,4.05-58.74,1.33-19.14,2.67-38.28,4-57.41,1.34-19.36,2.66-38.72,4-58.08,1.34-19.58,2.69-39.16,4.04-58.74,1.34-19.36,2.7-38.72,4.04-58.08,1.33-19.13,2.59-38.28,3.99-57.41.49-6.67,1.38-13.31,1.08-20.02,2.38-.43,4.38,1.15,6.66,1.25.23,7.57-1.04,14.98-2.33,22.39-.15.87-.19,1.76-.26,2.65-.13,1.81.77,2.98,2.41,3.55,1.03.37,2.11.62,3.2.82,6.73,1.2,13.47,2.39,20.23,3.54,3.92.66,7.85,1.23,11.78,1.83,8.51,1.29,17.02,2.67,25.55,3.8,5.47.73,11.07.73,16.48,1.72,5.9,1.09,11.94.63,17.75,2.21,1.27.34,2.65.29,3.98.33,2.65.07,5.29,0,7.9.89,1.43.49,3.08.39,4.62.44,4.21.12,8.46-.28,12.54,1.19.2.07.44.08.65.07,6.69-.36,13.26.78,19.87,1.5.31,1.75.43,3.55.96,5.24,6.16,19.98,12.39,39.94,18.61,59.91,4.03,12.96,8.06,25.91,12.1,38.87,7.03,22.5,14.06,45.02,21.11,67.52,4.59,14.65,9.2,29.29,13.81,43.93,7.34,23.35,14.69,46.69,22.01,70.05,6.78,21.65,13.52,43.32,20.28,64.99,4.17,13.37,8.31,26.77,12.51,40.13,8,25.48,16.03,50.94,24.04,76.41,1.94,6.14,3.89,12.3,5.78,18.46.32,1.05.29,2.2.42,3.31Z"/>
      <path class="cls-7" d="M907.21,1163.1c-1.45.54-2.96.96-4.34,1.65-10.58,5.28-21.34,10.18-32.26,14.71-37.85,15.68-76.56,28.29-117.63,32.15-14.46,1.36-28.95,1.66-43.35-.94-1.53-1.64-3.5-1-5.34-1.01-10.58-1.78-20.7-4.97-30.29-9.84-2-1.01-3.98-2.07-5.37-3.87-.67-.86-1.36-1.82-1.64-2.84-2.75-9.83-5.4-19.69-8.08-29.54-3.32-12.21-6.67-24.41-9.98-36.62-2.09-7.71-4.11-15.43-6.22-23.14-3.21-11.78-6.45-23.55-9.67-35.33-2.11-7.71-4.23-15.41-6.34-23.12-3.27-11.99-6.53-23.98-9.8-35.98-2.09-7.71-4.19-15.41-6.28-23.12-3.21-11.78-6.41-23.56-9.63-35.34-2.11-7.71-4.26-15.4-6.37-23.11-3.34-12.21-6.68-24.41-9.98-36.62-2.09-7.71-4.11-15.43-6.21-23.14-3.21-11.78-6.46-23.55-9.68-35.33-2.11-7.71-4.23-15.41-6.33-23.12-3.27-11.99-6.54-23.98-9.8-35.98-2.1-7.71-4.2-15.41-6.29-23.13-3.21-11.78-6.41-23.56-9.63-35.34-2.11-7.71-4.26-15.39-6.37-23.1-3.34-12.21-6.68-24.41-9.98-36.62-2.09-7.71-4.11-15.43-6.21-23.15-3.21-11.78-6.45-23.55-9.68-35.32-2.11-7.71-4.23-15.41-6.33-23.12-3.27-11.99-6.54-23.98-9.8-35.98-2.1-7.71-4.19-15.41-6.29-23.13-3.21-11.78-6.4-23.56-9.63-35.34-2.06-7.49-4.19-14.95-6.23-22.45-3.4-12.42-6.64-24.87-10.21-37.25-.84-2.9-.59-5.05,1.24-7.41,1.21-1.58,2.26-3.28,3.68-4.71,2.67-2.67,5.56-5.17,7.4-8.57.31-.57.85-1.04,1.35-1.47,10.8-9.21,20.96-19.3,34.15-25.31,5.06-2.3,9.98-4.89,15.1-7.11,6.19-2.68,12.65-4.34,19.12-5.68,9.6-1.98,19.48-2.64,29.22-1.61,13.25,1.41,26.19,4.38,38.65,9.44,16.23,6.58,30.85,15.78,44.83,26.11,2.49,1.84,4.79,3.96,7.27,5.84,3.24,2.46,5.4,5.7,6.52,9.82,2.91,10.7,6.12,21.34,9.3,31.97,1.97,6.6,4.22,13.12,6.18,19.72,3.36,11.28,6.47,22.63,9.97,33.87.96,3.1,1.26,6.59,3.78,9.08.22.39.62.76.63,1.15.16,7.95,3.16,15.24,5.36,22.68,9.95,33.54,20.05,67.03,30.09,100.54,13.16,43.97,26.33,87.94,39.47,131.92,4.08,13.67,31.62,128,32.86,131.03,9.64,23.51,19.07,47.11,28.62,70.65,16.09,39.65,32.21,79.3,48.34,118.93,9.91,24.37,19.85,48.72,29.78,73.07.25.62.5,1.25.76,1.86,1.5,3.33,2.04,5.47-2.46,7.54Z"/>
      <path class="cls-7" d="M277.95,591.25c-1.93,8.88-3.6,17.79-4.97,26.78-1.1,7.22-3.07,14.35-3.59,21.59-.4,5.55-2.16,10.94-1.66,16.55-2.28,7.31-.65,15.02-2.38,22.47-.98,4.23-.23,8.88-.3,13.34-.05,3.33.23,6.66-1,9.92-.52,1.39-.3,3.09-.3,4.65-.03,8.48-.02,16.96,0,25.43,0,2.23.06,4.42.74,6.61.51,1.66.49,3.51.56,5.27.29,7.1-.76,14.27,1.3,21.26.12.41.06.88.06,1.33-.11,7.8,1.25,15.43,2.5,23.1,1.17,7.21,1.92,14.49,2.91,21.72.17,1.3.66,2.57.86,3.89.17,1.07.41,2.26.17,3.28-2.06,8.4-2.82,17.02-4.73,25.46-1.99,8.84-2.94,17.91-4.45,26.86-.96,5.68-2.11,11.33-3.13,16.99-1.2,6.75-2.32,13.52-3.55,20.27-1.06,5.88-2.23,11.75-3.29,17.63-1.18,6.54-2.23,13.1-3.39,19.63-1.05,5.89-2.19,11.76-3.22,17.65-1.19,6.76-2.3,13.53-3.5,20.29-1,5.67-2.1,11.32-3.11,16.98-1.21,6.75-2.35,13.52-3.56,20.27-1.07,5.89-2.22,11.75-3.28,17.64-1.17,6.53-2.25,13.09-3.41,19.62-1.04,5.89-2.16,11.77-3.21,17.65-1.19,6.75-2.31,13.52-3.51,20.28-1,5.67-2.09,11.33-3.1,16.99-1.21,6.75-2.37,13.51-3.59,20.26-1.06,5.88-2.16,11.76-3.27,17.64-.69,3.69-1.43,7.38-2.16,11.08-.76-.05-1.53-.08-2.3-.13-.99-1.04-2.34-1.16-3.65-1.48-30.85-7.6-57.26-23.1-79.9-45.21-19.34-18.89-34.38-40.88-46.44-64.99-1.18-2.37-1.9-5.03-4-6.87-.28-3.44-2.37-6.22-3.42-9.39-1.12-3.38-2.47-6.7-3.91-9.96-1.28-2.9-.99-5.48.41-8.3,4.09-8.18,7.95-16.47,11.94-24.7,11.48-23.68,23-47.34,34.47-71.03,12.92-26.69,25.8-53.42,38.72-80.12,13.49-27.91,27-55.81,40.5-83.72,12.71-26.31,25.4-52.62,38.1-78.93,12.23-25.31,24.46-50.6,36.68-75.92,2.81-5.82,5.53-11.69,8.28-17.54.67-1.41,1.3-2.85,2.56-3.86,1.12,4.12-.64,7.97-1.47,11.78Z"/>
      <path class="cls-12" d="M570.31,150.17c0-2.22-.14-4.45-.21-6.68-5.8-.05-11.62.19-17.4-.18-12.49-.8-24.73-3.25-36.62-7.1-22.76-7.37-43.28-18.78-61.61-34.19-20.16-16.93-37.26-36.47-50.96-58.96-1.06-1.75-2.12-3.41-2.24-5.49h0c-5.64,4.4-9.07,10.31-11.63,16.81-3.96,10.05-5.97,20.55-6.62,31.27-.45,7.34-.57,14.72-.32,22.07.18,5.5-.77,10.38-3.42,15.31-5.48,10.22-9.8,21-12.96,32.19-1.59,5.62-2.52,11.3-2.37,17.15.27,10.86,4.05,15.13,14.96,16.75,2.55.39,2.63.4,3.09,3.43.79,5.29,1.22,10.65,2.3,15.86,5.22,25.4,16.96,46.82,38.61,61.97,2.25,1.57,3.33,3.23,3.24,6.03-.18,6.02-.09,12.04-.03,18.07.02,1.25-.64,2.91.78,3.65,1.53.8,2.29-.87,3.19-1.7,2.8-2.55,5.5-5.23,8.3-7.77,2-1.83,4.27-2.95,7.08-3.42,7.24-1.19,14.43-2.76,21.63-4.21,32.51-6.56,65-13.13,97.52-19.69,5.64-1.14,5.65-1.11,5.71-6.77v-2.01c0-34.12,0-68.26,0-102.39ZM466.07,199.62c-6.79,16.86-19.26,26.89-36.86,30.77-2.38.52-4.83.97-7.27,1.03-3.37.08-5.7-2.2-5.78-5.21-.05-2.46,1.24-4.38,3.61-4.96,1.94-.48,3.94-.73,5.92-1.07,19.84-3.44,31.2-17.3,33.64-37.16.68-5.51,1.58-11.05.6-16.66-.17-1.04.07-2.22.39-3.26.72-2.37,2.65-3.68,5.02-3.62,2.37.06,4.19,1.43,4.68,3.98.55,2.84.77,5.73,1.05,7.88-.71,10.11-1.42,19.44-4.99,28.28Z"/>
      <path class="cls-12" d="M209.08,1161.5c-10.78,23.75-21.25,47.64-32.46,71.19-7.38,15.5-14.11,31.27-21.41,46.79-1.13,2.42-2.26,4.91-3.84,7.02-6.93,9.25-20.19,13.79-32.75,5.74-1.66-1.07-3.16-2.4-4.83-3.69-2.12.91-2.65,3.01-3.82,4.52-8.84,11.48-24.23,12.13-33.99,4.69-5.81-4.43-9.06-10.34-9.36-17.72-.11-2.61-.02-5.22-.02-8.34-11.03,5.36-21.27,5.07-30.01-3.43-8.76-8.51-9.05-18.81-4.59-29.42-1.14-1.18-2.25-.84-3.33-.7-12.27,1.52-25.86-6.76-27-23.32-.28-4.05,1.02-7.92,2.69-11.62,5.58-12.4,11.14-24.8,16.71-37.21,5.02-11.19,10.12-22.34,15.03-33.57,12.42-28.38,24.75-56.81,37.11-85.21.62-1.43,1.27-2.85,1.91-4.27,2.09,1.84,2.81,4.5,4,6.87,12.06,24.11,27.11,46.1,46.44,64.99,22.64,22.11,49.05,37.61,79.9,45.21,1.3.32,2.65.44,3.65,1.48Z"/>
      <path class="cls-12" d="M973.29,1246.74c-2.18-5.78-3.8-6.79-9.98-6.27-5.33.44-10.65.91-15.96,1.57-13.78,1.73-27.6,1.52-41.43,1.05-5.15-.17-10.08-1.81-15.1-2.76-1.19-.23-1.92-1.08-1.95-2.34-.03-1.25,1.27-2.5,2.63-2.55.66-.04,1.33,0,1.99.08,14.21,1.49,28.43,2.35,42.72,2.2,5.61-.06,11.1-1.09,16.65-1.53,1.75-.14,3.48-.74,5.16-1.32,5.14-1.75,9.06-4.76,10.24-10.43-.25-1.52-.28-3.12-.76-4.57-2.38-7.06-7.5-10.69-14.99-10.65-9.32.06-18.66.26-27.99.29-6.65.03-13.32,0-19.87-1.47-4-.11-7.88-.74-11.44-2.66-.5-.27-.97-.94-1.08-1.5-.22-1.14.85-1.59,1.6-1.64,2.85-.21,5.72-.41,8.56-.24,4.39.27,8.76.8,13.13,1.33,1.06.13,2.06.7,3.08,1.07,5.91-.06,11.82.08,17.72-.2,4.79-.23,9.55-.96,14.33-1.47.67-1.5,2.11-2.24,3.26-3.27,2.26-2.02,2.65-4.62,1.87-7.32-.48-1.68-1.38-3.27-2.31-4.78-2.04-3.31-5.13-5.47-8.43-7.4-5.63-3.3-11.78-5.1-18.13-6.38-7.55-1.53-14.44-4.42-19.6-10.47-1.45.54-2.96.96-4.34,1.65-10.58,5.28-21.34,10.18-32.26,14.71-37.85,15.68-76.56,28.29-117.63,32.15-14.46,1.36-28.95,1.66-43.35-.94-1.54.44-3.56-.59-4.58,1.48,1.73,2.11,3.46,4.23,5.2,6.34,1.73,2.12,3.47,4.23,5.21,6.34,2.51,3.02,5.03,6.02,7.55,9.03,1.71.72,2.71,2.24,3.92,3.51,14.61,15.27,30.65,28.82,48.38,40.36.96.62,1.82,1.41,2.7,2.16.13.1.26.21.39.31.27.1.55.21.86.35.16.07.32.14.49.21.34.15.7.31,1.07.49.38.18.77.37,1.18.57,1.02.5,2.12,1.07,3.27,1.69,4.57,2.45,9.66,5.54,11.65,7.18.65.14,1.33.17,1.93.42,7.87,3.3,15.73,6.61,23.59,9.93,1.95.46,3.94.78,5.83,1.4,20.53,6.69,41.84,7.59,63.13,8.74,5.81.32,11.52-.94,17.29-.94,9.59,0,19.06-1.18,28.45-2.97,7.43-1.42,14.71-3.47,21.4-7.16,1.74-.96,3.34-2.18,4.9-3.42.9-.72,1.28-1.79.83-2.99-1.28.34-2.54.72-3.84,1.01-4.95,1.15-9.42-1.2-11.29-5.91-1.57-3.95,0-8.5,3.85-11.04,5-3.31,13.4-.71,14.13,6.68.3,3.07-1.28,5.57-1.82,8.37,2.6.38,3.58-1.42,3.96-3.39.65-3.44.99-6.96-.46-10.32-.62-1.46-.05-2.52.73-3.62-.67-.09-1.45.02-1.97-.3-4.43-2.75-8.97-1.77-13.52-.49-1.72.49-3.43,1.02-5.09,1.65-2.96,1.12-6,1.41-9.14,1.66-10.46.83-20.92,1.17-31.41,1.12-5.61-.02-11.09-1.14-16.63-1.66-1.52-.14-2.99-.81-4.45-1.36-.98-.37-1.14-2-.4-2.85,1.07-1.25,2.39-2.02,4.06-1.95,2.01.09,4.01.23,6.01.4,17.38,1.52,34.75,1.78,52.05-.7,4.99-.72,10.11-1.56,15.02-4.57-2.15-.62-3.86-.97-5.45-1.62-4.02-1.63-6.55-5.66-6.07-9.43.57-4.54,3.92-7.96,8.22-8.4,4.74-.47,8.34,1.68,10.04,6.02.55,1.41.24,3.14,1.63,4.37,1.46.04,1.42-1.33,1.75-2.2,1.12-2.93.16-5.75-.86-8.46ZM954.56,1214.26c4.64.51,9.03,4.22,8.51,10.08.14,4.39-4,8.66-9.17,8.78-4.81.11-9.48-4.68-9.48-9.44,0-5.05,5.18-9.97,10.14-9.41ZM944.02,1185.4c4.41,0,8.03,3.54,8.1,7.93.08,4.37-3.44,8.11-7.8,8.26-4.67.16-8.54-3.64-8.45-8.29.09-4.38,3.72-7.9,8.15-7.9Z"/>
      <path class="cls-8" d="M570.1,143.49c-5.8-.05-11.62.19-17.4-.18-12.49-.8-24.73-3.25-36.62-7.1-22.76-7.37-43.28-18.78-61.61-34.19-20.16-16.93-37.26-36.47-50.96-58.96-1.06-1.75-2.12-3.41-2.24-5.49,1.18-1.34,2.39-2.66,3.61-3.95,11.83-12.48,25.46-22.48,41.76-28.74,6.22-2.39,12.61-4.17,19.25-4.88h22.89c11.38,1.37,22.04,5.02,32.21,10.2,6.76,3.44,13,7.72,19.1,12.18,6.76,4.94,11.66,11.55,15.72,18.8,5.7,10.2,9.26,21.2,11.44,32.58,4.42,23.07,5.66,46.33,2.87,69.73Z"/>
      <path class="cls-11" d="M384.51,368.86c-8.27,24.26-10.43,49.11-7.3,74.52,1.14,9.32,3.12,18.44,5.79,27.42.83,2.76,2.02,5.42,3.05,8.12-1.58,3.67-3.07,7.39-4.75,11.02-16.14,35.03-30.02,70.93-41.63,107.71-.61,1.92-.46,4.46-3.21,6.04-.96-7.03-2.09-13.56-2.71-20.13-2.64-27.76-3.63-55.57-2.22-83.44.53-10.45.94-20.92,1.64-31.37.68-10.21,1.69-20.42,2.52-30.62.1-1.32-.02-2.66-.04-4,1.02-7.72,1.93-15.47,3.08-23.17,2.95-19.73,9.6-37.99,22.09-53.77,8.91-11.28,20.11-19.47,33.85-24.02,1.9-.62,3.74-1.44,5.95-.67.27,2.42-1.41,4.09-2.44,5.92-5.49,9.74-10.08,19.88-13.67,30.45Z"/>
      <path class="cls-7" d="M334.4,614.58c-.43,2.18-.85,4.37-1.54,6.48-4.42,13.53-7.58,27.39-10.99,41.19-2.6,10.54-4.91,21.16-6.99,31.82-1.73,8.91-2.88,17.93-4.36,26.89-1.19,7.2-2.97,14.35-3.62,21.59-.43,4.87-1.21,9.72-1.92,14.49-.83,5.69-.33,11.55-2.11,17.14-.46,1.43-.27,3.1-.29,4.65-.06,2.89.04,5.75-.96,8.59-.57,1.62-.33,3.53-.39,5.31-.11,3.77-.06,7.49-.99,11.26-.79,3.17-.27,6.65-.36,9.99-.11,3.77.27,7.53-1.01,11.26-.62,1.82-.31,3.98-.31,5.98-.03,11.83-.02,23.66-.03,35.49,0,3.78-.16,7.49-1.05,11.25-.85,3.62-.03,7.57-1.54,11.18.5,5.6-1.54,10.95-1.57,16.56-.04,5.04-1.3,10.08-2.04,15.11-.1.66-.45,1.32-.39,1.96.48,5.61-1.16,11.04-1.71,16.54-.5,5.01-.5,10.19-1.94,15.14-1.12,3.84.27,8.07-1.64,11.83.44,5.38-1.13,10.58-1.57,15.88-.45,5.51-1.32,10.99-2.2,16.45-.66,4.15,0,8.49-1.69,12.5.69,5.62-.94,11.08-1.64,16.54-.64,5.02-.51,10.2-1.97,15.14-.19.63-.46,1.32-.39,1.95.66,5.63-.96,11.09-1.68,16.54-.66,5.02-.4,10.22-2,15.13-.2.63-.41,1.33-.34,1.97.62,5.62-.89,11.11-1.7,16.53-.75,5.02-.25,10.25-2.02,15.13-.22.62-.38,1.33-.3,1.97.61,5.62-.98,11.08-1.67,16.54-.63,5.02-.39,10.23-2.09,15.12-.22.62-.35,1.33-.28,1.97.65,5.62-1.03,11.07-1.68,16.54-.6,5.01-.3,10.23-2.11,15.11-.23.61-.22,1.31-.24,1.98-.21,7.33-1.78,14.51-2.43,21.77-.44,5.09-1.43,10.09-1.8,15.19-.36,4.84-1.3,9.66-1.43,14.55,0,.55-.71,1.07-1.09,1.61-2.28-.1-4.28-1.68-6.66-1.25-1.49-.09-2.99-.18-4.08-1.42.88-.1,1.8-.08,2.65-.32.7-.2,1.02-1.06.6-1.56-.69-.84-1.67-1.44-2.49-2.19-1.2-1.09-2.2-2.28-1.36-4.07.79-1.69-.28-3.03-.95-4.39-.82-1.69-1.25-3.3-.36-5.11.82-1.66.8-3.53.55-5.26-.51-3.52,0-7.01-.08-10.48-.16-7.69.74-15.05,3.61-22.24.78-1.96.51-4.39.52-6.6.03-4.01.55-7.78,1.86-11.72,1.51-4.52,2.32-9.46,2.2-14.4-.1-4-.23-8.03,1.3-11.87,1.77-4.49,1.42-9.21,1.34-13.88-.06-3.6.5-7.03,1.47-10.51,1.84-6.61,2.84-13.42,4.1-20.16,1.18-6.37.29-12.91,2.32-19.12.19-.62.17-1.33.16-1.99-.25-7.61,1.47-14.97,2.46-22.44.62-4.64,1.25-9.21,2.56-13.7.42-1.46.39-3.1.32-4.65-.17-4.04.08-8.05,1.43-11.86,1.53-4.33,1.41-8.78,1.24-13.23-.21-5.39.53-10.61,1.9-15.82,1.36-5.14,2.54-10.36,2.19-15.77-.12-1.79-.05-3.6,1.21-5.08,1.62-1.87,1.39-4.14,1.43-6.37.09-4.66-.27-9.3,1.1-13.92.67-2.27.31-4.89.21-7.33-.17-4.55.77-8.88,2.6-12.96,1.14-2.55,1.62-5.09,1.41-7.79-.41-5.63,1.2-11.01,2.04-16.48.3-1.98.8-3.95.63-5.93-.39-4.62,1.56-9.21.09-13.83-.13-.39-.06-.91.07-1.32,1.8-5.54,2.45-11.24,2.99-17.01.2-2.15.7-4.35,1-6.55,1.24-8.99,2.61-17.96,4-26.92.2-1.3.83-2.53,1.27-3.78.28-.84,1.03-1.8.82-2.47-1.46-4.69.82-9.17.68-13.81-.14-4.35,1.15-8.75,1.85-13.13.14-.87.59-1.73.57-2.59-.23-10.35,2.92-20.13,4.96-30.11.21-1.07.52-2.3.22-3.27-1.86-5.9.15-11.34,1.89-16.77.55-1.73,1.13-3.37,1.03-5.19-.24-4.69.2-9.31,1.36-13.88.98-3.89,1.67-7.83,1.36-11.88,2.62-6.59,0-13.82,2.58-20.41-.58-4.18.94-8.24.5-12.51-.37-3.64.62-7.47,1.34-11.15,1.53-7.83,3.47-15.58,3.7-23.62.04-1.51.72-3.02,1.21-4.49,1.01-2.98,2.07-5.92.63-9.07-.39-.87-.25-1.75.17-2.58,1.3-2.59,2.4-5.31,3.97-7.72,2.59-3.99,6.48-5.25,11.08-3.94.94.27,1.47,1.12,1.29,2.07Z"/>
      <path class="cls-1" d="M1079.29,1256.3c-9.86,1.8-19.71,3.6-29.57,5.41-.77-2.02-2.61-3-4.2-4.16-6.12-4.45-12.52-8.48-19.14-12.15-18.24-10.11-37.54-17.33-58.12-20.98-.25-1.52-.28-3.12-.76-4.57-2.38-7.06-7.5-10.69-14.99-10.65-9.32.06-18.66.26-27.99.29-6.65.03-13.32,0-19.87-1.47.78-.35,1.53-.76,2.34-1.03,3.75-1.26,7.84-.97,11.5-2.61,5.91-.06,11.82.08,17.72-.2,4.79-.23,9.55-.96,14.33-1.47,14.99.39,29.72,2.42,44.17,6.62,15.47,4.48,30.22,10.63,44.25,18.49,11.3,6.34,21.95,13.63,32.18,21.57,2.81,2.18,5.43,4.59,8.14,6.9Z"/>
      <path class="cls-7" d="M723.01,1233.85c1.71.72,2.71,2.25,3.92,3.51,14.62,15.26,30.65,28.82,48.38,40.36,1.1.72,2.06,1.65,3.09,2.48-8.3,7.63-16.14,15.7-23.56,24.18-2.75,3.14-5.82,6.03-7.87,9.75-6.4,2.03-13.09,2.63-19.65,3.82-20.82,3.78-41.84,6.65-62.51,11.11-35.63,7.69-58.55,29.7-68.85,64.62-4.05,13.74-3.57,27.73-1.07,41.75,5.36,30.06,10.55,60.15,15.84,90.22,4.71,26.78,9.47,53.55,14.16,80.33,4.69,26.78,9.24,53.59,14,80.36,1.56,8.77,2.5,17.69,5.07,26.24,10.25,34.13,32.82,55.35,67.4,63.68,11.64,2.81,23.39,2.53,35.18.43,24.34-4.34,48.73-8.45,73.08-12.71,21.72-3.8,43.42-7.73,65.15-11.53,24.36-4.26,48.73-8.4,73.09-12.65,11.63-2.03,23.24-4.18,34.86-6.25.65-.12,1.33-.03,2-.04,1.75,13.47,3.6,26.92,5.22,40.4,1.2,9.95,2.09,19.93,3.15,29.9,1.17,11.07,2.39,22.13,3.56,33.2.54,5.09.68,10.21,1.32,15.31.96,7.73,1.2,15.54,1.82,23.31.67,8.43,1.43,16.86,2.16,25.29.06.67.13,1.33.17,2,.6,11.13.78,22.29,1.89,33.37,1.18,11.77.86,23.59,1.92,35.37.82,9.08.42,18.28.7,27.41.08,2.75-1.29,3.92-3.62,4.84-11.2,4.39-22.36,8.89-33.53,13.37-2.89,1.16-5.76,2.39-8.63,3.59-2.06,0-3.88.83-5.74,1.59-7,2.85-14.03,5.64-21.05,8.43-62.77,25-125.54,50-188.3,75.05-1.57.63-3.55.77-4.44,2.63-11.21,4.38-22.43,8.72-33.62,13.14-14.93,5.89-29.84,11.84-44.75,17.77-.83.33-1.65.7-2.5.95-1.95.58-2.94.16-3.59-1.79-1.64-4.86-3.2-9.74-4.74-14.63-6.34-20.2-12.66-40.41-18.97-60.62-12.42-39.79-24.81-79.58-37.24-119.36-7.91-25.32-15.84-50.63-23.78-75.94-9.94-31.69-19.9-63.37-29.83-95.06-.26-.84-.37-1.73-.54-2.6-.15-.97-.47-1.85-1.43-2.31-.13-1.1-.11-2.25-.42-3.3-1.88-6.17-3.84-12.32-5.77-18.47-8.01-25.47-16.04-50.93-24.04-76.4-4.2-13.37-8.34-26.76-12.52-40.14-6.76-21.66-13.5-43.33-20.28-64.98-7.31-23.35-14.66-46.7-22-70.04-4.6-14.64-9.22-29.28-13.81-43.93-7.05-22.5-14.08-45.01-21.11-67.53-4.04-12.95-8.07-25.91-12.1-38.87-6.21-19.97-12.44-39.93-18.61-59.91-.52-1.68-.64-3.49-.96-5.24,5.76.12,11.56-.71,17.24,1.11,1.42.46,3.1.16,4.66.16,6.47.02,12.93,0,19.4.02,3.33.01,6.64-.15,9.91,1,1.61.56,3.53.3,5.31.3,10.7.02,21.4.04,32.11,0,4.21-.02,8.44.38,12.58-1.07,1.4-.49,3.09-.22,4.65-.23,6.02-.02,12.04,0,18.06-.03,2.89-.01,5.8.26,8.57-.96.59-.26,1.31-.29,1.97-.31,6.43-.15,12.82-.52,19.25-1.19,7.92-.82,15.84-1.55,23.73-2.64,3.94-.54,7.91-.94,11.86-1.44,10.11-1.26,20.07-3.32,30.09-5.03,10.94-1.88,21.73-4.38,32.41-7.24,12.42-3.32,24.95-6.37,36.87-11.43,6.33-2.69,12.93-4.76,19.28-7.39,5.33-2.21,10.51-4.8,15.71-7.32.42-.2.46-1.18.67-1.8Z"/>
      <path class="cls-1" d="M746.97,1314.13c2.04-3.71,5.12-6.6,7.87-9.75,7.42-8.48,15.26-16.55,23.56-24.18,4.21,1.55,15.34,7.85,18.52,10.48-1.07.77-2.45,1.32-3.15,2.34-3.68,5.31-7.92,10.05-13.14,13.88-.31.23-.67.67-.65.99.02.33.47.64.73.95-.56.34-1.1.96-1.67.98-8.64.33-17.02,2.22-25.44,3.99-2.14.45-4.41.22-6.63.31Z"/>
      <path class="cls-9" d="M780.7,1308.85c-.26-.32-.71-.62-.73-.95-.02-.32.34-.76.65-.99,5.22-3.83,9.46-8.58,13.14-13.88.71-1.02,2.08-1.57,3.15-2.34.65.14,1.33.18,1.93.43,7.87,3.29,15.73,6.61,23.59,9.93-6.47,1.24-12.94,2.48-19.41,3.73-4.75.91-9.5,1.83-14.25,2.74-2.38-.19-4.7-.03-6.82,1.24l-.64-.07-.61.18Z"/>
      <path class="cls-3" d="M964.26,1293.71c-1.28.34-2.55.71-3.84,1.01-4.95,1.15-9.43-1.2-11.29-5.91-1.56-3.95.01-8.49,3.85-11.03,5-3.31,13.4-.71,14.12,6.67.3,3.07-1.27,5.57-1.82,8.37-.34.3-.68.59-1.02.89Z"/>
      <path class="cls-8" d="M781.95,1308.74c2.12-1.27,4.44-1.43,6.82-1.24-2,1.93-4.48,1.22-6.82,1.24Z"/>
      <path class="cls-5" d="M751.31,2108.59c.89-1.86,2.87-2.01,4.44-2.63,62.75-25.05,125.53-50.04,188.3-75.05,7.02-2.8,14.05-5.59,21.05-8.43,1.86-.76,3.68-1.59,5.74-1.59,19.81,37.4,39.62,74.81,59.44,112.21,19.19,36.22,38.41,72.43,57.61,108.64.52.98,1.09,1.94,1.58,2.95.79,1.62.41,2.39-1.44,2.82-8.02,1.84-16.05,3.66-24.08,5.49-34.71,7.91-69.42,15.84-104.14,23.73-38.19,8.67-76.39,17.27-114.58,25.96-32.54,7.41-65.06,14.92-97.6,22.34-33.84,7.71-67.71,15.35-101.55,23.05-17.35,3.95-34.7,7.95-52.03,11.98-1.41.33-2.51.2-3.77-.53-12.43-7.23-22.61-16.67-28.8-29.85-5.97-12.7-6.09-25.85-2.31-39.17,3.15-11.07,8.67-20.96,15.3-30.27,11.87-16.66,26.46-30.73,42.08-43.78,24.37-20.35,50.81-37.7,78.02-53.93,20.66-12.32,41.81-23.75,63.19-34.76,1.58-.81,3.14-1.67,5.12-2.73-3.68-5.73-7.63-11.08-11.57-16.44Z"/>
      <path class="cls-9" d="M550.31,1768.13c.97.47,1.29,1.34,1.43,2.31-.54-.04-1.08-.07-1.63-.11.06-.74.13-1.47.19-2.21Z"/>
      <path class="cls-9" d="M709.64,1210.67c-1.54.45-3.56-.59-4.58,1.48-.7-.7-.73-1.59-.75-2.49,1.84,0,3.8-.63,5.33,1.01Z"/>
      <path class="cls-3" d="M471.05,171.34c-.7,10.12-1.42,19.44-4.98,28.29-6.79,16.86-19.27,26.89-36.86,30.77-2.39.53-4.83.97-7.26,1.03-3.38.08-5.7-2.2-5.78-5.21-.06-2.47,1.24-4.39,3.61-4.97,1.94-.48,3.94-.72,5.91-1.06,19.84-3.43,31.21-17.3,33.64-37.16.68-5.51,1.57-11.05.6-16.66-.18-1.04.07-2.23.38-3.27.72-2.37,2.65-3.68,5.01-3.62,2.37.07,4.19,1.43,4.68,3.98.55,2.83.77,5.73,1.05,7.88Z"/>
      <path class="cls-3" d="M963.06,1224.34c.13,4.39-4,8.66-9.16,8.78-4.82.11-9.48-4.68-9.48-9.45,0-5.05,5.18-9.96,10.14-9.41,4.64.52,9.03,4.22,8.5,10.08Z"/>
      <path class="cls-3" d="M944.02,1185.4c4.42,0,8.03,3.53,8.11,7.93.08,4.38-3.45,8.11-7.8,8.26-4.67.16-8.54-3.63-8.45-8.28.09-4.38,3.72-7.91,8.14-7.9Z"/>
    </g>
  </g>
</svg>