<svg width="239" height="311" viewBox="0 0 239 311" fill="none" xmlns="http://www.w3.org/2000/svg">
<path d="M172.483 304.024C139.261 304.024 112.33 267.146 112.33 221.656C112.33 176.166 139.261 139.288 172.483 139.288C205.705 139.288 232.637 176.166 232.637 221.656C232.637 267.146 205.705 304.024 172.483 304.024Z" stroke="black" stroke-width="12" stroke-miterlimit="10"/>
<path d="M169.238 233.137C165.93 233.137 163.248 230.456 163.248 227.147C163.248 223.839 165.93 221.157 169.238 221.157C172.547 221.157 175.229 223.839 175.229 227.147C175.229 230.456 172.547 233.137 169.238 233.137Z" fill="black"/>
<path d="M223.776 178.61C223.152 179.224 173.732 225.65 173.732 225.65" stroke="black" stroke-width="4" stroke-miterlimit="10"/>
<path d="M189.706 143.781L172.484 222.719" stroke="black" stroke-width="4" stroke-miterlimit="10"/>
<path d="M153.264 146.277L169.238 224.651" stroke="black" stroke-width="4" stroke-miterlimit="10"/>
<path d="M125.309 177.227C125.808 177.227 168.24 224.152 168.24 224.152" stroke="black" stroke-width="4" stroke-miterlimit="10"/>
<path d="M112.33 215.411L165.744 227.147" stroke="black" stroke-width="4" stroke-miterlimit="10"/>
<path d="M117.587 255.387L167.242 227.147" stroke="black" stroke-width="4" stroke-miterlimit="10"/>
<path d="M142.417 293.011L167.242 228.645" stroke="black" stroke-width="4" stroke-miterlimit="10"/>
<path d="M183.156 302.731L170.736 228.645" stroke="black" stroke-width="4" stroke-miterlimit="10"/>
<path d="M232.632 222.719L170.736 227.147" stroke="black" stroke-width="4" stroke-miterlimit="10"/>
<path d="M203.184 147.275L192.202 138.789C192.202 138.789 174.73 126.808 129.802 124.312V131.301L202.186 157.259C202.186 157.259 205.181 155.762 203.684 152.267C203.684 152.267 207.178 152.267 203.184 147.275Z" fill="#CF712E"/>
<path d="M203.578 151.768C202.693 151.768 201.976 151.051 201.976 150.166C201.976 149.281 202.693 148.563 203.578 148.563C204.463 148.563 205.181 149.281 205.181 150.166C205.181 151.051 204.463 151.768 203.578 151.768Z" fill="white"/>
<path d="M202.08 155.762C201.195 155.762 200.478 155.044 200.478 154.159C200.478 153.274 201.195 152.557 202.08 152.557C202.965 152.557 203.683 153.274 203.683 154.159C203.683 155.044 202.965 155.762 202.08 155.762Z" fill="white"/>
<path d="M209.674 245.118V268.581L186.212 268.081V244.12L209.674 245.118Z" fill="#CE7230"/>
<path d="M177.226 237.98V269.579L153.763 268.91V236.632L177.226 237.98Z" fill="#CE7230"/>
<path d="M148.272 295.038L137.29 290.545L117.322 193.701" stroke="black" stroke-width="4" stroke-miterlimit="10"/>
<path d="M122.813 111.333C122.813 111.333 122.788 71.9612 81.1203 80.1681C81.1203 80.1681 59.4152 82.3795 60.9128 133.797V177.227C60.9128 177.227 59.6648 190.706 74.7655 190.706H134.295C130.466 164.248 126.642 137.791 122.813 111.333Z" fill="#585757"/>
<path d="M60.9127 190.706H195.696V196.696H60.9127V190.706Z" fill="#494848"/>
<path d="M129.801 92.3635L131.299 127.307C131.299 127.307 217.161 130.303 210.672 186.213C210.672 186.213 212.169 200.69 217.161 205.682C217.161 205.682 228.144 233.137 219.158 243.121C219.158 243.121 196.195 253.105 180.72 243.121C177.874 242.552 174.325 242.093 170.237 242.123C165.454 242.158 161.381 242.852 158.256 243.621C158.256 243.621 130.8 253.605 133.795 233.137C133.795 233.137 142.281 199.192 135.293 192.702C135.293 192.702 130.8 186.213 113.827 186.213L87.8688 185.714C87.8688 185.714 63.3881 190.516 69.0291 160.574C69.1389 159.98 69.2637 159.376 69.3985 158.757C76.3873 126.808 80.3609 55.4228 91.8524 47.4357L122.813 67.4036C122.813 67.4036 143.28 89.8675 129.801 92.3635Z" fill="#4B3683"/>
<path d="M128.304 188.349C128.304 188.349 125.309 183.218 105.84 184.216C105.84 184.216 75.3887 185.214 73.3919 174.731C73.3919 174.731 69.2286 163.04 71.0606 150.166C71.0606 150.166 63.4079 173.733 73.3919 182.219C73.3919 182.219 75.8879 188.709 106.838 185.714C106.838 185.714 127.805 187.491 128.304 188.349Z" fill="#392A70"/>
<path d="M198.94 157.509C198.94 157.509 192.95 159.007 195.945 172.485C195.945 172.485 196.944 176.978 189.955 173.982C189.955 173.982 172.483 170.488 178.972 189.458C178.972 189.458 186.96 205.432 177.475 206.43C177.475 206.43 169.293 207.813 164.646 202.127C164.646 202.127 149.021 190.456 145.526 209.925" stroke="#2C61BF" stroke-width="3" stroke-miterlimit="10"/>
<path d="M156.01 239.377C156.01 239.377 145.527 235.384 147.523 227.896C147.523 227.896 152.016 212.92 141.034 207.429" stroke="#2C61BF" stroke-width="3" stroke-miterlimit="10"/>
<path d="M186.461 242.872C186.461 242.872 188.957 230.392 197.942 236.881C197.942 236.881 211.421 238.379 208.675 228.645C208.675 228.645 198.307 216.15 188.268 225.894C188.268 225.894 180.72 227.147 176.726 221.656C176.726 221.656 162.419 210.673 163.333 226.149C163.333 226.149 153.264 231.141 148.272 222.654C148.272 222.654 137.789 219.16 139.286 230.641" stroke="#2C61BF" stroke-width="3" stroke-miterlimit="10"/>
<path d="M217.411 210.923C217.411 210.923 209.424 209.426 206.928 212.92C206.928 212.92 188.458 214.917 188.458 200.939C188.458 200.939 188.957 194.949 190.954 193.95C190.954 193.95 199.939 184.965 189.955 180.472C189.955 180.472 178.474 177.976 172.483 178.475C172.483 178.475 166.493 172.485 175.478 166.994C175.478 166.994 189.456 163 178.474 156.011C178.474 156.011 169.488 149.522 168.49 146.527" stroke="#2C61BF" stroke-width="3" stroke-miterlimit="10"/>
<path d="M165.994 147.525C165.994 147.525 155.012 142.034 150.519 160.005C150.519 160.005 146.026 170.488 131.05 166.494C131.05 166.494 113.578 156.51 107.089 166.494C107.089 166.494 103.095 169.49 107.089 176.478C107.089 176.478 108.586 184.466 105.092 185.464" stroke="#2C61BF" stroke-width="3" stroke-miterlimit="10"/>
<path d="M139.036 190.706C139.036 190.706 139.536 180.971 130.051 177.477C130.051 177.477 121.565 181.241 117.321 178.61" stroke="#2C61BF" stroke-width="3" stroke-miterlimit="10"/>
<path d="M217.411 219.41C217.411 219.41 206.928 219.909 206.928 225.899" stroke="#2C61BF" stroke-width="3" stroke-miterlimit="10"/>
<path d="M133.047 134.546C133.047 134.546 132.453 142.832 126.058 146.027C125.06 146.527 114.077 152.018 106.589 142.533C106.589 142.533 101.098 134.546 93.6102 138.04C93.6102 138.04 88.6182 140.037 87.1206 134.546" stroke="#2C61BF" stroke-width="3" stroke-miterlimit="10"/>
<path d="M78.6337 104.095C78.6337 104.095 83.1265 105.093 82.1281 110.085C82.1281 110.085 74.6401 123.563 83.6257 127.557C83.6257 127.557 89.6161 131.551 83.6257 135.544C83.6257 135.544 73.6417 141.035 73.6417 148.523" stroke="#2C61BF" stroke-width="3" stroke-miterlimit="10"/>
<path d="M105.092 157.878C105.591 158.507 94.6087 155.013 93.1111 163.998C93.1111 163.998 91.1143 172.485 83.6264 165.995C83.6264 165.995 75.6392 161.003 75.6392 171.486" stroke="#2C61BF" stroke-width="3" stroke-miterlimit="10"/>
<path d="M99.1016 100.6C99.1016 100.6 80.6312 94.61 86.1224 111.084C86.1224 111.084 86.6216 118.072 76.6376 116.575" stroke="#2C61BF" stroke-width="3" stroke-miterlimit="10"/>
<path d="M116.074 131.051C116.074 131.051 123.063 135.045 119.069 143.032C119.069 143.032 116.573 151.519 127.057 156.011C127.057 156.011 142.112 159.281 138.328 167.383" stroke="#2C61BF" stroke-width="3" stroke-miterlimit="10"/>
<path d="M153.514 156.011C153.514 156.011 159.504 156.511 156.01 163.499C156.01 163.499 147.024 170.488 156.01 175.48C156.01 175.48 162.999 177.976 158.506 182.469C158.506 182.469 148.522 185.464 158.506 193.95C158.506 193.95 163.498 196.446 161.501 198.942" stroke="#2C61BF" stroke-width="3" stroke-miterlimit="10"/>
<path d="M187.46 66.6549C187.46 66.6549 190.954 67.6533 187.959 70.6484L133.546 118.571C133.546 118.571 110.084 141.035 97.6039 118.571C97.6039 118.571 95.6071 115.077 95.1079 109.087V85.6244H116.573V99.602C116.573 99.602 119.069 104.594 125.06 101.1L160.004 72.6452C160.004 72.6452 157.008 70.1492 159.504 66.6549C162 63.1605 163.997 58.6677 163.997 58.6677C163.997 58.6677 166.493 55.1733 168.49 57.6693C168.49 57.6693 169.488 59.1669 167.991 61.1637L165.495 66.1557C165.51 66.5999 165.595 66.8495 165.744 66.9045C165.984 66.9893 166.403 66.575 166.992 65.6565C170.572 61.4133 174.146 57.1701 177.725 52.9269C177.9 52.6823 178.444 51.9934 179.413 51.7388C181.09 51.3045 182.413 52.6124 182.468 52.6773C182.567 52.8969 182.657 53.1465 182.717 53.4261C183.037 54.9287 182.273 56.2166 181.968 56.6709C181.968 56.6709 184.964 51.1797 187.959 52.6773C187.959 52.6773 191.453 54.1749 187.959 58.1685L186.96 60.1653C187.04 60.1253 188.807 59.2717 189.956 60.1653C190.51 60.5946 190.659 61.2286 190.704 61.4133C191.283 63.8294 187.634 66.5251 187.46 66.6549Z" fill="#CF712E"/>
<path d="M186.271 56.5061C185.386 56.5061 184.668 55.7887 184.668 54.9037C184.668 54.0187 185.386 53.3013 186.271 53.3013C187.156 53.3013 187.873 54.0187 187.873 54.9037C187.873 55.7887 187.156 56.5061 186.271 56.5061Z" fill="white"/>
<path d="M179.327 55.5476C178.442 55.5476 177.725 54.8302 177.725 53.9452C177.725 53.0602 178.442 52.3428 179.327 52.3428C180.212 52.3428 180.93 53.0602 180.93 53.9452C180.93 54.8302 180.212 55.5476 179.327 55.5476Z" fill="white"/>
<path d="M166.493 60.9141C165.528 60.9141 164.746 60.1318 164.746 59.1669C164.746 58.2019 165.528 57.4197 166.493 57.4197C167.458 57.4197 168.24 58.2019 168.24 59.1669C168.24 60.1318 167.458 60.9141 166.493 60.9141Z" fill="white"/>
<path d="M188.103 63.4101C187.218 63.4101 186.5 62.6926 186.5 61.8076C186.5 60.9226 187.218 60.2052 188.103 60.2052C188.988 60.2052 189.705 60.9226 189.705 61.8076C189.705 62.6926 188.988 63.4101 188.103 63.4101Z" fill="white"/>
<path d="M187.459 69.8996C186.77 69.8996 186.211 69.3408 186.211 68.6516C186.211 67.9623 186.77 67.4036 187.459 67.4036C188.148 67.4036 188.707 67.9623 188.707 68.6516C188.707 69.3408 188.148 69.8996 187.459 69.8996Z" fill="white"/>
<path d="M126.807 28.4661C126.807 28.4661 125.309 39.9477 129.802 44.9397L112.33 39.9477L117.322 27.9669L126.807 28.4661Z" fill="#0E0B01"/>
<path d="M124.81 7.00061C124.81 7.00061 127.805 9.9958 127.306 13.9894C127.306 13.9894 127.306 15.487 128.304 15.9862C128.304 15.9862 132.797 20.479 128.304 21.9766C128.304 21.9766 130.301 33.9573 117.322 33.4581L113.827 44.4405L96.8545 42.9429L104.842 24.4726L124.81 7.00061Z" fill="#CF712E"/>
<path d="M126.462 9.42169C126.462 9.42169 124.81 15.9911 117.821 16.4903C117.821 16.4903 115.325 24.4775 110.333 24.9767C110.333 24.9767 106.838 34.4615 107.837 39.9527H106.339V21.9815L120.816 9.50156L126.063 8.68787L126.462 9.42668V9.42169Z" fill="#C16629"/>
<path d="M118.819 19.4806C118.819 19.4806 122.813 26.4694 115.325 27.967" stroke="#AC5D23" stroke-miterlimit="10"/>
<path d="M122.812 89.3684H87.8686V58.9173C87.8686 58.9173 90.8638 37.4517 106.339 39.4485C106.339 39.4485 122.812 38.9493 122.812 57.4197V89.3684Z" fill="#6650A4"/>
<path d="M125.808 5.0038C125.808 5.0038 128.803 13.4902 117.322 15.9862C117.322 15.9862 114.826 23.9733 110.333 24.4725C110.333 24.4725 103.344 39.4485 110.333 47.4357C110.333 47.4357 89.8658 36.9525 91.8626 25.9701C91.8626 25.9701 94.3586 1.50941 111.331 0.0118153C111.331 0.0118153 122.813 -0.487383 125.808 5.0038Z" fill="#0E0B01"/>
<path d="M113.847 9.598L121.33 15.4257L119.796 17.3949L112.313 11.5673L113.847 9.598Z" fill="#EEB825"/>
<path d="M111.353 12.0954L118.836 17.9231L117.302 19.8924L109.819 14.0647L111.353 12.0954Z" fill="#EEB825"/>
<path d="M115.919 266.943L62.9091 226.149" stroke="black" stroke-width="4" stroke-miterlimit="10"/>
<path d="M177.225 272.075V279.064C177.225 279.064 188.208 274.072 190.204 283.557C190.204 283.557 205.68 283.057 204.681 294.04H150.269C150.269 294.04 149.27 276.568 153.763 274.571L177.225 272.075Z" fill="#C69320"/>
<path d="M179.722 279.563C179.722 279.563 177.725 275.07 179.222 274.072C179.222 274.072 182.218 273.073 181.718 278.565C181.718 278.565 182.717 274.571 184.214 274.571C184.214 274.571 186.71 275.07 183.715 279.563" stroke="#314CA3" stroke-width="2" stroke-miterlimit="10"/>
<path d="M204.671 292.996L150.183 293.496" stroke="#314CA3" stroke-width="2" stroke-miterlimit="10"/>
<path d="M204.611 291.559H150.189" stroke="#314CA3" stroke-width="2" stroke-miterlimit="10"/>
<path d="M66.1542 303.025C32.9324 303.025 6.0008 266.148 6.0008 220.658C6.0008 175.167 32.9324 138.29 66.1542 138.29C99.376 138.29 126.308 175.167 126.308 220.658C126.308 266.148 99.376 303.025 66.1542 303.025Z" stroke="black" stroke-width="12" stroke-miterlimit="10"/>
<path d="M62.909 232.139C59.6006 232.139 56.9187 229.457 56.9187 226.149C56.9187 222.84 59.6006 220.158 62.909 220.158C66.2174 220.158 68.8994 222.84 68.8994 226.149C68.8994 229.457 66.2174 232.139 62.909 232.139Z" fill="black"/>
<path d="M117.447 177.612C116.823 178.226 67.4026 224.651 67.4026 224.651" stroke="black" stroke-width="4" stroke-miterlimit="10"/>
<path d="M83.377 142.783L66.1546 221.721" stroke="black" stroke-width="4" stroke-miterlimit="10"/>
<path d="M46.9348 145.279L62.9092 223.653" stroke="black" stroke-width="4" stroke-miterlimit="10"/>
<path d="M18.9801 176.229C19.4793 176.229 61.9111 223.154 61.9111 223.154" stroke="black" stroke-width="4" stroke-miterlimit="10"/>
<path d="M6.00081 214.413L59.415 226.149" stroke="black" stroke-width="4" stroke-miterlimit="10"/>
<path d="M11.2578 254.388L60.9131 226.149" stroke="black" stroke-width="4" stroke-miterlimit="10"/>
<path d="M36.0879 292.013L60.9131 227.646" stroke="black" stroke-width="4" stroke-miterlimit="10"/>
<path d="M76.8271 301.732L64.4071 227.646" stroke="black" stroke-width="4" stroke-miterlimit="10"/>
<path d="M126.303 221.721L64.4071 226.149" stroke="black" stroke-width="4" stroke-miterlimit="10"/>
<path d="M209.674 271.576V268.58L186.212 268.081V274.072L209.674 271.576Z" fill="#F1E4E1"/>
<path d="M177.226 272.574V269.579L153.763 269.08V275.07L177.226 272.574Z" fill="#F1E4E1"/>
<path d="M209.674 271.576V278.564C209.674 278.564 220.656 273.572 222.653 283.057C222.653 283.057 238.128 282.558 237.129 293.54H182.717C182.717 293.54 181.718 276.068 186.211 274.072L209.674 271.576Z" fill="#DEAC23"/>
<path d="M212.17 279.064C212.17 279.064 210.173 274.571 211.671 273.573C211.671 273.573 214.666 272.574 214.167 278.065C214.167 278.065 215.165 274.072 216.663 274.072C216.663 274.072 219.159 274.571 216.164 279.064" stroke="#314CA3" stroke-width="2" stroke-miterlimit="10"/>
<path d="M237.119 292.497L182.632 292.996" stroke="#314CA3" stroke-width="2" stroke-miterlimit="10"/>
<path d="M237.06 291.059H182.637" stroke="#314CA3" stroke-width="2" stroke-miterlimit="10"/>
<path d="M147.274 293.541H238.627V296.536H147.274V293.541Z" fill="#0E0A01"/>
<path d="M217.411 243.805C217.411 243.805 192.701 246.616 185.712 242.622C185.712 242.622 167.741 237.63 163.248 241.125C163.248 241.125 144.778 245.617 141.283 242.622C141.283 242.622 134.02 238.214 133.905 232.678C133.905 232.678 130.63 244.529 141.947 245.822C141.947 245.822 146.086 246.646 150.174 245.632L183.685 244.789C183.685 244.789 195.696 251.977 217.411 243.805Z" fill="#392A70"/>
<path d="M95.107 91.3751L86.8702 91.3651V55.7174C86.8702 55.7174 89.3462 47.9349 91.8522 47.4357C91.2432 48.4141 90.6092 49.5772 90.0451 50.9301C89.0167 53.4011 88.5675 55.6625 88.3628 57.4196C88.198 68.0675 88.0283 78.7204 87.8636 89.3683H95.3516C95.2667 90.0373 95.1868 90.7062 95.102 91.3751H95.107Z" fill="#392A70"/>
<path d="M116.573 91.0656L96.8545 92.3635C96.8545 92.3635 91.3634 122.815 108.835 126.309C108.835 126.309 117.821 129.304 132.797 116.824L174.729 82.2997L131.584 120.269C131.584 120.269 118.046 131.775 106.953 127.547C106.953 127.547 95.8611 122.815 94.8627 108.338V89.3683H116.578V91.0656H116.573Z" fill="#BC662B"/>
<path d="M209.674 247.714L187.709 250.115V268.086H186.211V246.122C188.458 246.776 191.143 247.355 194.199 247.619C200.698 248.183 206.119 247.105 209.769 246.027L209.674 247.719V247.714Z" fill="#BC6A33"/>
<path d="M153.763 269.08C153.763 268.581 157.941 245.438 157.941 245.438H153.763V269.08Z" fill="#BC6A33"/>
</svg>
