<svg width="127" height="108" viewBox="0 0 127 108" fill="none" xmlns="http://www.w3.org/2000/svg">
<path d="M66.1542 40.9165L5.59766 87.9658L6.35651 88.8764L66.7613 41.8271L66.1542 40.9165Z" fill="#ECE8E8"/>
<path d="M45.3779 57.0572L46.0306 57.9739L51.0982 54.0264L50.5245 53.0596L45.3779 57.0572Z" fill="#D01718"/>
<path d="M57.6689 47.5095L58.3368 48.3897L66.7616 41.8271L66.1545 40.9165L57.6689 47.5095Z" fill="#262626"/>
<path d="M5.59766 87.9657L6.35651 88.8763L7.69362 87.8351L7.0091 86.8699L5.59766 87.9657Z" fill="#262626"/>
<path d="M50.7734 102.233C50.7734 102.233 54.5677 96.1618 64.1293 98.7419L78.0922 102.536L76.4227 108L50.7734 102.233Z" fill="#A21A65"/>
<path d="M62.5127 98.4385C62.5127 98.4385 76.9309 105.572 77.0827 105.572C77.2345 105.572 78.1451 102.536 78.1451 102.536L62.5127 98.4385Z" fill="#8C185D"/>
<path d="M51.4838 101.358L76.7096 107.063L76.4227 108L50.7734 102.233L51.4838 101.358Z" fill="#222424"/>
<path d="M59.4727 98.1045L60.0311 101.322L62.2091 98.323L62.1559 101.929L65.1246 99.0136" stroke="#222424" stroke-width="0.303543" stroke-miterlimit="10"/>
<path d="M77.3351 105.018L73.084 103.902" stroke="#222424" stroke-width="0.607085" stroke-miterlimit="10"/>
<path d="M77.0314 105.929L72.7803 104.813" stroke="#222424" stroke-width="0.607085" stroke-miterlimit="10"/>
<path d="M114.388 107.669C114.388 107.669 109.527 102.413 114.528 93.8653L121.857 81.3896L126.691 84.4357L114.388 107.669Z" fill="#A21A65"/>
<path d="M113.537 95.7915L125.041 83.3963L121.856 81.4399L113.537 95.7915Z" fill="#8C185D"/>
<path d="M113.731 106.754L125.862 83.9136L126.691 84.4357L114.389 107.669L113.731 106.754Z" fill="#222424"/>
<path d="M90.2871 60.1917C90.2871 60.1917 98.6861 91.4582 115.052 92.9759L117.085 96.6063L113.62 95.6076L115.942 98.4973L112.692 98.1908" stroke="#222424" stroke-width="0.303543" stroke-miterlimit="10"/>
<path d="M124.052 82.7722L121.86 86.5802" stroke="#222424" stroke-width="0.607085" stroke-miterlimit="10"/>
<path d="M124.851 83.3035L122.658 87.1129" stroke="#222424" stroke-width="0.607085" stroke-miterlimit="10"/>
<path d="M19.5617 94.6439C19.7134 94.7957 19.1064 103.143 19.1064 103.143C19.1064 103.143 15.7674 103.75 15.4639 106.786H21.0794L24.7219 91.7603L19.5617 94.6439Z" fill="#C9A981"/>
<path d="M40.5062 88.5731L38.0778 95.5546C38.0778 95.5546 33.3729 101.777 36.2566 103.902C36.2566 103.902 39.1402 104.964 40.5062 97.8312L46.4252 89.3319L40.8097 87.8142L40.5062 88.5731Z" fill="#C9A981"/>
<path d="M1.34886 66.5662C1.34886 66.5662 -2.14186 69.7534 2.10772 71.2711C2.10772 71.2711 4.23251 71.8782 5.14313 71.5746C5.14313 71.5746 10.4551 75.0654 11.821 77.342C11.821 77.342 13.0352 79.315 13.187 81.5916C13.187 81.5916 14.5529 89.3319 18.1954 89.939L10.7587 95.4028C10.7587 95.4028 6.3573 102.384 9.39272 103.75C9.39272 103.75 11.6693 104.661 14.4012 97.0723C14.4012 97.0723 24.418 94.644 26.6946 90.6979C26.6946 90.6979 37.7739 90.3943 40.6575 89.0284C40.6575 89.0284 45.5142 87.966 49.0049 94.3404C49.0049 94.3404 52.0403 98.1347 54.0133 98.7418C54.0133 98.7418 56.7452 101.777 55.3793 104.509C55.3793 104.509 52.6474 105.572 52.7992 106.937H58.5665V98.2865C58.5665 98.2865 55.0757 94.7957 55.0757 92.6709C55.0757 92.6709 56.7452 79.9221 50.6744 76.1278C50.6744 76.1278 48.3978 74.7619 37.3185 73.8512L28.5158 72.9406C28.5158 72.9406 21.3826 71.8782 18.6507 68.9945C18.6507 68.9945 15.9189 67.1733 15.6153 66.1109C15.6153 66.1109 13.3388 61.2542 6.96438 63.9861C6.96438 63.9861 5.90199 64.5931 5.29491 65.5038C5.29491 65.5038 2.10772 66.8697 1.34886 66.5662Z" fill="#E7C493"/>
<path d="M47.4385 92.0334C47.4385 92.0334 51.7366 98.1347 54.4685 97.8311C54.4685 97.8311 57.6557 102.081 55.8344 104.509C55.8344 104.509 53.3924 106.482 53.8553 106.937H52.799C52.799 106.937 52.799 105.116 55.0756 104.509C55.0756 104.509 56.2897 100.715 54.0132 98.7418C54.0132 98.7418 51.9415 99.1364 47.4385 92.0334Z" fill="#D4B385"/>
<path d="M5.14355 71.5748C5.14355 71.5748 11.9429 73.3201 13.6275 78.8977C13.6275 78.8977 14.5533 87.6626 18.1958 89.9391C18.1958 89.9391 14.2437 89.6068 12.7291 79.5276C12.0036 78.0175 11.1962 76.9111 10.5876 76.1765C9.4402 74.7938 8.30187 73.9014 7.26983 73.091C6.41991 72.4247 5.67623 71.9178 5.14504 71.5732L5.14355 71.5748Z" fill="#D4B385"/>
<path d="M9.84723 64.745C9.84723 64.745 8.48129 72.3336 10.6061 72.9407C10.6061 72.9407 13.1862 72.4853 13.7933 66.2627C13.7933 66.2627 10.9096 64.2897 9.84723 64.745Z" fill="#BB710D"/>
<path d="M11.6689 78.86C11.6689 78.86 20.7752 80.0742 24.1142 71.575" stroke="#232323" stroke-width="1.51771" stroke-miterlimit="10"/>
<path d="M33.3729 73.5476L38.8366 73.8511L37.4707 82.1986L64.9412 56.0938C64.9412 56.0938 70.1014 51.0853 71.7709 51.0853C71.7709 51.0853 73.4404 50.0229 66.4589 56.7009L37.3189 84.7787C37.3189 84.7787 35.3459 88.7247 34.2835 90.0907L25.7843 90.8496L27.9091 86.2964C27.9091 86.2964 18.6511 88.7248 14.7051 86.9035V85.3858C14.7051 85.3858 23.5078 86.9035 27.9091 84.3234C27.9091 84.3234 32.4623 78.4043 33.3729 73.5476Z" fill="#232323"/>
<path d="M0.134766 68.2357C0.134766 68.2357 1.04539 69.4498 1.80424 68.2357C1.80424 68.2357 2.71487 67.0215 2.10779 66.4144C2.10779 66.4144 1.04539 66.1109 0.134766 68.2357Z" fill="#484A43"/>
<path d="M81.6355 9.65161H75.8682V17.0884H81.6355V9.65161Z" fill="#965919"/>
<path d="M73.1365 3.27749C73.1365 3.27749 71.6188 9.04482 74.806 10.7143C74.806 10.7143 77.6897 12.9909 81.0286 9.95545V4.33989L74.806 2.21509L73.1365 3.27749Z" fill="#AA661E"/>
<path d="M73.1365 3.42907C73.1365 3.42907 76.6272 2.36666 77.3861 4.64324C77.3861 4.64324 77.0825 6.00919 77.9932 6.16096C77.9932 6.16096 79.2073 4.64324 79.9662 5.25033C79.9662 5.25033 80.725 6.00919 79.6626 7.37514C79.6626 7.37514 79.2073 10.2588 80.2697 10.8659C80.2697 10.8659 81.4839 11.2757 81.6357 10.5396C81.6357 10.5396 82.8498 9.95526 82.2428 8.89285C82.2428 8.89285 84.2158 8.28577 82.8498 6.76805C82.8498 6.76805 83.7605 5.70565 82.8498 4.94679C82.8498 4.94679 83.0016 3.73261 82.2428 3.42907C82.2428 3.42907 82.6981 2.21489 81.3321 1.91135C81.3321 1.91135 81.0286 0.545403 79.6626 1.00072C79.6626 1.00072 79.2073 -0.365228 77.8414 0.393631C77.8414 0.393631 76.4755 -0.668772 75.7166 0.697175C75.7166 0.697175 74.5024 -0.213456 73.8954 1.15249C73.8954 1.15249 72.5294 1.15249 72.3776 2.06312C72.3776 2.06312 72.2259 3.12552 73.1365 3.42907Z" fill="#474746"/>
<path d="M72.909 7.37495C73.7891 7.37495 74.5026 6.66147 74.5026 5.78135C74.5026 4.90123 73.7891 4.18774 72.909 4.18774C72.0289 4.18774 71.3154 4.90123 71.3154 5.78135C71.3154 6.66147 72.0289 7.37495 72.909 7.37495Z" fill="#232323"/>
<path d="M76.7039 7.22334C77.5841 7.22334 78.2975 6.50986 78.2975 5.62974C78.2975 4.74961 77.5841 4.03613 76.7039 4.03613C75.8238 4.03613 75.1104 4.74961 75.1104 5.62974C75.1104 6.50986 75.8238 7.22334 76.7039 7.22334Z" fill="#232323"/>
<path d="M74.1982 5.70557H75.4124" stroke="#232323" stroke-width="0.303543" stroke-miterlimit="10"/>
<path d="M74.957 9.50007C74.957 9.50007 75.8677 9.50007 75.8677 8.74121" stroke="#232323" stroke-width="0.303543" stroke-miterlimit="10"/>
<path d="M76.779 51.0853L62.209 99.3487L78.2967 103.295L90.1348 67.6284C90.1348 67.6284 94.0809 89.9389 113.963 95.858L123.221 81.1361C123.221 81.1361 105.919 71.271 98.4822 50.3265C98.4822 50.3265 98.1787 38.1847 95.7503 36.2117L76.779 51.0853Z" fill="#01462E"/>
<path d="M80.093 51.0247L66.083 99.2729" stroke="#3A4742" stroke-width="0.910628" stroke-miterlimit="10"/>
<path d="M82.7744 49.2988L68.2803 99.8707" stroke="#3A4742" stroke-width="0.910628" stroke-miterlimit="10"/>
<path d="M86.0533 47.1877L71.1631 99.9558" stroke="#3A4742" stroke-width="0.910628" stroke-miterlimit="10"/>
<path d="M88.6036 45.5471L73.7559 101.358" stroke="#3A4742" stroke-width="0.910628" stroke-miterlimit="10"/>
<path d="M91.2358 43.855L75.8584 101.929" stroke="#3A4742" stroke-width="0.910628" stroke-miterlimit="10"/>
<path d="M94.3848 41.3718L77.8418 102.384" stroke="#3A4742" stroke-width="0.910628" stroke-miterlimit="10"/>
<path d="M91.1973 57.1562C91.1973 57.1562 101.789 91.3049 116.3 90.8496" stroke="#3A4742" stroke-width="0.910628" stroke-miterlimit="10"/>
<path d="M92.2588 53.0583C92.2588 53.0583 102.438 86.2964 117.457 88.8765" stroke="#3A4742" stroke-width="0.910628" stroke-miterlimit="10"/>
<path d="M93.3223 49.8711C93.3223 49.8711 102.556 84.4356 118.808 86.5801" stroke="#3A4742" stroke-width="0.910628" stroke-miterlimit="10"/>
<path d="M94.3848 44.7109C94.3848 44.7109 102.764 79.0964 120.732 83.3035" stroke="#3A4742" stroke-width="0.910628" stroke-miterlimit="10"/>
<path d="M68.5045 35.9856C68.5045 35.9856 66.0034 36.2133 64.4857 38.9451L61.9056 41.677C61.9056 41.677 61.2985 42.4359 61.9056 43.1948C61.9056 43.1948 62.7919 44.1373 63.7905 42.7561C64.2246 42.5983 64.6587 42.442 65.0927 42.2841C65.1428 42.8411 65.1944 43.3966 65.2445 43.9536L67.6728 44.8642L70.253 41.5253L68.5045 35.9856Z" fill="#975916"/>
<path d="M62.4125 42.8944C62.69 42.8944 62.9149 42.6695 62.9149 42.392C62.9149 42.1146 62.69 41.8896 62.4125 41.8896C62.1351 41.8896 61.9102 42.1146 61.9102 42.392C61.9102 42.6695 62.1351 42.8944 62.4125 42.8944Z" fill="white"/>
<path d="M60.8428 43.3451L61.4499 46.077C61.4787 46.1954 61.5333 46.3593 61.6396 46.5323C61.7792 46.76 61.9461 46.9057 62.0569 46.9876C62.1313 47.0165 62.5472 47.1728 62.9479 46.9618C63.1057 46.8784 63.2089 46.766 63.2711 46.6841C63.3333 46.7236 63.7052 46.9542 64.1817 46.8359C64.6886 46.7099 64.9087 46.291 64.9406 46.2288C64.9406 46.2288 66.003 46.6841 66.4583 45.7735C66.4583 45.7735 67.6725 46.3805 68.1278 45.1664L67.6725 43.0416C67.6725 43.0416 67.5723 41.8228 66.1805 42.2797C66.1805 42.2797 65.6994 42.4345 65.8512 42.8898C65.8512 42.8898 65.8512 41.9792 65.0924 41.8274C65.0924 41.8274 64.03 41.8274 64.1817 42.4345C64.1817 42.4345 64.03 41.9792 63.2711 42.1309C63.2711 42.1309 62.5123 42.2827 62.664 42.8898C62.664 42.8898 62.3605 41.9792 61.6016 42.2827C61.6016 42.2827 60.8428 42.4345 60.8428 43.3451Z" fill="#AD6D26"/>
<path d="M65.3955 40.4613C65.3955 40.4613 66.6097 41.5237 68.4309 39.8542" stroke="#7E4A0E" stroke-width="0.151771" stroke-miterlimit="10"/>
<path d="M61.6528 43.5013C61.9302 43.5013 62.1551 43.2764 62.1551 42.9989C62.1551 42.7215 61.9302 42.4966 61.6528 42.4966C61.3753 42.4966 61.1504 42.7215 61.1504 42.9989C61.1504 43.2764 61.3753 43.5013 61.6528 43.5013Z" fill="white"/>
<path d="M63.474 43.3495C63.7515 43.3495 63.9764 43.1245 63.9764 42.8471C63.9764 42.5696 63.7515 42.3447 63.474 42.3447C63.1966 42.3447 62.9717 42.5696 62.9717 42.8471C62.9717 43.1245 63.1966 43.3495 63.474 43.3495Z" fill="white"/>
<path d="M64.9916 43.0462C65.2691 43.0462 65.494 42.8213 65.494 42.5439C65.494 42.2664 65.2691 42.0415 64.9916 42.0415C64.7142 42.0415 64.4893 42.2664 64.4893 42.5439C64.4893 42.8213 64.7142 43.0462 64.9916 43.0462Z" fill="white"/>
<path d="M66.7314 43.2099C66.9552 43.2099 67.1367 43.0284 67.1367 42.8046C67.1367 42.5808 66.9552 42.3994 66.7314 42.3994C66.5076 42.3994 66.3262 42.5808 66.3262 42.8046C66.3262 43.0284 66.5076 43.2099 66.7314 43.2099Z" fill="white"/>
<path d="M65.2442 40.7651L64.4854 41.6758" stroke="#7E4A0E" stroke-width="0.151771" stroke-miterlimit="10"/>
<path d="M72.7464 45.7886C72.7464 45.7886 62.7977 50.155 64.5522 56.4627C65.437 55.6507 66.4251 54.8099 67.5209 53.9691C69.0037 52.8308 70.4394 51.8792 71.7704 51.0854C71.8478 51.2433 71.9526 51.5149 71.9222 51.8443C71.8767 52.3573 71.5322 52.6957 71.1634 53.0584C70.9524 53.2664 70.6064 53.5623 70.101 53.8173C69.7929 53.9235 69.3618 54.1861 68.8489 54.5382C68.2418 54.9556 67.6726 55.4868 67.8244 55.9421C67.8244 55.9421 68.4315 57.4598 71.3151 55.4868C71.3151 55.4868 74.9576 52.6031 75.7165 51.389L74.047 45.9252L72.7464 45.7886Z" fill="#A9651E"/>
<path d="M64.5215 55.4913C64.5215 55.4913 66.7616 51.996 69.3417 51.3889" stroke="#975917" stroke-width="0.151771" stroke-miterlimit="10"/>
<path d="M64.6475 53.6912C64.6475 53.6912 66.1546 51.3904 68.7347 50.9351" stroke="#975917" stroke-width="0.151771" stroke-miterlimit="10"/>
<path d="M65.6904 51.3889C65.6904 51.3889 66.9137 50.1747 68.2796 50.0229" stroke="#975917" stroke-width="0.151771" stroke-miterlimit="10"/>
<path d="M75.8686 13.9014C75.8686 13.9014 79.3594 17.5439 81.6359 12.5354C81.6359 12.5354 92.867 8.28582 96.2059 20.2758C96.2059 20.2758 102.429 36.3636 94.3847 41.8274L76.931 53.0585C76.2648 52.5895 75.4831 51.9233 74.7683 50.9914C72.7938 48.4158 72.6663 45.5595 72.6814 44.4075C74.1992 43.3952 75.7169 42.3844 77.2346 41.3721C77.1329 40.3598 77.0327 39.349 76.931 38.3366L70.5567 42.4345C70.5567 42.4345 67.2177 40.0061 68.7354 35.1494L75.8686 28.6233C75.8686 28.6233 72.8332 15.7226 75.8686 13.9014Z" fill="#00ACFF"/>
<path d="M75.8688 28.6233L68.7356 35.1495C68.7356 35.1495 66.9143 40.158 70.5568 42.4345L76.9312 38.3367C76.9312 38.3367 76.3241 29.0786 75.8688 28.6233Z" fill="#019CE3"/>
<path d="M77.5381 41.3722L88.0103 35.3013V26.0432" stroke="#059EE8" stroke-width="0.910628" stroke-miterlimit="10"/>
<path d="M8.7793 103.295C8.7793 103.295 12.1243 102.84 13.3385 96.9204C13.3385 96.9204 23.5071 94.0367 25.7837 90.8495L26.6943 90.6978C26.6943 90.6978 24.5301 94.5497 14.3812 97.4046C14.3812 97.4046 11.2031 106.178 8.7793 103.295Z" fill="#D4B385"/>
<path d="M98.4814 50.0232C99.1659 53.8311 100.541 58.8806 103.452 64.2518C109.224 74.8986 117.677 80.6113 122.006 83.1095C122.411 82.4523 122.815 81.7936 123.22 81.1364C120.042 79.086 116.459 76.3678 112.9 72.789C104.788 64.6312 100.631 55.8543 98.4814 50.0232Z" fill="#000201"/>
<path d="M78.297 103.295C82.243 91.4068 86.1891 79.517 90.1351 67.6287C90.0866 67.3783 90.0365 67.1248 89.9833 66.8699C89.8862 66.4039 89.7845 65.9486 89.6798 65.5039L77.0312 102.984L78.297 103.295Z" fill="#000201"/>
<path d="M63.2713 46.5324L62.9678 44.2559" stroke="#975917" stroke-width="0.151771" stroke-miterlimit="10"/>
<path d="M64.8718 46.0634L64.4043 43.8157" stroke="#975917" stroke-width="0.151771" stroke-miterlimit="10"/>
<path d="M66.3893 45.6081L65.9219 43.3604" stroke="#975917" stroke-width="0.151771" stroke-miterlimit="10"/>
<path d="M72.6049 44.4836C72.6049 44.4836 74.578 50.7063 77.4616 51.3134L95.3706 39.7787C95.3706 39.7787 99.4547 32.0323 97.336 23.9155C97.336 23.9155 100.529 33.5014 97.0765 38.8028C97.0765 38.8028 95.9564 40.6135 95.1702 41.2206L76.9304 53.0588C76.9304 53.0588 72.3773 50.9339 72.6049 44.4836Z" fill="#059EE8"/>
<path d="M81.6348 12.5353C81.6348 12.5353 92.4105 12.08 94.8388 17.0885C94.8388 17.0885 92.1069 9.49987 81.6348 12.5353Z" fill="#059EE8"/>
<path d="M75.8682 13.9016C76.1596 14.0852 77.2675 14.7303 78.7291 14.4996C80.5731 14.2082 81.5004 12.7557 81.6355 12.5356C81.3683 13.847 80.3439 14.8684 79.0554 15.1158C77.8624 15.3449 76.6285 14.8729 75.8682 13.9016Z" fill="#7F4817"/>
<path d="M73.1363 2.97381C73.1363 2.97381 72.681 1.45609 74.047 1.75963C74.047 1.75963 74.9576 0.849 75.7164 1.75963C75.7164 1.75963 77.2341 0.0901409 78.1448 1.30432C78.1448 1.30432 79.966 1.15254 79.8142 2.51849" stroke="#212121" stroke-width="0.151771" stroke-miterlimit="10"/>
<path d="M76.3994 2.5944C76.3994 2.5944 78.676 1.532 79.5866 3.20149C79.5866 3.20149 81.2879 3.20149 81.0451 4.64332C81.0451 4.64332 82.622 5.78161 81.7114 6.84401C81.7114 6.84401 82.0149 7.90641 80.9525 8.36173C80.9525 8.36173 82.1667 9.27236 81.4079 9.87945" stroke="#212121" stroke-width="0.151771" stroke-miterlimit="10"/>
<path d="M80.6484 2.59445C80.6484 2.59445 81.4073 2.44267 81.5591 3.35331C81.5591 3.35331 82.7732 4.26394 82.3179 5.0228C82.3179 5.0228 83.2285 5.62988 82.7732 6.38874" stroke="#212121" stroke-width="0.151771" stroke-miterlimit="10"/>
<path d="M77.0068 3.50494C77.0068 3.50494 78.5245 3.04963 78.5245 3.96026C78.5245 3.96026 80.0423 3.65671 80.0423 4.41557" stroke="#212121" stroke-width="0.151771" stroke-miterlimit="10"/>
<path d="M80.4979 6.38867C80.4979 6.38867 80.9532 6.54044 80.4979 7.14753C80.4979 7.14753 80.8014 7.75462 80.1943 8.20993" stroke="#212121" stroke-width="0.151771" stroke-miterlimit="10"/>
<path d="M80.1943 9.42407C80.1943 9.42407 81.105 9.57584 80.8014 10.4865" stroke="#212121" stroke-width="0.151771" stroke-miterlimit="10"/>
<path d="M69.5654 41.6195L76.0961 37.8055C76.0961 37.8055 76.6971 29.6386 75.1065 29.3199C75.36 29.0877 75.615 28.8555 75.8684 28.6233C75.9003 28.7128 75.958 28.8737 76.0202 29.0786C76.0202 29.0786 76.2357 29.7859 76.342 30.5963C76.4391 31.3339 76.7168 34.3269 77.0067 38.4126L70.6323 42.5104C70.6323 42.5104 69.7126 41.7895 69.5654 41.6195Z" fill="#0590C6"/>
<path d="M25.7842 90.8497L34.1316 89.1802L37.167 83.7164C54.0439 67.4859 71.4399 50.9003 71.7707 51.2372C71.8239 51.2903 71.4338 51.773 70.5566 52.7549C61.9102 62.4365 39.8837 82.7238 37.3188 85.0823C36.3064 86.8019 35.2957 88.523 34.2833 90.2426C33.8827 90.2957 33.4774 90.3473 33.0692 90.3944C30.5407 90.6873 28.1078 90.8269 25.7842 90.8497Z" fill="#515151"/>
</svg>
