<svg xmlns="http://www.w3.org/2000/svg" xmlns:xlink="http://www.w3.org/1999/xlink" width="1123" zoomAndPan="magnify" viewBox="0 0 841.92 595.499987" height="794" preserveAspectRatio="xMidYMid meet" version="1.0"><defs><clipPath id="02af3a903d"><path d="M 269.929688 213 L 669.34375 213 L 669.34375 417.570312 L 269.929688 417.570312 Z M 269.929688 213 " clip-rule="nonzero"/></clipPath><clipPath id="7c886971e4"><path d="M 319.734375 254 L 433 254 L 433 334 L 319.734375 334 Z M 319.734375 254 " clip-rule="nonzero"/></clipPath><clipPath id="45137a6e37"><path d="M 443 382 L 517.359375 382 L 517.359375 417.351562 L 443 417.351562 Z M 443 382 " clip-rule="nonzero"/></clipPath><clipPath id="14eda29596"><path d="M 487 227 L 517.359375 227 L 517.359375 266 L 487 266 Z M 487 227 " clip-rule="nonzero"/></clipPath><clipPath id="4912e6c628"><path d="M 435 77.886719 L 460 77.886719 L 460 99 L 435 99 Z M 435 77.886719 " clip-rule="nonzero"/></clipPath><clipPath id="7e124d581c"><path d="M 360 368 L 438 368 L 438 417.351562 L 360 417.351562 Z M 360 368 " clip-rule="nonzero"/></clipPath><clipPath id="2ceaf225ed"><path d="M 488.15625 276 L 641.777344 276 L 641.777344 354 L 488.15625 354 Z M 488.15625 276 " clip-rule="nonzero"/></clipPath><clipPath id="a74701657e"><path d="M 529 247.632812 L 596 247.632812 L 596 304 L 529 304 Z M 529 247.632812 " clip-rule="nonzero"/></clipPath><clipPath id="b5b382e1a6"><path d="M 502 353 L 514 353 L 514 393.011719 L 502 393.011719 Z M 502 353 " clip-rule="nonzero"/></clipPath><clipPath id="1bbcd09bde"><path d="M 612 353 L 624 353 L 624 393.011719 L 612 393.011719 Z M 612 353 " clip-rule="nonzero"/></clipPath><clipPath id="7f4c9953ff"><path d="M 488.15625 276 L 489 276 L 489 354 L 488.15625 354 Z M 488.15625 276 " clip-rule="nonzero"/></clipPath></defs><g clip-path="url(#02af3a903d)"><path fill="#d4b288" d="M 669.238281 417.175781 L 269.929688 417.175781 C 271.664062 345.960938 299.113281 288.914062 357.753906 249.980469 C 426.449219 204.375 499.144531 201.988281 570.382812 243.300781 C 635.4375 281.039062 666.429688 340.5 669.246094 417.167969 Z M 669.238281 417.175781 " fill-opacity="1" fill-rule="nonzero"/></g><path fill="#fffcf9" d="M 377.429688 258.410156 C 377.429688 259.289062 378.144531 260 379.023438 260 C 379.902344 260 380.613281 259.289062 380.613281 258.410156 C 380.613281 257.53125 379.902344 256.820312 379.023438 256.820312 C 378.144531 256.820312 377.429688 257.53125 377.429688 258.410156 Z M 377.429688 258.410156 " fill-opacity="1" fill-rule="nonzero"/><path fill="#ffffff" d="M 429.621094 120.214844 C 431.660156 118.914062 433.902344 118.21875 436.335938 118.15625 C 437.929688 118.113281 439.464844 118.394531 440.96875 118.882812 C 442.105469 119.253906 443.160156 119.785156 444.101562 120.527344 C 445.035156 121.265625 445.886719 122.09375 446.683594 122.976562 C 448.722656 125.242188 450.582031 127.652344 452.296875 130.171875 C 455.679688 135.136719 458.621094 140.351562 461.261719 145.738281 C 461.429688 146.085938 461.628906 146.410156 461.8125 146.75 C 461.960938 146.359375 462.132812 145.980469 462.25 145.582031 C 462.632812 144.292969 462.921875 142.980469 463.085938 141.640625 C 463.535156 137.988281 463.222656 134.417969 462.035156 130.929688 C 461.519531 129.410156 460.855469 127.953125 460.066406 126.554688 C 459.917969 126.289062 459.675781 126.050781 459.714844 125.703125 L 455.9375 120.761719 C 455.71875 120.878906 455.609375 120.636719 455.480469 120.519531 C 455.074219 120.152344 454.6875 119.765625 454.285156 119.402344 C 453.996094 119.140625 453.671875 118.976562 453.265625 118.910156 C 452.222656 118.738281 451.191406 118.515625 450.152344 118.304688 C 445.476562 117.363281 440.800781 116.417969 436.121094 115.476562 C 435.308594 115.3125 435.308594 115.316406 435.300781 114.503906 L 435.300781 114.214844 C 435.300781 114.214844 429.621094 120.214844 429.621094 120.214844 Z M 429.621094 120.214844 " fill-opacity="1" fill-rule="nonzero"/><g clip-path="url(#7c886971e4)"><path fill="#bb4c18" d="M 319.738281 309.613281 C 321.121094 314.644531 324.292969 317.929688 329.398438 319.128906 C 332.203125 319.789062 335.066406 320.175781 337.90625 320.671875 C 340.648438 321.15625 343.394531 321.621094 346.140625 322.105469 C 348.882812 322.582031 351.625 323.078125 354.371094 323.554688 C 357.113281 324.035156 359.859375 324.5 362.605469 324.976562 C 365.445312 325.472656 368.28125 325.96875 371.121094 326.472656 C 372.160156 326.65625 373.195312 326.867188 374.230469 327.0625 C 374.328125 327.0625 374.425781 327.054688 374.519531 327.070312 C 376.191406 327.367188 377.859375 327.675781 379.535156 327.96875 C 383.039062 328.578125 386.546875 329.175781 390.050781 329.785156 C 393.175781 330.332031 396.300781 330.894531 399.425781 331.441406 C 402.929688 332.054688 406.441406 332.648438 409.941406 333.269531 C 411.636719 333.570312 413.328125 333.609375 415.003906 333.207031 C 419.980469 332.011719 423.226562 328.960938 424.703125 324.054688 C 425.070312 322.824219 425.207031 321.542969 425.429688 320.285156 C 426.113281 316.4375 426.769531 312.582031 427.445312 308.734375 C 428.117188 304.886719 428.804688 301.039062 429.480469 297.1875 C 430.242188 292.867188 430.988281 288.542969 431.761719 284.222656 C 432.121094 282.207031 432.191406 280.195312 431.605469 278.222656 C 430.125 273.203125 426.828125 270.039062 421.699219 268.933594 C 418.726562 268.292969 415.703125 267.882812 412.707031 267.339844 C 411.761719 267.167969 410.800781 267.082031 409.878906 266.789062 C 409.558594 266.777344 409.230469 266.808594 408.925781 266.746094 C 407.714844 266.492188 406.507812 266.21875 405.265625 266.171875 C 405.183594 266.167969 405.105469 266.082031 405.023438 266.03125 L 404.9375 266.007812 L 404.84375 266.015625 C 404.507812 266.011719 404.152344 266.113281 403.863281 265.835938 C 403.179688 265.707031 402.496094 265.574219 401.8125 265.445312 C 400.882812 265.265625 399.949219 265.085938 399.019531 264.90625 C 398.738281 264.972656 398.453125 265.019531 398.179688 265.109375 C 395.226562 266.070312 392.160156 266.199219 389.097656 266.363281 C 388.261719 266.410156 387.4375 266.230469 386.609375 266.230469 C 385.230469 266.230469 383.867188 266.058594 382.515625 265.804688 C 381.445312 265.597656 380.398438 265.304688 379.4375 264.773438 C 379.1875 264.636719 378.957031 264.460938 378.730469 264.28125 C 378.601562 264.179688 378.546875 264.023438 378.613281 263.851562 C 378.5625 263.8125 378.515625 263.769531 378.464844 263.726562 C 378.089844 263.78125 377.949219 263.519531 377.894531 263.238281 C 377.800781 262.742188 377.75 262.238281 377.960938 261.753906 C 378.050781 261.542969 377.96875 261.390625 377.855469 261.234375 C 375.019531 260.738281 372.179688 260.242188 369.34375 259.75 C 368.335938 259.578125 367.324219 259.417969 366.3125 259.253906 C 364.894531 258.992188 363.476562 258.734375 362.058594 258.476562 C 359.152344 257.96875 356.25 257.460938 353.34375 256.957031 C 351.007812 256.546875 348.671875 256.140625 346.335938 255.730469 C 344.410156 255.398438 342.488281 255.003906 340.550781 254.75 C 337.796875 254.386719 335.179688 254.9375 332.773438 256.328125 C 329.257812 258.359375 327.148438 261.40625 326.433594 265.394531 C 325.460938 270.820312 324.519531 276.25 323.570312 281.679688 C 322.832031 285.910156 322.101562 290.140625 321.367188 294.371094 C 320.84375 297.367188 320.136719 300.339844 319.792969 303.363281 C 319.25 308.132812 319.675781 309.398438 319.734375 309.613281 Z M 319.738281 309.613281 " fill-opacity="1" fill-rule="nonzero"/></g><g clip-path="url(#45137a6e37)"><path fill="#141b21" d="M 443.378906 417.324219 L 443.765625 417.324219 C 443.992188 417.0625 444.324219 417.027344 444.632812 416.964844 C 447.453125 416.371094 450.277344 415.789062 453.097656 415.199219 C 456.578125 414.46875 460.058594 413.742188 463.535156 413.011719 C 466.765625 412.332031 469.992188 411.648438 473.21875 410.96875 C 476.761719 410.222656 480.300781 409.476562 483.84375 408.734375 C 486.726562 408.128906 489.613281 407.527344 492.5 406.921875 C 496.011719 406.1875 499.519531 405.449219 503.03125 404.710938 C 505.632812 404.164062 508.234375 403.617188 510.835938 403.074219 C 512.152344 402.796875 513.472656 402.527344 514.789062 402.253906 C 515.210938 402.167969 515.539062 401.976562 515.78125 401.585938 C 516.449219 400.519531 517.210938 399.433594 517.28125 398.171875 C 517.484375 394.707031 517.238281 394.175781 517.058594 393.691406 C 516.621094 392.5 515.917969 391.476562 515.039062 390.570312 C 514 389.507812 512.804688 388.652344 511.515625 387.925781 C 509.246094 386.640625 506.816406 385.746094 504.324219 385.03125 C 501.582031 384.246094 498.800781 383.648438 495.976562 383.238281 C 494.296875 382.996094 492.617188 382.746094 490.933594 382.535156 C 489.917969 382.40625 488.894531 382.339844 487.875 382.246094 C 487.746094 382.253906 487.613281 382.296875 487.496094 382.265625 C 486.671875 382.0625 485.839844 382.105469 485.007812 382.140625 C 484.398438 382.164062 483.792969 382.234375 483.183594 382.257812 C 481.484375 382.320312 479.785156 382.324219 478.085938 382.4375 C 476.328125 382.550781 474.5625 382.507812 472.804688 382.625 C 470.980469 382.746094 469.148438 382.695312 467.324219 382.820312 C 465.503906 382.945312 463.671875 382.894531 461.847656 383.019531 C 460.152344 383.136719 458.449219 383.089844 456.753906 383.207031 C 455.027344 383.328125 453.292969 383.269531 451.5625 383.394531 C 449.867188 383.515625 448.164062 383.425781 446.472656 383.605469 C 445.65625 383.695312 445.652344 383.652344 445.34375 382.839844 C 445.203125 385.175781 445.058594 387.511719 444.917969 389.847656 C 444.75 392.730469 444.582031 395.609375 444.417969 398.492188 C 444.34375 399.742188 444.265625 400.992188 444.199219 402.238281 C 444.042969 405.089844 443.894531 407.941406 443.734375 410.789062 C 443.644531 412.359375 443.535156 413.925781 443.445312 415.496094 C 443.410156 416.105469 443.398438 416.714844 443.378906 417.324219 Z M 443.378906 417.324219 " fill-opacity="1" fill-rule="nonzero"/></g><path fill="#0aaab7" d="M 413.328125 255.25 C 413.359375 255.339844 413.363281 255.480469 413.421875 255.507812 C 414.171875 255.871094 414.917969 256.242188 415.683594 256.558594 C 416.597656 256.941406 417.546875 257.234375 418.460938 257.621094 C 420.171875 258.347656 421.976562 258.789062 423.761719 259.265625 C 425.300781 259.675781 426.855469 260.035156 428.425781 260.304688 C 429.867188 260.554688 431.300781 260.847656 432.757812 261.027344 C 433.324219 261.101562 433.894531 261.15625 434.460938 261.234375 C 435.597656 261.390625 436.738281 261.496094 437.878906 261.613281 C 438.800781 261.710938 439.722656 261.765625 440.648438 261.785156 C 440.742188 261.789062 440.84375 261.792969 440.929688 261.828125 C 441.328125 262.003906 441.75 261.964844 442.164062 261.96875 C 443.03125 261.972656 443.894531 261.96875 444.761719 261.972656 C 444.988281 261.972656 445.226562 261.933594 445.429688 262.003906 C 446.027344 262.210938 446.636719 262.15625 447.238281 262.160156 C 448.78125 262.164062 450.320312 262.164062 451.859375 262.160156 C 452.113281 262.160156 452.390625 262.195312 452.621094 262.113281 C 453.09375 261.949219 453.570312 261.972656 454.046875 261.972656 C 454.980469 261.96875 455.910156 261.972656 456.839844 261.96875 C 457.066406 261.96875 457.304688 262.007812 457.511719 261.945312 C 458.328125 261.679688 459.164062 261.800781 459.992188 261.785156 C 460.941406 261.679688 461.886719 261.515625 462.851562 261.570312 C 462.878906 261.570312 462.914062 261.570312 462.945312 261.558594 C 463.53125 261.347656 464.140625 261.40625 464.75 261.386719 C 464.96875 261.378906 465.207031 261.394531 465.414062 261.324219 C 465.789062 261.199219 466.167969 261.207031 466.550781 261.195312 C 466.742188 261.191406 466.941406 261.195312 467.121094 261.148438 C 467.957031 260.921875 468.828125 260.988281 469.675781 260.832031 C 470.453125 260.6875 471.257812 260.691406 472.046875 260.585938 C 473.273438 260.421875 474.5 260.222656 475.722656 260.039062 C 476.289062 259.953125 476.855469 259.871094 477.417969 259.773438 C 478.390625 259.609375 479.359375 259.441406 480.328125 259.265625 C 480.484375 259.238281 480.640625 259.203125 480.789062 259.148438 C 481.027344 259.066406 481.15625 258.898438 481.136719 258.636719 C 481.128906 258.511719 481.121094 258.382812 481.097656 258.257812 C 480.914062 257.191406 480.730469 256.125 480.765625 255.039062 C 480.707031 254.964844 480.609375 254.886719 480.605469 254.808594 C 480.589844 254.105469 480.453125 253.414062 480.402344 252.71875 C 480.347656 251.984375 480.207031 251.265625 480.140625 250.535156 C 480.050781 249.492188 479.824219 248.457031 479.792969 247.40625 C 479.789062 247.308594 479.792969 247.207031 479.757812 247.121094 C 479.496094 246.417969 479.539062 245.667969 479.453125 244.949219 C 479.359375 244.164062 479.121094 243.378906 479.214844 242.570312 C 479.222656 242.480469 479.203125 242.375 479.171875 242.289062 C 478.929688 241.585938 478.964844 240.835938 478.871094 240.117188 C 478.773438 239.328125 478.542969 238.546875 478.632812 237.738281 C 478.640625 237.648438 478.621094 237.542969 478.589844 237.453125 C 478.332031 236.753906 478.40625 236.003906 478.296875 235.28125 C 478.179688 234.5 477.964844 233.710938 478.054688 232.90625 C 478.0625 232.8125 478.03125 232.714844 478.003906 232.621094 C 477.773438 231.917969 477.8125 231.171875 477.714844 230.445312 C 477.613281 229.664062 477.378906 228.878906 477.476562 228.070312 C 477.484375 227.980469 477.449219 227.882812 477.417969 227.789062 C 477.207031 227.082031 477.226562 226.335938 477.136719 225.613281 C 477.035156 224.828125 476.800781 224.042969 476.898438 223.238281 C 476.65625 222.660156 476.75 222.035156 476.65625 221.441406 C 476.53125 220.652344 476.40625 219.867188 476.339844 219.074219 C 476.277344 218.3125 476.050781 217.566406 476.113281 216.792969 C 475.839844 216.253906 476.039062 215.644531 475.878906 215.09375 C 475.671875 214.382812 475.671875 213.636719 475.597656 212.917969 C 475.519531 212.125 475.285156 211.347656 475.351562 210.539062 C 475.359375 210.449219 475.3125 210.351562 475.296875 210.257812 C 475.191406 209.535156 475.007812 208.8125 475.003906 208.085938 C 475 207.28125 474.703125 206.511719 474.777344 205.707031 C 474.558594 205.1875 474.675781 204.621094 474.554688 204.101562 C 474.425781 203.558594 474.40625 203.027344 474.40625 202.484375 C 474.40625 200.78125 474.40625 199.082031 474.398438 197.382812 C 474.398438 197.09375 474.445312 196.785156 474.355469 196.523438 C 474.171875 195.988281 474.226562 195.445312 474.210938 194.90625 C 474.195312 194.425781 474.273438 193.925781 474.160156 193.46875 C 474.023438 192.925781 474.03125 192.390625 474.015625 191.851562 C 474.007812 191.59375 474.042969 191.320312 473.960938 191.085938 C 473.816406 190.679688 473.832031 190.269531 473.820312 189.851562 C 473.816406 189.628906 473.847656 189.390625 473.78125 189.183594 C 473.523438 188.382812 473.59375 187.539062 473.476562 186.722656 C 473.375 186.035156 473.261719 185.335938 473.199219 184.636719 C 473.105469 183.597656 472.851562 182.570312 472.679688 181.535156 C 472.464844 180.246094 472.300781 178.949219 472.050781 177.671875 C 471.753906 176.140625 471.421875 174.613281 471.046875 173.097656 C 470.554688 171.113281 470.097656 169.121094 469.464844 167.175781 C 469.367188 166.875 469.304688 166.558594 469.242188 166.246094 C 469.21875 166.109375 469.292969 165.988281 469.429688 165.949219 C 470.089844 165.761719 470.648438 165.941406 471.023438 166.515625 C 471.25 166.863281 471.40625 167.253906 471.59375 167.625 C 471.652344 167.742188 471.675781 167.871094 471.617188 167.996094 C 471.414062 168.445312 471.5625 168.871094 471.710938 169.296875 C 471.78125 169.511719 471.878906 169.726562 471.882812 169.945312 C 471.917969 171.097656 472.195312 172.214844 472.414062 173.339844 C 472.519531 173.867188 472.660156 174.417969 472.609375 174.941406 C 472.546875 175.554688 472.761719 176.136719 472.679688 176.738281 C 473.050781 177.6875 472.675781 178.726562 473.050781 179.671875 C 473.007812 180.253906 473.105469 180.820312 473.246094 181.378906 C 473.414062 182.035156 473.476562 182.699219 473.441406 183.375 C 473.429688 183.636719 473.511719 183.871094 473.589844 184.121094 C 473.84375 184.902344 474.132812 185.683594 473.863281 186.53125 C 473.820312 186.671875 473.863281 186.847656 473.894531 187 C 474.1875 188.433594 474.640625 189.839844 474.609375 191.328125 C 474.605469 191.453125 474.671875 191.574219 474.691406 191.699219 C 474.792969 192.328125 474.976562 192.960938 474.957031 193.585938 C 474.9375 194.257812 475.265625 194.898438 475.054688 195.574219 C 475.023438 195.667969 475.132812 195.808594 475.171875 195.925781 C 475.234375 196.105469 475.328125 196.285156 475.355469 196.472656 C 475.558594 197.757812 475.753906 199.046875 475.929688 200.339844 C 475.972656 200.65625 476.046875 200.972656 476.074219 201.28125 C 476.152344 202.109375 476.246094 202.929688 476.503906 203.726562 C 476.523438 203.785156 476.535156 203.859375 476.515625 203.914062 C 476.304688 204.578125 476.585938 205.238281 476.527344 205.902344 C 476.503906 206.1875 476.574219 206.472656 476.617188 206.753906 C 476.738281 207.542969 476.972656 208.316406 476.914062 209.125 C 476.882812 209.511719 476.953125 209.878906 477.113281 210.242188 C 477.378906 210.832031 477.515625 211.453125 477.488281 212.105469 C 477.476562 212.457031 477.421875 212.832031 477.519531 213.160156 C 477.714844 213.824219 477.664062 214.492188 477.675781 215.160156 C 477.683594 215.480469 477.652344 215.804688 477.882812 216.078125 C 478.066406 216.289062 478.074219 216.550781 478.058594 216.804688 C 478.007812 217.582031 478.175781 218.335938 478.371094 219.074219 C 478.570312 219.820312 478.675781 220.570312 478.644531 221.347656 C 478.621094 221.984375 478.605469 222.625 478.824219 223.246094 C 479.019531 223.796875 479.054688 224.371094 479.03125 224.953125 C 479.019531 225.175781 479.015625 225.410156 479.078125 225.621094 C 479.265625 226.265625 479.355469 226.925781 479.445312 227.589844 C 479.585938 228.664062 479.835938 229.722656 479.796875 230.816406 C 479.796875 230.910156 479.792969 231.011719 479.820312 231.101562 C 480.113281 231.992188 479.984375 232.933594 480.15625 233.847656 C 480.335938 234.816406 480.480469 235.796875 480.746094 236.746094 C 480.886719 237.246094 480.964844 237.738281 480.957031 238.257812 C 480.945312 238.929688 480.894531 239.605469 481.148438 240.25 C 481.367188 240.804688 481.351562 241.382812 481.335938 241.957031 C 481.316406 242.667969 481.4375 243.378906 481.652344 244.027344 C 481.839844 244.59375 481.917969 245.136719 481.921875 245.710938 C 481.921875 246.03125 481.882812 246.378906 481.996094 246.660156 C 482.410156 247.695312 482.539062 248.75 482.515625 249.855469 C 482.503906 250.355469 482.574219 250.855469 482.503906 251.363281 C 482.46875 251.613281 482.464844 251.878906 482.582031 252.117188 C 482.710938 252.378906 482.648438 252.609375 482.53125 252.855469 C 482.4375 253.050781 482.28125 253.242188 482.394531 253.484375 C 482.515625 253.742188 482.371094 253.914062 482.199219 254.070312 C 482.082031 254.175781 481.941406 254.261719 481.839844 254.382812 C 481.78125 254.457031 481.824219 254.578125 481.925781 254.609375 C 482.046875 254.644531 482.179688 254.640625 482.308594 254.65625 C 483.855469 254.273438 485.21875 253.527344 486.429688 252.507812 C 486.746094 252.246094 487.015625 251.917969 487.28125 251.601562 C 487.777344 251.011719 487.949219 250.386719 487.765625 249.574219 C 487.414062 248.023438 487.207031 246.4375 486.945312 244.867188 C 486.839844 244.339844 486.734375 243.808594 486.632812 243.277344 C 486.476562 242.429688 486.316406 241.585938 486.164062 240.742188 C 485.988281 239.769531 485.820312 238.800781 485.648438 237.828125 C 485.503906 237.015625 485.347656 236.199219 485.203125 235.386719 C 485.03125 234.414062 484.871094 233.441406 484.695312 232.472656 C 484.546875 231.625 484.382812 230.78125 484.234375 229.933594 C 484.066406 228.996094 483.914062 228.054688 483.742188 227.117188 C 483.589844 226.269531 483.425781 225.425781 483.273438 224.582031 C 483.097656 223.609375 482.933594 222.636719 482.761719 221.667969 C 482.613281 220.851562 482.457031 220.039062 482.3125 219.226562 C 482.140625 218.253906 481.980469 217.28125 481.808594 216.308594 C 481.660156 215.464844 481.496094 214.621094 481.34375 213.773438 C 481.179688 212.835938 481.027344 211.890625 480.859375 210.953125 C 480.707031 210.105469 480.535156 209.265625 480.382812 208.417969 C 480.207031 207.449219 480.046875 206.476562 479.875 205.503906 C 479.726562 204.691406 479.558594 203.878906 479.421875 203.0625 C 479.207031 201.777344 479.070312 200.472656 478.78125 199.203125 C 478.507812 197.988281 478.398438 196.75 478.101562 195.542969 C 478.066406 195.398438 478.101562 195.226562 478.125 195.074219 C 478.15625 194.882812 478.226562 194.703125 478.25 194.511719 C 478.394531 193.472656 478.503906 192.429688 478.667969 191.390625 C 478.847656 190.289062 479.042969 189.191406 479.027344 188.070312 C 479.027344 188.007812 479.019531 187.941406 479.039062 187.878906 C 479.332031 186.875 479.179688 185.84375 479.222656 184.824219 C 479.234375 184.570312 479.230469 184.304688 479.304688 184.066406 C 479.402344 183.75 479.410156 183.4375 479.410156 183.117188 C 479.410156 181.898438 479.414062 180.679688 479.410156 179.460938 C 479.410156 179.238281 479.441406 178.992188 479.367188 178.792969 C 479.191406 178.324219 479.230469 177.847656 479.222656 177.367188 C 479.214844 176.730469 479.324219 176.0625 479.179688 175.453125 C 478.933594 174.378906 479.167969 173.273438 478.839844 172.222656 C 478.910156 171.414062 478.65625 170.640625 478.601562 169.84375 C 478.523438 168.800781 478.242188 167.777344 478.082031 166.742188 C 477.886719 165.449219 477.644531 164.167969 477.367188 162.890625 C 477.25 162.34375 476.996094 161.789062 477.15625 161.199219 C 476.167969 158.199219 475.480469 155.105469 474.441406 152.121094 C 473.410156 149.160156 472.339844 146.222656 470.960938 143.40625 C 470.429688 142.316406 469.859375 141.242188 469.066406 140.308594 C 469.0625 140.5 469.046875 140.691406 469.058594 140.882812 C 469.179688 142.347656 469.324219 143.816406 469.421875 145.285156 C 469.523438 146.785156 469.582031 148.289062 469.660156 149.792969 C 469.863281 153.796875 469.71875 157.792969 469.339844 161.785156 C 469.25 162.730469 469.085938 163.667969 468.949219 164.679688 C 468.554688 164.449219 468.574219 164.085938 468.488281 163.808594 C 466.816406 158.523438 464.820312 153.367188 462.496094 148.328125 C 462.257812 147.808594 462.042969 147.273438 461.8125 146.746094 C 461.628906 146.410156 461.429688 146.082031 461.261719 145.738281 C 458.625 140.347656 455.679688 135.132812 452.300781 130.167969 C 450.582031 127.652344 448.722656 125.238281 446.683594 122.972656 C 445.890625 122.089844 445.035156 121.261719 444.105469 120.527344 C 443.164062 119.78125 442.109375 119.253906 440.96875 118.882812 C 439.464844 118.390625 437.929688 118.113281 436.339844 118.152344 C 433.90625 118.214844 431.660156 118.910156 429.621094 120.210938 C 428.398438 120.992188 427.402344 122.050781 426.449219 123.136719 C 423.832031 126.125 422.039062 129.578125 420.707031 133.285156 C 419.578125 136.429688 418.8125 139.664062 418.300781 142.964844 C 417.964844 145.148438 417.675781 147.335938 417.546875 149.542969 C 417.53125 149.800781 417.539062 150.054688 417.539062 150.3125 C 417.902344 149.953125 417.941406 149.453125 418.082031 149.007812 C 418.585938 147.394531 419.03125 145.761719 419.515625 144.140625 C 419.800781 143.191406 420.125 142.253906 420.40625 141.304688 C 420.867188 139.777344 421.324219 138.25 421.746094 136.710938 C 421.90625 136.121094 422.214844 135.652344 422.683594 135.300781 C 423.039062 135.027344 423.371094 134.722656 423.730469 134.460938 C 425.742188 132.976562 427.84375 131.652344 430.179688 130.707031 C 431.972656 129.980469 433.835938 129.550781 435.742188 129.351562 C 437.140625 129.203125 438.5625 129.296875 439.945312 129.582031 C 440.878906 129.773438 441.804688 130.011719 442.695312 130.398438 C 443.433594 130.71875 444.140625 131.089844 444.867188 131.421875 C 446.765625 132.285156 448.226562 133.734375 449.78125 135.058594 C 449.855469 135.121094 449.933594 135.1875 449.976562 135.269531 C 450.242188 135.757812 450.65625 136.117188 451.042969 136.5 C 451.246094 136.707031 451.398438 136.949219 451.570312 137.179688 C 451.835938 137.515625 451.871094 137.824219 451.75 138.242188 C 451.234375 140.019531 450.769531 141.8125 450.28125 143.597656 C 449.988281 144.675781 449.679688 145.746094 449.382812 146.824219 C 448.921875 148.515625 448.460938 150.210938 448 151.902344 C 447.695312 153.011719 447.394531 154.117188 447.09375 155.226562 C 446.625 156.953125 446.152344 158.675781 445.683594 160.398438 C 445.382812 161.507812 445.074219 162.613281 444.773438 163.71875 C 444.308594 165.414062 443.839844 167.105469 443.378906 168.796875 C 443.078125 169.90625 442.785156 171.015625 442.484375 172.125 C 442.007812 173.878906 441.53125 175.632812 441.050781 177.386719 C 440.746094 178.496094 440.4375 179.597656 440.132812 180.707031 C 439.671875 182.398438 439.210938 184.09375 438.746094 185.785156 C 438.445312 186.894531 438.144531 188.003906 437.84375 189.109375 C 437.375 190.835938 436.902344 192.558594 436.433594 194.28125 C 436.128906 195.390625 435.824219 196.496094 435.523438 197.605469 C 435.058594 199.296875 434.589844 200.988281 434.128906 202.683594 C 433.828125 203.789062 433.539062 204.898438 433.234375 206.007812 C 432.757812 207.765625 432.28125 209.515625 431.800781 211.273438 C 431.496094 212.378906 431.1875 213.484375 430.882812 214.59375 C 430.421875 216.285156 429.960938 217.976562 429.496094 219.671875 C 429.195312 220.78125 428.894531 221.886719 428.59375 222.996094 C 428.125 224.71875 427.652344 226.441406 427.183594 228.167969 C 426.882812 229.273438 426.574219 230.382812 426.269531 231.488281 C 425.808594 233.183594 425.339844 234.871094 424.878906 236.566406 C 424.578125 237.675781 424.289062 238.785156 423.984375 239.890625 C 423.507812 241.648438 423.027344 243.402344 422.550781 245.15625 C 422.164062 246.570312 421.78125 247.988281 421.386719 249.402344 C 421.347656 249.546875 421.246094 249.683594 421.152344 249.808594 C 420.949219 250.066406 420.664062 250.21875 420.378906 250.367188 C 418.996094 251.066406 417.542969 251.523438 416.019531 251.78125 C 416.019531 251.8125 416.019531 251.84375 416.015625 251.875 C 416.011719 251.90625 416.007812 251.9375 416.003906 251.96875 C 415.996094 252 415.984375 252.027344 415.96875 252.058594 C 415.960938 252.070312 415.953125 252.085938 415.945312 252.097656 C 415.9375 252.113281 415.925781 252.125 415.914062 252.136719 C 415.664062 252.441406 415.414062 252.746094 415.164062 253.050781 C 414.914062 253.355469 414.664062 253.65625 414.414062 253.960938 C 414.050781 254.394531 413.691406 254.824219 413.328125 255.257812 Z M 413.328125 255.25 " fill-opacity="1" fill-rule="nonzero"/><path fill="#028996" d="M 438.175781 332.039062 C 438.183594 332.144531 438.195312 332.246094 438.203125 332.355469 C 438.445312 334.03125 438.691406 335.710938 438.933594 337.390625 C 439.304688 339.957031 439.675781 342.523438 440.046875 345.089844 C 440.324219 347.023438 440.59375 348.957031 440.871094 350.890625 C 441.230469 353.394531 441.597656 355.894531 441.953125 358.398438 C 442.308594 360.871094 442.652344 363.34375 443.003906 365.816406 C 443.359375 368.289062 443.726562 370.757812 444.082031 373.230469 C 444.433594 375.667969 444.765625 378.109375 445.125 380.550781 C 445.234375 381.3125 445.339844 382.066406 445.34375 382.835938 C 445.65625 383.648438 445.660156 383.691406 446.472656 383.605469 C 448.167969 383.425781 449.871094 383.515625 451.5625 383.394531 C 453.292969 383.269531 455.027344 383.328125 456.753906 383.207031 C 458.449219 383.085938 460.152344 383.132812 461.847656 383.019531 C 463.671875 382.894531 465.503906 382.945312 467.324219 382.820312 C 469.148438 382.691406 470.980469 382.746094 472.804688 382.625 C 474.5625 382.503906 476.332031 382.550781 478.085938 382.433594 C 479.785156 382.320312 481.484375 382.316406 483.183594 382.257812 C 483.792969 382.234375 484.398438 382.164062 485.007812 382.136719 C 485.839844 382.101562 486.671875 382.0625 487.496094 382.265625 C 487.613281 382.292969 487.746094 382.25 487.875 382.242188 C 488.390625 382.003906 488.945312 382.105469 489.488281 382.082031 C 490.46875 382.039062 490.46875 382.082031 490.402344 381.117188 C 490.230469 378.65625 490.050781 376.191406 489.875 373.730469 C 489.804688 372.707031 489.730469 371.683594 489.660156 370.660156 C 489.507812 368.292969 489.371094 365.925781 489.203125 363.558594 C 488.984375 360.425781 488.742188 357.292969 488.519531 354.160156 C 488.425781 352.847656 488.359375 351.535156 488.269531 350.226562 C 488.101562 347.859375 487.925781 345.492188 487.757812 343.125 C 487.683594 342.070312 487.609375 341.015625 487.539062 339.960938 C 487.382812 337.589844 487.238281 335.222656 487.078125 332.855469 C 486.890625 330.074219 486.695312 327.292969 486.503906 324.507812 C 486.308594 321.695312 486.113281 318.882812 485.917969 316.066406 C 485.726562 313.316406 485.535156 310.566406 485.347656 307.816406 C 485.152344 305.003906 484.960938 302.1875 484.765625 299.375 C 484.574219 296.621094 484.382812 293.871094 484.191406 291.121094 C 483.996094 288.339844 483.808594 285.558594 483.613281 282.773438 C 483.421875 279.960938 483.226562 277.148438 483.03125 274.332031 C 482.839844 271.550781 482.644531 268.769531 482.453125 265.984375 C 482.261719 263.234375 482.078125 260.484375 481.878906 257.734375 C 481.808594 256.777344 481.679688 255.820312 481.722656 254.855469 C 481.378906 254.796875 481.09375 255.023438 480.765625 255.035156 C 480.730469 256.125 480.914062 257.191406 481.097656 258.253906 C 481.121094 258.378906 481.125 258.507812 481.136719 258.636719 C 481.15625 258.894531 481.027344 259.0625 480.789062 259.144531 C 480.640625 259.199219 480.488281 259.234375 480.328125 259.261719 C 479.359375 259.4375 478.390625 259.605469 477.417969 259.773438 C 476.855469 259.867188 476.289062 259.949219 475.722656 260.035156 C 474.5 260.222656 473.273438 260.417969 472.046875 260.582031 C 471.261719 260.6875 470.453125 260.6875 469.675781 260.828125 C 468.828125 260.984375 467.957031 260.917969 467.121094 261.144531 C 466.941406 261.195312 466.742188 261.1875 466.550781 261.195312 C 466.167969 261.203125 465.789062 261.195312 465.414062 261.320312 C 465.207031 261.390625 464.96875 261.378906 464.75 261.386719 C 464.140625 261.402344 463.53125 261.34375 462.945312 261.554688 C 462.914062 261.566406 462.878906 261.566406 462.851562 261.566406 C 461.886719 261.515625 460.941406 261.679688 459.992188 261.78125 C 459.945312 262.03125 459.929688 262.292969 459.851562 262.535156 C 458.964844 265.40625 458.070312 268.273438 457.175781 271.144531 C 456.59375 273.007812 456.015625 274.867188 455.433594 276.730469 C 454.421875 279.964844 453.410156 283.203125 452.398438 286.4375 C 451.738281 288.542969 451.074219 290.644531 450.410156 292.75 C 449.355469 296.105469 448.296875 299.460938 447.242188 302.816406 C 446.265625 305.929688 445.296875 309.042969 444.324219 312.15625 C 443.726562 314.078125 443.128906 316.003906 442.523438 317.925781 C 441.375 321.585938 440.21875 325.246094 439.066406 328.90625 C 438.785156 329.789062 438.507812 330.675781 438.234375 331.5625 C 438.1875 331.710938 438.191406 331.875 438.171875 332.035156 Z M 438.175781 332.039062 " fill-opacity="1" fill-rule="nonzero"/><path fill="#2fb8ca" d="M 386.824219 245.082031 C 387.03125 245.160156 387.25 245.21875 387.449219 245.316406 C 388.96875 246.078125 390.519531 246.78125 392.089844 247.433594 C 397.535156 249.6875 403.105469 251.5 409.015625 252.054688 C 411.097656 252.25 413.179688 252.292969 415.253906 251.917969 C 415.472656 251.683594 415.757812 251.773438 416.019531 251.773438 C 417.542969 251.515625 419 251.058594 420.378906 250.359375 C 420.667969 250.214844 420.953125 250.0625 421.152344 249.800781 C 421.25 249.679688 421.347656 249.539062 421.386719 249.394531 C 421.785156 247.980469 422.164062 246.5625 422.550781 245.148438 C 423.027344 243.394531 423.511719 241.640625 423.988281 239.886719 C 424.289062 238.777344 424.578125 237.667969 424.882812 236.558594 C 425.34375 234.867188 425.808594 233.175781 426.273438 231.480469 C 426.578125 230.375 426.882812 229.265625 427.183594 228.160156 C 427.65625 226.4375 428.125 224.710938 428.59375 222.988281 C 428.894531 221.878906 429.199219 220.773438 429.5 219.664062 C 429.960938 217.972656 430.421875 216.277344 430.882812 214.585938 C 431.1875 213.476562 431.496094 212.371094 431.800781 211.265625 C 432.28125 209.507812 432.761719 207.757812 433.238281 206 C 433.539062 204.894531 433.828125 203.785156 434.128906 202.675781 C 434.59375 200.980469 435.058594 199.289062 435.523438 197.597656 C 435.828125 196.488281 436.132812 195.382812 436.433594 194.273438 C 436.90625 192.550781 437.375 190.828125 437.84375 189.105469 C 438.144531 187.996094 438.449219 186.890625 438.75 185.78125 C 439.210938 184.085938 439.671875 182.394531 440.136719 180.699219 C 440.4375 179.59375 440.746094 178.488281 441.050781 177.378906 C 441.53125 175.625 442.011719 173.871094 442.488281 172.117188 C 442.789062 171.007812 443.078125 169.898438 443.382812 168.789062 C 443.84375 167.097656 444.308594 165.40625 444.773438 163.714844 C 445.078125 162.605469 445.382812 161.5 445.683594 160.390625 C 446.15625 158.667969 446.625 156.945312 447.09375 155.21875 C 447.398438 154.113281 447.699219 153.003906 448 151.894531 C 448.460938 150.203125 448.921875 148.507812 449.386719 146.816406 C 449.683594 145.738281 449.988281 144.667969 450.28125 143.589844 C 450.769531 141.804688 451.238281 140.015625 451.75 138.234375 C 451.871094 137.820312 451.835938 137.511719 451.574219 137.171875 C 451.398438 136.945312 451.246094 136.699219 451.042969 136.492188 C 450.660156 136.109375 450.242188 135.75 449.976562 135.261719 C 449.933594 135.179688 449.855469 135.113281 449.785156 135.050781 C 448.230469 133.726562 446.769531 132.277344 444.871094 131.414062 C 444.140625 131.082031 443.433594 130.710938 442.699219 130.390625 C 441.808594 130.007812 440.878906 129.765625 439.945312 129.574219 C 438.566406 129.289062 437.144531 129.195312 435.742188 129.34375 C 433.835938 129.546875 431.972656 129.972656 430.179688 130.699219 C 427.84375 131.644531 425.742188 132.96875 423.730469 134.453125 C 423.371094 134.71875 423.042969 135.023438 422.683594 135.292969 C 422.21875 135.644531 421.90625 136.113281 421.746094 136.703125 C 421.328125 138.242188 420.867188 139.769531 420.40625 141.296875 C 420.125 142.246094 419.800781 143.183594 419.519531 144.132812 C 419.035156 145.753906 418.585938 147.386719 418.085938 149 C 417.945312 149.445312 417.902344 149.949219 417.539062 150.304688 C 417.507812 150.363281 417.449219 150.414062 417.449219 150.472656 C 417.425781 151.613281 416.996094 152.660156 416.679688 153.730469 C 415.246094 158.550781 413.792969 163.363281 412.347656 168.179688 C 410.457031 174.5 408.558594 180.820312 406.667969 187.140625 C 406.082031 189.105469 402.121094 205.535156 401.941406 205.972656 C 400.554688 209.351562 399.199219 212.742188 397.824219 216.125 C 395.507812 221.824219 393.1875 227.523438 390.867188 233.21875 C 389.441406 236.722656 388.011719 240.222656 386.582031 243.722656 C 386.546875 243.808594 386.511719 243.902344 386.472656 243.988281 C 386.257812 244.46875 386.179688 244.773438 386.828125 245.074219 Z M 386.824219 245.082031 " fill-opacity="1" fill-rule="nonzero"/><path fill="#2fb8ca" d="M 477.367188 162.894531 C 477.644531 164.167969 477.882812 165.449219 478.082031 166.742188 C 478.238281 167.78125 478.523438 168.804688 478.597656 169.84375 C 478.65625 170.640625 478.90625 171.417969 478.835938 172.222656 C 479.164062 173.273438 478.929688 174.382812 479.179688 175.453125 C 479.320312 176.0625 479.210938 176.730469 479.222656 177.371094 C 479.230469 177.847656 479.1875 178.328125 479.367188 178.796875 C 479.441406 178.996094 479.410156 179.238281 479.410156 179.464844 C 479.414062 180.683594 479.410156 181.902344 479.410156 183.117188 C 479.410156 183.441406 479.398438 183.753906 479.300781 184.070312 C 479.230469 184.308594 479.230469 184.574219 479.222656 184.828125 C 479.179688 185.847656 479.332031 186.878906 479.035156 187.882812 C 479.015625 187.941406 479.027344 188.007812 479.027344 188.074219 C 479.042969 189.195312 478.847656 190.289062 478.667969 191.394531 C 478.496094 192.429688 478.390625 193.476562 478.246094 194.515625 C 478.222656 194.703125 478.152344 194.882812 478.125 195.074219 C 478.097656 195.226562 478.066406 195.398438 478.097656 195.546875 C 478.394531 196.753906 478.503906 197.992188 478.78125 199.203125 C 479.066406 200.476562 479.203125 201.777344 479.421875 203.066406 C 479.558594 203.882812 479.722656 204.691406 479.871094 205.507812 C 480.042969 206.476562 480.203125 207.449219 480.382812 208.421875 C 480.535156 209.265625 480.703125 210.109375 480.855469 210.953125 C 481.023438 211.894531 481.175781 212.835938 481.34375 213.773438 C 481.492188 214.621094 481.65625 215.464844 481.804688 216.3125 C 481.976562 217.285156 482.136719 218.257812 482.308594 219.226562 C 482.453125 220.042969 482.613281 220.855469 482.757812 221.667969 C 482.929688 222.636719 483.09375 223.613281 483.269531 224.582031 C 483.421875 225.429688 483.589844 226.269531 483.742188 227.117188 C 483.910156 228.054688 484.066406 229 484.230469 229.9375 C 484.382812 230.785156 484.542969 231.628906 484.695312 232.472656 C 484.863281 233.445312 485.027344 234.417969 485.199219 235.386719 C 485.34375 236.203125 485.5 237.015625 485.644531 237.832031 C 485.820312 238.800781 485.984375 239.773438 486.160156 240.742188 C 486.3125 241.585938 486.472656 242.433594 486.632812 243.277344 C 486.730469 243.808594 486.835938 244.339844 486.941406 244.871094 C 487.050781 244.863281 487.164062 244.859375 487.273438 244.851562 C 487.414062 244.703125 487.609375 244.683594 487.796875 244.636719 C 492.238281 243.546875 496.039062 241.316406 499.296875 238.140625 C 502.078125 235.425781 504.242188 232.265625 505.976562 228.800781 C 506.148438 228.460938 506.25 228.078125 506.554688 227.8125 C 506.59375 227.316406 506.894531 226.917969 507.046875 226.464844 C 507.207031 225.976562 507.398438 225.5 507.609375 225.03125 C 507.792969 224.613281 507.75 224.242188 507.546875 223.839844 C 506.960938 222.664062 506.40625 221.472656 505.832031 220.289062 C 504.179688 216.886719 502.519531 213.484375 500.871094 210.082031 C 499.011719 206.242188 497.160156 202.402344 495.300781 198.566406 C 493.359375 194.554688 491.414062 190.542969 489.472656 186.53125 C 487.644531 182.75 485.816406 178.96875 483.988281 175.1875 C 482.230469 171.550781 480.46875 167.914062 478.710938 164.277344 C 478.308594 163.441406 477.917969 162.597656 477.519531 161.757812 C 477.425781 161.554688 477.332031 161.347656 477.152344 161.203125 C 476.992188 161.792969 477.246094 162.347656 477.363281 162.894531 Z M 477.367188 162.894531 " fill-opacity="1" fill-rule="nonzero"/><path fill="#f6a756" d="M 435.300781 99.5 C 435.300781 99.179688 435.320312 98.859375 435.328125 98.539062 C 436.164062 98.53125 437 98.566406 437.832031 98.511719 C 439.628906 98.398438 441.390625 98.046875 443.101562 97.492188 C 446.375 96.433594 449.328125 94.792969 451.964844 92.578125 C 454.867188 90.144531 457.328125 87.335938 459.300781 84.105469 C 459.453125 83.855469 459.605469 83.613281 459.621094 83.316406 C 460.433594 83.949219 460.925781 84.796875 461.292969 85.730469 C 461.863281 87.175781 462.152344 88.6875 462.246094 90.226562 C 462.3125 91.28125 462.328125 92.34375 462.292969 93.398438 C 462.265625 94.1875 462.402344 94.890625 462.785156 95.597656 C 463.574219 97.066406 464.195312 98.617188 464.648438 100.226562 C 464.878906 101.03125 465.011719 101.847656 464.992188 102.691406 C 464.953125 104.25 464.410156 104.863281 462.839844 105.097656 C 462.472656 105.152344 462.460938 105.15625 462.394531 105.589844 C 462.28125 106.351562 462.21875 107.121094 462.0625 107.871094 C 461.3125 111.519531 459.621094 114.597656 456.507812 116.777344 C 456.183594 117.003906 456.027344 117.242188 456.042969 117.644531 C 456.066406 118.507812 456.054688 119.375 456.046875 120.238281 C 456.042969 120.417969 456.136719 120.660156 455.933594 120.765625 C 455.714844 120.878906 455.605469 120.640625 455.476562 120.519531 C 455.070312 120.152344 454.683594 119.769531 454.28125 119.402344 C 453.992188 119.140625 453.664062 118.980469 453.261719 118.910156 C 452.21875 118.742188 451.183594 118.515625 450.148438 118.308594 C 445.472656 117.363281 440.796875 116.417969 436.117188 115.476562 C 435.304688 115.3125 435.304688 115.316406 435.296875 114.503906 L 435.296875 114.214844 C 435.296875 109.3125 435.296875 104.40625 435.296875 99.5 Z M 450.296875 106.605469 C 451.273438 109.03125 453.070312 110.472656 455.601562 111.027344 C 455.945312 111.105469 456.296875 111.167969 456.648438 111.175781 C 457.132812 111.1875 457.46875 110.859375 457.480469 110.429688 C 457.484375 110.074219 457.300781 109.796875 456.960938 109.714844 C 456.679688 109.644531 456.394531 109.609375 456.109375 109.5625 C 453.253906 109.066406 451.617188 107.074219 451.265625 104.21875 C 451.167969 103.429688 451.039062 102.632812 451.179688 101.828125 C 451.207031 101.675781 451.171875 101.507812 451.125 101.359375 C 451.019531 101.015625 450.742188 100.828125 450.402344 100.835938 C 450.0625 100.847656 449.800781 101.042969 449.730469 101.410156 C 449.648438 101.816406 449.617188 102.234375 449.578125 102.542969 C 449.679688 103.996094 449.78125 105.335938 450.296875 106.605469 Z M 450.296875 106.605469 " fill-opacity="1" fill-rule="nonzero"/><g clip-path="url(#14eda29596)"><path fill="#f6a756" d="M 487.273438 244.851562 C 488.824219 248.265625 490.332031 251.699219 491.945312 255.082031 C 493.007812 257.308594 493.976562 259.578125 495.027344 261.808594 C 495.1875 262.15625 495.351562 262.511719 495.578125 262.816406 C 496.574219 264.144531 498.484375 264.796875 500.289062 263.640625 C 500.53125 263.488281 500.746094 263.296875 500.984375 263.109375 C 501.289062 263.242188 501.367188 263.542969 501.535156 263.761719 C 502.808594 265.410156 505.023438 265.503906 506.425781 264.433594 C 507.261719 263.796875 507.730469 262.949219 507.773438 261.886719 C 507.789062 261.511719 507.777344 261.136719 507.777344 260.6875 C 509.363281 261.460938 510.835938 261.417969 512.09375 260.195312 C 513.355469 258.972656 513.394531 257.492188 512.753906 255.96875 C 512.917969 255.796875 513.078125 255.847656 513.234375 255.867188 C 515 256.085938 516.953125 254.894531 517.117188 252.515625 C 517.160156 251.933594 516.972656 251.378906 516.730469 250.847656 C 515.929688 249.0625 515.128906 247.28125 514.328125 245.496094 C 513.605469 243.890625 512.871094 242.285156 512.164062 240.671875 C 510.378906 236.59375 508.601562 232.507812 506.824219 228.425781 C 506.734375 228.222656 506.640625 228.015625 506.550781 227.8125 C 506.25 228.078125 506.144531 228.460938 505.972656 228.800781 C 504.238281 232.265625 502.074219 235.425781 499.292969 238.140625 C 496.035156 241.316406 492.234375 243.546875 487.796875 244.636719 C 487.609375 244.683594 487.414062 244.703125 487.269531 244.851562 Z M 487.273438 244.851562 " fill-opacity="1" fill-rule="nonzero"/></g><path fill="#f6a756" d="M 377.316406 257.101562 C 377.628906 256.269531 377.863281 256.125 378.75 256.199219 C 379.519531 256.265625 380.285156 256.332031 381.046875 256.425781 C 383.03125 256.675781 385.019531 256.644531 387.007812 256.578125 C 387.75 256.554688 388.460938 256.316406 389.183594 256.179688 C 389.351562 256.148438 389.457031 256.027344 389.460938 255.84375 C 389.464844 255.664062 389.28125 255.484375 389.082031 255.476562 C 388.988281 255.472656 388.890625 255.476562 388.796875 255.488281 C 386.753906 255.703125 384.707031 255.828125 382.652344 255.804688 C 381.84375 255.796875 381.054688 255.648438 380.253906 255.585938 C 380.003906 255.566406 379.753906 255.480469 379.511719 255.394531 C 378.773438 255.144531 378.210938 254.710938 378.039062 253.898438 C 378.074219 253.679688 378.078125 253.449219 378.148438 253.238281 C 378.492188 252.226562 379.226562 251.703125 380.304688 251.710938 C 381.644531 251.71875 382.992188 251.746094 384.332031 251.75 C 385.289062 251.753906 386.25 251.75 387.191406 251.539062 C 387.765625 251.523438 388.324219 251.433594 388.839844 251.15625 C 388.910156 251.117188 388.976562 251.023438 388.992188 250.941406 C 389.023438 250.777344 388.871094 250.714844 388.761719 250.707031 C 388.351562 250.675781 387.941406 250.648438 387.53125 250.671875 C 386.898438 250.710938 386.269531 250.785156 385.640625 250.863281 C 385.488281 250.882812 385.347656 250.964844 385.199219 251.015625 C 384.347656 251.007812 383.5 251.027344 382.648438 250.988281 C 381.960938 250.953125 381.273438 250.851562 380.585938 250.777344 C 380.492188 250.5625 380.285156 250.453125 380.117188 250.308594 C 379.792969 250.015625 379.738281 249.644531 379.847656 249.253906 C 379.917969 249.011719 380.046875 248.785156 380.183594 248.566406 C 380.476562 248.09375 380.917969 247.78125 381.394531 247.503906 C 382.203125 247.03125 383.089844 246.769531 384.003906 246.585938 C 385.089844 246.367188 386.082031 245.953125 386.824219 245.082031 C 387.03125 245.160156 387.25 245.21875 387.449219 245.320312 C 388.96875 246.078125 390.519531 246.78125 392.089844 247.433594 C 397.535156 249.6875 403.105469 251.5 409.015625 252.054688 C 411.097656 252.25 413.179688 252.292969 415.253906 251.917969 C 415.472656 251.984375 415.765625 251.835938 415.910156 252.132812 C 415.664062 252.433594 415.414062 252.738281 415.164062 253.042969 C 414.914062 253.347656 414.664062 253.652344 414.414062 253.953125 C 414.050781 254.386719 413.691406 254.820312 413.328125 255.253906 C 413.082031 255.355469 412.9375 255.574219 412.761719 255.757812 C 410.660156 257.953125 408.351562 259.898438 405.800781 261.558594 C 405.664062 261.648438 405.539062 261.761719 405.414062 261.867188 C 405.394531 261.882812 405.375 261.898438 405.359375 261.914062 C 405.320312 261.925781 405.277344 261.941406 405.234375 261.960938 C 405.210938 261.972656 405.1875 261.984375 405.164062 261.992188 C 405.113281 262.015625 405.0625 262.039062 405.007812 262.0625 C 404.953125 262.089844 404.898438 262.117188 404.839844 262.144531 C 404.691406 262.21875 404.535156 262.300781 404.367188 262.386719 C 403.710938 262.742188 402.980469 263.183594 402.691406 263.421875 C 402.597656 263.441406 402.5 263.445312 402.414062 263.480469 C 401.28125 263.953125 400.152344 264.429688 399.019531 264.90625 C 398.738281 264.972656 398.453125 265.019531 398.183594 265.109375 C 395.226562 266.070312 392.160156 266.199219 389.097656 266.363281 C 388.261719 266.410156 387.441406 266.230469 386.609375 266.230469 C 385.230469 266.230469 383.867188 266.058594 382.515625 265.804688 C 381.449219 265.597656 380.402344 265.304688 379.4375 264.773438 C 379.1875 264.636719 378.957031 264.460938 378.734375 264.28125 C 378.601562 264.179688 378.546875 264.023438 378.613281 263.851562 C 378.796875 263.902344 378.980469 263.957031 379.164062 263.996094 C 379.878906 264.164062 380.519531 263.824219 380.789062 263.148438 C 381.015625 262.582031 380.789062 261.925781 380.238281 261.5625 C 379.515625 261.085938 378.308594 261.460938 378.203125 262.523438 C 378.160156 262.964844 378.386719 263.324219 378.464844 263.726562 C 378.089844 263.78125 377.949219 263.519531 377.894531 263.238281 C 377.800781 262.742188 377.753906 262.238281 377.960938 261.753906 C 378.050781 261.542969 377.96875 261.390625 377.855469 261.234375 C 377.953125 261.222656 378.066406 261.238281 378.140625 261.191406 C 378.777344 260.796875 379.429688 260.9375 380.085938 261.121094 C 380.332031 261.191406 380.578125 261.265625 380.816406 261.359375 C 381.242188 261.519531 381.679688 261.558594 382.132812 261.597656 C 383.636719 261.714844 385.144531 261.765625 386.652344 261.757812 C 387.460938 261.753906 388.246094 261.59375 389.046875 261.519531 C 389.265625 261.5 389.476562 261.402344 389.683594 261.324219 C 389.828125 261.269531 389.847656 261.035156 389.742188 260.914062 C 389.589844 260.734375 389.398438 260.625 389.160156 260.632812 C 388.871094 260.644531 388.582031 260.667969 388.292969 260.691406 C 385.792969 260.910156 383.292969 260.945312 380.804688 260.589844 C 380.085938 260.488281 379.351562 260.367188 378.644531 259.933594 C 378.953125 259.84375 379.199219 259.792969 379.425781 259.699219 C 380.007812 259.464844 380.371094 258.886719 380.300781 258.34375 C 380.21875 257.691406 379.738281 257.203125 379.117188 257.136719 C 378.4375 257.070312 377.917969 257.378906 377.671875 258.003906 C 377.59375 258.207031 377.640625 258.453125 377.4375 258.632812 C 377.230469 258.636719 377.234375 258.441406 377.1875 258.316406 C 377.027344 257.894531 377.164062 257.488281 377.3125 257.097656 Z M 380.011719 252.433594 C 379.34375 252.507812 378.710938 253.039062 378.785156 253.882812 C 378.765625 254.511719 379.363281 255.128906 380.105469 255.144531 C 380.796875 255.160156 381.46875 254.472656 381.46875 253.789062 C 381.46875 253.0625 380.722656 252.355469 380.011719 252.433594 Z M 381.527344 248.285156 C 380.890625 248.285156 380.371094 248.792969 380.363281 249.425781 C 380.351562 250.054688 380.855469 250.589844 381.484375 250.613281 C 382.15625 250.636719 382.710938 250.089844 382.699219 249.421875 C 382.6875 248.792969 382.164062 248.285156 381.527344 248.285156 Z M 381.527344 248.285156 " fill-opacity="1" fill-rule="nonzero"/><g clip-path="url(#4912e6c628)"><path fill="#a05828" d="M 435.328125 98.539062 C 436.164062 98.53125 437 98.566406 437.832031 98.511719 C 439.628906 98.398438 441.390625 98.046875 443.101562 97.492188 C 446.375 96.433594 449.328125 94.792969 451.964844 92.578125 C 454.867188 90.144531 457.328125 87.335938 459.300781 84.105469 C 459.453125 83.855469 459.605469 83.613281 459.621094 83.316406 C 459.453125 83.125 459.277344 82.933594 459.101562 82.75 C 457.398438 80.953125 455.4375 79.515625 453.09375 78.617188 C 452.199219 78.273438 451.277344 78.019531 450.324219 77.917969 L 447.03125 77.917969 C 445.390625 78.113281 443.859375 78.636719 442.394531 79.382812 C 441.421875 79.875 440.523438 80.492188 439.648438 81.132812 C 438.675781 81.84375 437.96875 82.792969 437.386719 83.835938 C 436.566406 85.300781 436.054688 86.882812 435.738281 88.515625 C 435.101562 91.832031 434.925781 95.175781 435.328125 98.539062 Z M 435.328125 98.539062 " fill-opacity="1" fill-rule="nonzero"/></g><path fill="#eb693a" d="M 462.03125 130.929688 C 463.222656 134.417969 463.535156 137.988281 463.082031 141.640625 C 462.917969 142.980469 462.632812 144.289062 462.25 145.582031 C 462.128906 145.976562 461.960938 146.359375 461.8125 146.75 C 462.039062 147.277344 462.253906 147.808594 462.496094 148.332031 C 464.816406 153.367188 466.8125 158.527344 468.484375 163.8125 C 468.574219 164.089844 468.550781 164.453125 468.945312 164.679688 C 469.085938 163.671875 469.246094 162.730469 469.335938 161.789062 C 469.714844 157.796875 469.859375 153.800781 469.65625 149.796875 C 469.578125 148.292969 469.519531 146.789062 469.421875 145.285156 C 469.320312 143.820312 469.175781 142.351562 469.058594 140.886719 C 469.042969 140.695312 469.058594 140.503906 469.0625 140.3125 C 468.917969 139.203125 468.785156 138.085938 468.621094 136.980469 C 468.195312 134.144531 467.238281 131.519531 465.441406 129.253906 C 464.160156 127.632812 462.546875 126.453125 460.570312 125.800781 C 460.296875 125.710938 460.03125 125.59375 459.714844 125.703125 C 459.675781 126.050781 459.917969 126.292969 460.066406 126.554688 C 460.855469 127.957031 461.515625 129.414062 462.03125 130.933594 Z M 462.03125 130.929688 " fill-opacity="1" fill-rule="nonzero"/><path fill="#2fb8ca" d="M 469.242188 166.246094 C 469.304688 166.558594 469.367188 166.875 469.464844 167.175781 C 470.101562 169.121094 470.554688 171.113281 471.046875 173.097656 C 471.421875 174.613281 471.753906 176.136719 472.050781 177.671875 C 472.300781 178.949219 472.464844 180.246094 472.679688 181.535156 C 472.851562 182.570312 473.105469 183.597656 473.199219 184.636719 C 473.261719 185.339844 473.375 186.035156 473.476562 186.722656 C 473.59375 187.539062 473.523438 188.378906 473.78125 189.183594 C 473.847656 189.390625 473.820312 189.628906 473.820312 189.851562 C 473.832031 190.269531 473.816406 190.679688 473.960938 191.085938 C 474.042969 191.320312 474.007812 191.59375 474.015625 191.851562 C 474.03125 192.390625 474.023438 192.925781 474.160156 193.46875 C 474.273438 193.925781 474.195312 194.425781 474.210938 194.90625 C 474.226562 195.445312 474.171875 195.988281 474.355469 196.523438 C 474.445312 196.785156 474.398438 197.09375 474.398438 197.382812 C 474.40625 199.082031 474.402344 200.78125 474.40625 202.484375 C 474.40625 203.027344 474.425781 203.558594 474.554688 204.101562 C 474.675781 204.621094 474.558594 205.1875 474.777344 205.707031 C 474.703125 206.511719 475 207.28125 475.003906 208.085938 C 475.007812 208.8125 475.191406 209.535156 475.296875 210.257812 C 475.3125 210.351562 475.359375 210.449219 475.351562 210.539062 C 475.285156 211.347656 475.519531 212.125 475.597656 212.917969 C 475.671875 213.636719 475.671875 214.382812 475.878906 215.09375 C 476.039062 215.644531 475.839844 216.253906 476.113281 216.792969 C 476.050781 217.566406 476.277344 218.3125 476.339844 219.074219 C 476.40625 219.867188 476.53125 220.65625 476.65625 221.441406 C 476.75 222.035156 476.65625 222.660156 476.898438 223.238281 C 476.800781 224.042969 477.035156 224.828125 477.136719 225.613281 C 477.226562 226.335938 477.207031 227.078125 477.417969 227.789062 C 477.445312 227.878906 477.484375 227.980469 477.476562 228.070312 C 477.378906 228.878906 477.613281 229.664062 477.714844 230.445312 C 477.8125 231.167969 477.773438 231.914062 478.003906 232.621094 C 478.03125 232.710938 478.0625 232.8125 478.054688 232.90625 C 477.964844 233.710938 478.179688 234.5 478.296875 235.28125 C 478.40625 236.003906 478.332031 236.753906 478.589844 237.453125 C 478.621094 237.542969 478.644531 237.644531 478.632812 237.738281 C 478.542969 238.546875 478.773438 239.332031 478.871094 240.117188 C 478.960938 240.835938 478.929688 241.585938 479.171875 242.289062 C 479.203125 242.378906 479.222656 242.480469 479.214844 242.570312 C 479.121094 243.378906 479.359375 244.164062 479.453125 244.949219 C 479.542969 245.667969 479.496094 246.417969 479.757812 247.121094 C 479.792969 247.207031 479.789062 247.308594 479.792969 247.40625 C 479.824219 248.457031 480.050781 249.492188 480.140625 250.535156 C 480.207031 251.265625 480.347656 251.984375 480.402344 252.71875 C 480.453125 253.414062 480.589844 254.105469 480.605469 254.808594 C 480.605469 254.886719 480.710938 254.960938 480.765625 255.039062 C 481.09375 255.023438 481.378906 254.796875 481.722656 254.859375 C 481.9375 254.847656 482.152344 254.835938 482.308594 254.65625 C 482.183594 254.640625 482.050781 254.644531 481.929688 254.609375 C 481.828125 254.582031 481.78125 254.457031 481.84375 254.386719 C 481.941406 254.265625 482.082031 254.179688 482.199219 254.070312 C 482.371094 253.914062 482.515625 253.742188 482.394531 253.484375 C 482.28125 253.242188 482.4375 253.050781 482.53125 252.855469 C 482.652344 252.613281 482.710938 252.378906 482.585938 252.121094 C 482.464844 251.882812 482.46875 251.613281 482.503906 251.363281 C 482.578125 250.859375 482.503906 250.355469 482.515625 249.859375 C 482.539062 248.753906 482.410156 247.695312 481.996094 246.660156 C 481.886719 246.378906 481.925781 246.03125 481.921875 245.714844 C 481.917969 245.136719 481.84375 244.59375 481.65625 244.027344 C 481.4375 243.378906 481.320312 242.667969 481.339844 241.960938 C 481.351562 241.382812 481.371094 240.804688 481.152344 240.253906 C 480.894531 239.609375 480.945312 238.929688 480.957031 238.257812 C 480.96875 237.742188 480.886719 237.25 480.746094 236.746094 C 480.480469 235.796875 480.339844 234.820312 480.15625 233.851562 C 479.988281 232.933594 480.113281 231.996094 479.824219 231.101562 C 479.796875 231.011719 479.796875 230.910156 479.800781 230.816406 C 479.835938 229.722656 479.589844 228.664062 479.445312 227.589844 C 479.355469 226.925781 479.265625 226.269531 479.078125 225.621094 C 479.015625 225.414062 479.023438 225.175781 479.03125 224.953125 C 479.054688 224.375 479.019531 223.796875 478.824219 223.25 C 478.605469 222.628906 478.625 221.988281 478.648438 221.347656 C 478.679688 220.574219 478.570312 219.824219 478.375 219.074219 C 478.179688 218.335938 478.007812 217.585938 478.058594 216.808594 C 478.078125 216.550781 478.066406 216.289062 477.886719 216.078125 C 477.652344 215.808594 477.683594 215.484375 477.679688 215.164062 C 477.667969 214.492188 477.71875 213.824219 477.519531 213.160156 C 477.425781 212.835938 477.476562 212.457031 477.492188 212.109375 C 477.515625 211.453125 477.378906 210.832031 477.117188 210.246094 C 476.953125 209.878906 476.882812 209.515625 476.914062 209.125 C 476.972656 208.316406 476.742188 207.542969 476.621094 206.757812 C 476.578125 206.472656 476.503906 206.191406 476.53125 205.90625 C 476.585938 205.242188 476.304688 204.582031 476.515625 203.917969 C 476.535156 203.859375 476.523438 203.785156 476.507812 203.726562 C 476.246094 202.929688 476.152344 202.113281 476.078125 201.28125 C 476.046875 200.972656 475.976562 200.65625 475.933594 200.339844 C 475.753906 199.050781 475.558594 197.761719 475.355469 196.472656 C 475.328125 196.285156 475.238281 196.109375 475.175781 195.929688 C 475.132812 195.808594 475.027344 195.671875 475.054688 195.574219 C 475.265625 194.898438 474.9375 194.257812 474.957031 193.589844 C 474.976562 192.964844 474.792969 192.332031 474.691406 191.703125 C 474.671875 191.578125 474.605469 191.453125 474.609375 191.328125 C 474.644531 189.84375 474.191406 188.4375 473.894531 187.003906 C 473.867188 186.847656 473.820312 186.671875 473.863281 186.53125 C 474.132812 185.683594 473.84375 184.902344 473.59375 184.121094 C 473.511719 183.875 473.429688 183.636719 473.445312 183.375 C 473.480469 182.703125 473.414062 182.039062 473.25 181.382812 C 473.109375 180.824219 473.007812 180.257812 473.054688 179.675781 C 472.675781 178.726562 473.054688 177.6875 472.683594 176.742188 C 472.765625 176.140625 472.546875 175.554688 472.609375 174.941406 C 472.664062 174.417969 472.519531 173.867188 472.417969 173.339844 C 472.195312 172.214844 471.917969 171.101562 471.886719 169.945312 C 471.878906 169.726562 471.78125 169.511719 471.710938 169.300781 C 471.566406 168.871094 471.414062 168.449219 471.621094 167.996094 C 471.675781 167.871094 471.65625 167.746094 471.59375 167.625 C 471.410156 167.253906 471.25 166.863281 471.023438 166.515625 C 470.652344 165.941406 470.09375 165.761719 469.429688 165.949219 C 469.292969 165.988281 469.21875 166.109375 469.246094 166.246094 Z M 469.242188 166.246094 " fill-opacity="1" fill-rule="nonzero"/><path fill="#8e4819" d="M 362.0625 258.476562 C 363.480469 258.734375 364.898438 258.992188 366.316406 259.253906 C 366.429688 258.964844 366.695312 258.824219 366.921875 258.65625 C 367.804688 258.015625 368.722656 257.4375 369.675781 256.910156 C 372.300781 255.457031 375.078125 254.417969 378.039062 253.894531 C 378.074219 253.675781 378.078125 253.445312 378.148438 253.238281 C 378.492188 252.222656 379.226562 251.699219 380.304688 251.707031 C 381.644531 251.714844 382.992188 251.742188 384.332031 251.75 C 385.289062 251.753906 386.25 251.75 387.191406 251.535156 C 387.078125 251.488281 386.972656 251.429688 386.855469 251.390625 C 386.316406 251.207031 385.726562 251.25 385.199219 251.015625 C 384.351562 251.003906 383.5 251.027344 382.652344 250.984375 C 381.960938 250.953125 381.277344 250.847656 380.589844 250.773438 C 378.433594 250.828125 376.3125 251.121094 374.234375 251.726562 C 372.007812 252.371094 369.886719 253.253906 367.867188 254.382812 C 366.242188 255.292969 364.707031 256.339844 363.234375 257.484375 C 362.832031 257.796875 362.453125 258.144531 362.066406 258.472656 Z M 362.0625 258.476562 " fill-opacity="1" fill-rule="nonzero"/><path fill="#2fb8ca" d="M 413.328125 255.25 C 413.082031 255.351562 412.9375 255.574219 412.761719 255.753906 C 410.660156 257.945312 408.351562 259.894531 405.800781 261.554688 C 405.644531 261.65625 405.503906 261.792969 405.359375 261.910156 C 406.550781 263.007812 407.679688 264.167969 408.746094 265.386719 C 409.144531 265.835938 409.585938 266.253906 409.878906 266.789062 C 410.800781 267.078125 411.761719 267.164062 412.707031 267.335938 C 415.703125 267.878906 418.726562 268.292969 421.703125 268.933594 C 426.828125 270.039062 430.125 273.203125 431.609375 278.222656 C 432.191406 280.195312 432.121094 282.207031 431.761719 284.222656 C 430.992188 288.542969 430.242188 292.867188 429.484375 297.1875 C 428.804688 301.035156 428.121094 304.882812 427.445312 308.734375 C 426.769531 312.582031 426.117188 316.433594 425.429688 320.28125 C 425.207031 321.542969 425.070312 322.824219 424.703125 324.054688 C 423.226562 328.960938 419.980469 332.007812 415.003906 333.207031 C 413.328125 333.609375 411.636719 333.570312 409.941406 333.269531 C 406.441406 332.644531 402.929688 332.054688 399.425781 331.441406 C 396.300781 330.894531 393.179688 330.332031 390.050781 329.785156 C 386.546875 329.171875 383.039062 328.578125 379.535156 327.964844 C 377.863281 327.675781 376.191406 327.367188 374.519531 327.066406 C 374.425781 327.050781 374.328125 327.0625 374.230469 327.0625 C 373.980469 329 373.714844 330.929688 373.480469 332.867188 C 373.308594 334.296875 373.179688 335.734375 373.027344 337.164062 C 372.859375 338.757812 372.683594 340.347656 372.515625 341.9375 C 372.4375 342.667969 372.417969 343.40625 372.324219 344.136719 C 372.1875 345.25 372.152344 346.371094 372.0625 347.488281 C 371.96875 348.699219 371.859375 349.910156 371.753906 351.121094 C 371.746094 351.21875 371.734375 351.3125 371.726562 351.410156 C 371.640625 353.011719 371.617188 354.613281 371.457031 356.207031 C 371.285156 357.898438 371.332031 359.597656 371.179688 361.289062 C 371.0625 362.59375 371.121094 363.917969 371.078125 365.230469 C 371.066406 365.625 371.265625 365.792969 371.601562 365.925781 C 373.210938 366.554688 374.816406 367.203125 376.425781 367.847656 C 376.839844 368.011719 377.253906 368.191406 377.667969 368.363281 C 377.964844 368.363281 378.226562 368.480469 378.492188 368.589844 C 379.5 369 380.511719 369.402344 381.519531 369.800781 C 390.554688 373.394531 399.585938 376.988281 408.613281 380.589844 C 408.839844 380.679688 409.125 380.699219 409.253906 380.96875 C 410.867188 381.597656 412.480469 382.21875 414.089844 382.855469 C 416.238281 383.703125 418.386719 384.558594 420.53125 385.410156 C 420.648438 385.457031 420.769531 385.511719 420.890625 385.546875 C 421.171875 385.628906 421.3125 385.570312 421.40625 385.289062 C 421.640625 384.589844 421.867188 383.890625 422.089844 383.1875 C 423 380.28125 423.910156 377.378906 424.816406 374.472656 C 426.605469 368.753906 428.386719 363.035156 430.175781 357.320312 C 431.316406 353.679688 432.457031 350.042969 433.597656 346.40625 C 435.027344 341.851562 436.460938 337.296875 437.890625 332.742188 C 437.925781 332.621094 437.945312 332.492188 437.96875 332.367188 C 437.988281 332.230469 438.035156 332.101562 438.171875 332.035156 C 438.191406 331.878906 438.191406 331.714844 438.234375 331.5625 C 438.503906 330.675781 438.785156 329.792969 439.0625 328.90625 C 440.21875 325.246094 441.371094 321.585938 442.523438 317.925781 C 443.128906 316.003906 443.722656 314.082031 444.324219 312.15625 C 445.296875 309.046875 446.265625 305.929688 447.242188 302.820312 C 448.292969 299.464844 449.351562 296.105469 450.410156 292.753906 C 451.070312 290.648438 451.734375 288.542969 452.394531 286.4375 C 453.410156 283.203125 454.421875 279.96875 455.433594 276.734375 C 456.015625 274.871094 456.59375 273.007812 457.175781 271.148438 C 458.066406 268.277344 458.964844 265.40625 459.851562 262.535156 C 459.925781 262.292969 459.945312 262.035156 459.988281 261.78125 C 459.160156 261.800781 458.328125 261.679688 457.507812 261.941406 C 457.304688 262.007812 457.0625 261.964844 456.839844 261.964844 C 455.90625 261.96875 454.976562 261.964844 454.046875 261.96875 C 453.566406 261.96875 453.09375 261.945312 452.621094 262.113281 C 452.390625 262.191406 452.113281 262.15625 451.855469 262.15625 C 450.316406 262.15625 448.777344 262.160156 447.238281 262.15625 C 446.632812 262.152344 446.023438 262.210938 445.425781 262 C 445.226562 261.929688 444.980469 261.96875 444.757812 261.96875 C 443.890625 261.964844 443.027344 261.96875 442.160156 261.964844 C 441.742188 261.960938 441.324219 262 440.925781 261.824219 C 440.839844 261.789062 440.738281 261.785156 440.644531 261.78125 C 439.71875 261.761719 438.796875 261.707031 437.871094 261.609375 C 436.734375 261.492188 435.59375 261.386719 434.457031 261.230469 C 433.890625 261.152344 433.320312 261.097656 432.753906 261.023438 C 431.296875 260.84375 429.863281 260.546875 428.421875 260.300781 C 426.847656 260.03125 425.296875 259.671875 423.757812 259.261719 C 421.972656 258.785156 420.167969 258.34375 418.453125 257.617188 C 417.542969 257.230469 416.59375 256.933594 415.679688 256.554688 C 414.914062 256.238281 414.167969 255.867188 413.417969 255.503906 C 413.359375 255.476562 413.351562 255.335938 413.324219 255.246094 Z M 413.328125 255.25 " fill-opacity="1" fill-rule="nonzero"/><path fill="#8e4819" d="M 409.878906 266.789062 C 409.585938 266.253906 409.144531 265.839844 408.746094 265.386719 C 407.679688 264.167969 406.550781 263.007812 405.359375 261.910156 C 404.75 262.132812 403.148438 263.039062 402.691406 263.417969 C 402.847656 263.527344 403.046875 263.605469 403.144531 263.753906 C 403.675781 264.515625 404.285156 265.199219 405.035156 265.75 C 405.082031 265.78125 405.132812 265.84375 405.128906 265.890625 C 405.128906 265.9375 405.0625 265.984375 405.023438 266.027344 C 405.105469 266.074219 405.183594 266.164062 405.265625 266.167969 C 406.507812 266.214844 407.714844 266.488281 408.925781 266.742188 C 409.234375 266.804688 409.558594 266.773438 409.878906 266.785156 Z M 409.878906 266.789062 " fill-opacity="1" fill-rule="nonzero"/><path fill="#49b7c3" d="M 405.027344 266.027344 C 405.0625 265.984375 405.128906 265.941406 405.132812 265.890625 C 405.132812 265.847656 405.082031 265.78125 405.039062 265.75 C 404.285156 265.199219 403.675781 264.515625 403.148438 263.753906 C 403.046875 263.609375 402.847656 263.53125 402.695312 263.417969 C 402.601562 263.4375 402.503906 263.445312 402.417969 263.480469 C 401.285156 263.953125 400.152344 264.429688 399.023438 264.90625 C 399.953125 265.085938 400.882812 265.265625 401.816406 265.445312 C 402.5 265.574219 403.183594 265.707031 403.867188 265.835938 C 404.207031 265.808594 404.542969 265.832031 404.847656 266.015625 L 404.9375 266.003906 L 405.027344 266.03125 Z M 405.027344 266.027344 " fill-opacity="1" fill-rule="nonzero"/><path fill="#fffcf9" d="M 378.613281 263.851562 C 378.800781 263.902344 378.980469 263.953125 379.167969 263.996094 C 379.878906 264.164062 380.523438 263.824219 380.792969 263.148438 C 381.015625 262.582031 380.789062 261.929688 380.238281 261.5625 C 379.519531 261.085938 378.308594 261.460938 378.207031 262.523438 C 378.164062 262.964844 378.390625 263.324219 378.46875 263.726562 C 378.515625 263.769531 378.566406 263.808594 378.613281 263.851562 Z M 378.613281 263.851562 " fill-opacity="1" fill-rule="nonzero"/><path fill="#a05828" d="M 404.847656 266.011719 C 404.542969 265.832031 404.207031 265.808594 403.867188 265.835938 C 404.152344 266.113281 404.511719 266.011719 404.847656 266.011719 Z M 404.847656 266.011719 " fill-opacity="1" fill-rule="nonzero"/><g clip-path="url(#7e124d581c)"><path fill="#141b21" d="M 409.253906 380.96875 C 409.128906 380.703125 408.84375 380.679688 408.617188 380.59375 C 399.585938 376.992188 390.554688 373.398438 381.523438 369.804688 C 380.511719 369.402344 379.5 369.003906 378.492188 368.59375 C 378.226562 368.484375 377.964844 368.367188 377.667969 368.367188 C 374.816406 373.742188 371.96875 379.117188 369.117188 384.492188 C 366.355469 389.699219 363.589844 394.902344 360.824219 400.105469 C 360.75 400.246094 360.667969 400.386719 360.597656 400.53125 C 360.484375 400.761719 360.539062 400.875 360.804688 400.9375 C 361.960938 401.199219 363.117188 401.460938 364.269531 401.726562 C 369.265625 402.863281 374.257812 404 379.253906 405.136719 C 384.75 406.382812 390.246094 407.617188 395.742188 408.867188 C 400.421875 409.929688 405.101562 411.011719 409.785156 412.078125 C 414.652344 413.183594 419.527344 414.285156 424.398438 415.390625 C 426.894531 415.957031 429.390625 416.53125 431.882812 417.113281 C 432.085938 417.160156 432.246094 417.140625 432.425781 417.035156 C 434.214844 415.996094 435.679688 414.640625 436.570312 412.746094 C 437.429688 410.921875 437.445312 409.03125 436.902344 407.117188 C 436.449219 405.523438 435.652344 404.105469 434.699219 402.765625 C 432.992188 400.371094 430.894531 398.347656 428.644531 396.472656 C 425.140625 393.546875 421.335938 391.054688 417.417969 388.722656 C 414.445312 386.953125 411.402344 385.308594 408.328125 383.726562 C 408.101562 383.609375 407.875 383.488281 407.589844 383.335938 C 408.121094 382.511719 408.6875 381.742188 409.253906 380.972656 Z M 409.253906 380.96875 " fill-opacity="1" fill-rule="nonzero"/></g><path fill="#49b7c3" d="M 438.175781 332.039062 C 438.035156 332.105469 437.992188 332.230469 437.972656 332.371094 C 438.046875 332.363281 438.125 332.359375 438.207031 332.355469 C 438.195312 332.246094 438.1875 332.144531 438.179688 332.035156 Z M 438.175781 332.039062 " fill-opacity="1" fill-rule="nonzero"/><path fill="#49b7c3" d="M 415.25 251.917969 C 415.472656 251.984375 415.761719 251.832031 415.910156 252.128906 C 416.011719 252.03125 416.015625 251.902344 416.019531 251.773438 C 415.753906 251.773438 415.472656 251.683594 415.25 251.917969 Z M 415.25 251.917969 " fill-opacity="1" fill-rule="nonzero"/><path fill="#fffcf9" d="M 449.582031 102.542969 C 449.683594 103.996094 449.785156 105.335938 450.296875 106.609375 C 451.273438 109.03125 453.070312 110.472656 455.601562 111.03125 C 455.945312 111.105469 456.296875 111.167969 456.644531 111.179688 C 457.132812 111.191406 457.464844 110.863281 457.476562 110.429688 C 457.484375 110.074219 457.300781 109.796875 456.957031 109.714844 C 456.679688 109.644531 456.390625 109.613281 456.109375 109.5625 C 453.253906 109.070312 451.617188 107.078125 451.265625 104.222656 C 451.167969 103.429688 451.042969 102.632812 451.179688 101.828125 C 451.207031 101.679688 451.171875 101.507812 451.125 101.359375 C 451.023438 101.015625 450.746094 100.828125 450.40625 100.835938 C 450.066406 100.847656 449.800781 101.042969 449.730469 101.410156 C 449.652344 101.816406 449.621094 102.234375 449.582031 102.542969 Z M 449.582031 102.542969 " fill-opacity="1" fill-rule="nonzero"/><path fill="#fffcf9" d="M 378.789062 253.882812 C 378.769531 254.511719 379.363281 255.128906 380.105469 255.144531 C 380.800781 255.160156 381.46875 254.472656 381.46875 253.785156 C 381.46875 253.058594 380.722656 252.355469 380.011719 252.433594 C 379.34375 252.507812 378.710938 253.039062 378.789062 253.882812 Z M 378.789062 253.882812 " fill-opacity="1" fill-rule="nonzero"/><path fill="#fffcf9" d="M 381.527344 248.285156 C 380.890625 248.285156 380.371094 248.792969 380.359375 249.425781 C 380.347656 250.054688 380.855469 250.589844 381.480469 250.613281 C 382.15625 250.636719 382.710938 250.089844 382.699219 249.421875 C 382.683594 248.792969 382.164062 248.285156 381.527344 248.289062 Z M 381.527344 248.285156 " fill-opacity="1" fill-rule="nonzero"/><g clip-path="url(#2ceaf225ed)"><path fill="#77e9ca" d="M 641.011719 276.847656 C 626.042969 276.847656 611.070312 276.847656 596.097656 276.847656 C 595.597656 276.847656 595.429688 276.816406 595.371094 276.976562 C 595.332031 277.082031 595.34375 277.273438 595.34375 277.617188 C 595.34375 285.933594 595.34375 294.253906 595.34375 302.574219 C 595.34375 303.363281 595.414062 303.304688 594.609375 303.304688 C 573.222656 303.304688 551.835938 303.304688 530.449219 303.304688 L 530.339844 303.304688 C 529.90625 303.304688 529.6875 303.085938 529.6875 302.652344 C 529.6875 294.296875 529.6875 285.945312 529.6875 277.589844 C 529.6875 277.511719 529.6875 277.441406 529.6875 277.378906 C 529.6875 277.3125 529.6875 277.253906 529.6875 277.203125 C 529.679688 276.808594 529.601562 276.847656 528.960938 276.847656 C 515.40625 276.847656 501.851562 276.847656 488.296875 276.847656 C 488.292969 276.902344 488.289062 276.957031 488.285156 277.011719 C 488.277344 277.171875 488.265625 277.335938 488.265625 277.5 C 488.265625 302.777344 488.265625 328.054688 488.265625 353.332031 C 488.265625 353.550781 488.289062 353.765625 488.300781 353.984375 C 490.589844 353.984375 492.882812 353.984375 495.171875 353.984375 C 497.460938 353.984375 499.75 353.984375 502.039062 353.984375 C 502.203125 353.984375 502.367188 353.992188 502.527344 353.996094 C 502.5625 353.976562 502.601562 353.964844 502.636719 353.957031 C 502.660156 353.949219 502.683594 353.945312 502.707031 353.941406 C 502.71875 353.941406 502.734375 353.941406 502.746094 353.9375 C 502.828125 353.933594 502.914062 353.941406 503 353.941406 C 503.019531 353.945312 503.042969 353.945312 503.0625 353.945312 C 504.65625 353.941406 506.25 353.941406 507.847656 353.941406 C 509.441406 353.941406 511.035156 353.941406 512.628906 353.945312 C 512.78125 353.945312 512.933594 353.933594 513.082031 353.957031 C 513.113281 353.960938 513.144531 353.96875 513.175781 353.980469 C 513.191406 353.984375 513.207031 353.988281 513.222656 353.996094 L 513.226562 353.996094 C 513.460938 353.992188 513.695312 353.984375 513.929688 353.984375 L 612.082031 353.984375 C 612.316406 353.984375 612.554688 353.992188 612.789062 353.996094 C 612.820312 353.984375 612.851562 353.972656 612.886719 353.964844 C 612.933594 353.957031 612.984375 353.949219 613.035156 353.945312 C 613.113281 353.941406 613.191406 353.941406 613.273438 353.941406 C 616.535156 353.941406 619.796875 353.941406 623.058594 353.945312 C 623.160156 353.945312 623.265625 353.929688 623.363281 353.953125 C 623.378906 353.957031 623.398438 353.960938 623.414062 353.964844 C 623.4375 353.972656 623.460938 353.984375 623.484375 353.996094 C 623.664062 353.992188 623.84375 353.984375 624.027344 353.984375 C 629.796875 353.984375 635.570312 353.984375 641.339844 353.984375 C 641.484375 353.984375 641.628906 353.992188 641.777344 353.996094 L 641.777344 276.839844 C 641.523438 276.839844 641.269531 276.847656 641.011719 276.847656 Z M 545.714844 305.507812 C 545.714844 305.226562 545.714844 305.085938 545.789062 305.011719 C 545.800781 305 545.816406 304.988281 545.835938 304.980469 C 545.84375 304.976562 545.847656 304.972656 545.855469 304.972656 C 545.878906 304.964844 545.902344 304.957031 545.929688 304.953125 C 546.011719 304.941406 546.128906 304.941406 546.289062 304.941406 C 551.792969 304.941406 557.292969 304.941406 562.796875 304.941406 L 578.976562 304.941406 C 579.09375 304.941406 579.214844 304.9375 579.332031 304.941406 C 579.359375 304.941406 579.386719 304.941406 579.414062 304.941406 C 579.617188 304.949219 579.722656 304.953125 579.777344 305.011719 C 579.789062 305.023438 579.800781 305.042969 579.808594 305.0625 C 579.8125 305.074219 579.816406 305.082031 579.820312 305.097656 C 579.820312 305.101562 579.820312 305.109375 579.824219 305.117188 C 579.824219 305.128906 579.828125 305.144531 579.828125 305.160156 C 579.832031 305.179688 579.832031 305.195312 579.832031 305.214844 C 579.835938 305.261719 579.835938 305.320312 579.835938 305.386719 C 579.835938 305.710938 579.835938 306.039062 579.839844 306.363281 C 579.839844 307.34375 579.839844 308.324219 579.835938 309.304688 C 579.835938 309.527344 579.832031 309.636719 579.773438 309.695312 C 579.714844 309.753906 579.597656 309.753906 579.371094 309.761719 C 579.339844 309.761719 579.308594 309.761719 579.28125 309.761719 C 579.21875 309.761719 579.160156 309.761719 579.097656 309.761719 C 568.21875 309.761719 557.34375 309.761719 546.464844 309.761719 C 546.238281 309.761719 546.082031 309.765625 545.972656 309.757812 C 545.957031 309.757812 545.941406 309.753906 545.929688 309.753906 C 545.855469 309.746094 545.808594 309.726562 545.777344 309.691406 C 545.765625 309.679688 545.753906 309.660156 545.746094 309.640625 C 545.742188 309.636719 545.738281 309.628906 545.738281 309.621094 C 545.734375 309.609375 545.730469 309.59375 545.726562 309.582031 C 545.707031 309.46875 545.714844 309.285156 545.714844 308.992188 C 545.710938 307.828125 545.710938 306.667969 545.714844 305.507812 Z M 594.625 326.828125 C 594.605469 326.835938 594.585938 326.839844 594.5625 326.84375 C 594.527344 326.847656 594.488281 326.847656 594.449219 326.847656 C 594.417969 326.84375 594.386719 326.84375 594.355469 326.84375 C 594.222656 326.839844 594.089844 326.847656 593.957031 326.847656 L 563.273438 326.847656 C 558.152344 326.847656 553.027344 326.847656 547.90625 326.84375 C 542.78125 326.847656 537.660156 326.84375 532.535156 326.84375 C 532.210938 326.84375 532.023438 326.855469 531.917969 326.820312 C 531.902344 326.816406 531.886719 326.808594 531.875 326.800781 C 531.875 326.800781 531.871094 326.800781 531.871094 326.796875 C 531.863281 326.792969 531.855469 326.785156 531.847656 326.78125 C 531.84375 326.773438 531.839844 326.769531 531.835938 326.765625 C 531.828125 326.753906 531.820312 326.742188 531.8125 326.726562 C 531.769531 326.621094 531.78125 326.429688 531.78125 326.078125 C 531.78125 322.371094 531.78125 318.667969 531.78125 314.964844 C 531.78125 314.835938 531.789062 314.710938 531.78125 314.582031 C 531.777344 314.511719 531.78125 314.449219 531.800781 314.398438 C 531.8125 314.363281 531.828125 314.328125 531.855469 314.304688 C 531.863281 314.296875 531.867188 314.292969 531.875 314.285156 C 531.933594 314.238281 532.019531 314.21875 532.132812 314.226562 C 532.21875 314.234375 532.300781 314.230469 532.386719 314.230469 C 532.386719 314.230469 532.390625 314.230469 532.390625 314.230469 C 532.433594 314.230469 532.472656 314.230469 532.515625 314.230469 C 553.023438 314.230469 573.535156 314.230469 594.046875 314.230469 C 594.335938 314.230469 594.515625 314.21875 594.628906 314.242188 C 594.632812 314.246094 594.640625 314.246094 594.648438 314.25 C 594.664062 314.253906 594.683594 314.261719 594.695312 314.269531 C 594.703125 314.269531 594.707031 314.273438 594.710938 314.277344 C 594.714844 314.28125 594.71875 314.28125 594.722656 314.285156 C 594.746094 314.304688 594.757812 314.324219 594.769531 314.355469 C 594.773438 314.363281 594.777344 314.371094 594.777344 314.382812 C 594.78125 314.386719 594.78125 314.390625 594.78125 314.394531 C 594.785156 314.398438 594.785156 314.402344 594.785156 314.410156 C 594.789062 314.421875 594.789062 314.4375 594.792969 314.453125 C 594.792969 314.457031 594.792969 314.460938 594.792969 314.46875 C 594.804688 314.582031 594.800781 314.75 594.800781 314.996094 C 594.800781 318.699219 594.800781 322.40625 594.800781 326.109375 C 594.800781 326.214844 594.792969 326.320312 594.796875 326.425781 C 594.796875 326.449219 594.796875 326.46875 594.800781 326.492188 C 594.804688 326.53125 594.800781 326.570312 594.796875 326.605469 C 594.785156 326.722656 594.726562 326.796875 594.625 326.828125 Z M 594.625 326.828125 " fill-opacity="1" fill-rule="nonzero"/></g><g clip-path="url(#a74701657e)"><path fill="#ffffff" d="M 595.371094 247.632812 L 529.6875 247.632812 L 529.6875 277.203125 C 529.6875 277.253906 529.6875 277.3125 529.6875 277.378906 C 529.6875 277.441406 529.6875 277.511719 529.6875 277.589844 C 529.6875 285.945312 529.6875 294.296875 529.6875 302.652344 C 529.6875 303.085938 529.90625 303.304688 530.339844 303.304688 L 530.449219 303.304688 C 551.835938 303.304688 573.222656 303.304688 594.609375 303.304688 C 595.414062 303.304688 595.34375 303.363281 595.34375 302.574219 C 595.34375 294.253906 595.34375 285.933594 595.34375 277.617188 C 595.34375 277.273438 595.332031 277.082031 595.371094 276.976562 Z M 587.5625 296.09375 C 587.554688 296.101562 587.542969 296.109375 587.527344 296.117188 C 587.464844 296.148438 587.355469 296.144531 587.164062 296.140625 C 587.101562 296.140625 587.03125 296.136719 586.949219 296.136719 C 570.054688 296.140625 553.15625 296.140625 536.261719 296.136719 C 535.882812 296.136719 535.71875 296.15625 535.648438 296.082031 C 535.640625 296.074219 535.632812 296.066406 535.628906 296.054688 C 535.625 296.042969 535.617188 296.03125 535.613281 296.019531 C 535.617188 296.019531 535.613281 296.019531 535.613281 296.019531 C 535.59375 295.945312 535.601562 295.824219 535.605469 295.636719 C 535.605469 295.585938 535.605469 295.527344 535.605469 295.464844 C 535.605469 281.644531 535.605469 267.824219 535.605469 254.007812 C 535.605469 253.609375 535.582031 253.433594 535.65625 253.359375 C 535.660156 253.355469 535.664062 253.351562 535.671875 253.34375 C 535.753906 253.289062 535.929688 253.3125 536.296875 253.3125 C 544.726562 253.308594 553.15625 253.308594 561.585938 253.308594 C 567.90625 253.308594 574.230469 253.308594 580.550781 253.308594 C 582.660156 253.308594 584.765625 253.3125 586.875 253.3125 C 587.367188 253.3125 587.535156 253.265625 587.585938 253.402344 C 587.625 253.496094 587.609375 253.675781 587.609375 254.015625 C 587.609375 267.835938 587.609375 281.652344 587.609375 295.472656 C 587.609375 295.859375 587.632812 296.023438 587.5625 296.09375 Z M 587.5625 296.09375 " fill-opacity="1" fill-rule="nonzero"/></g><g clip-path="url(#b5b382e1a6)"><path fill="#242424" d="M 502.550781 393.011719 C 502.546875 392.792969 502.535156 392.578125 502.535156 392.359375 C 502.535156 379.789062 502.535156 367.21875 502.535156 354.648438 C 502.535156 354.429688 502.53125 354.214844 502.527344 353.996094 C 502.699219 353.90625 502.882812 353.945312 503.0625 353.945312 C 506.25 353.941406 509.441406 353.941406 512.628906 353.941406 C 512.828125 353.941406 513.027344 353.921875 513.222656 353.992188 C 513.21875 360.414062 513.21875 366.835938 513.21875 373.257812 C 513.21875 379.644531 513.21875 386.03125 513.21875 392.414062 C 513.21875 392.613281 513.230469 392.8125 513.234375 393.011719 Z M 502.550781 393.011719 " fill-opacity="1" fill-rule="nonzero"/></g><g clip-path="url(#1bbcd09bde)"><path fill="#242424" d="M 623.484375 353.996094 C 623.480469 359.003906 623.480469 364.007812 623.476562 369.015625 C 623.476562 376.796875 623.476562 384.578125 623.476562 392.359375 C 623.476562 392.578125 623.464844 392.796875 623.460938 393.011719 L 612.773438 393.011719 C 612.78125 392.867188 612.792969 392.722656 612.792969 392.578125 C 612.792969 379.789062 612.792969 367 612.792969 354.210938 C 612.792969 354.140625 612.789062 354.066406 612.789062 353.996094 C 612.945312 353.9375 613.109375 353.941406 613.273438 353.941406 C 616.535156 353.941406 619.792969 353.941406 623.054688 353.945312 C 623.199219 353.945312 623.347656 353.917969 623.480469 353.996094 Z M 623.484375 353.996094 " fill-opacity="1" fill-rule="nonzero"/></g><g clip-path="url(#7f4c9953ff)"><path fill="#feffff" d="M 488.300781 353.984375 C 488.253906 353.988281 488.207031 353.992188 488.160156 353.996094 L 488.160156 276.839844 C 488.207031 276.839844 488.25 276.84375 488.296875 276.847656 C 488.292969 276.902344 488.289062 276.957031 488.285156 277.011719 C 488.277344 277.171875 488.265625 277.335938 488.265625 277.5 C 488.265625 302.777344 488.265625 328.054688 488.265625 353.332031 C 488.265625 353.550781 488.289062 353.765625 488.300781 353.984375 Z M 488.300781 353.984375 " fill-opacity="1" fill-rule="nonzero"/></g><path fill="#feffff" d="M 563.273438 326.84375 C 553.027344 326.84375 542.78125 326.84375 532.535156 326.84375 C 531.703125 326.84375 531.785156 326.921875 531.78125 326.078125 C 531.78125 322.375 531.78125 318.667969 531.78125 314.964844 C 531.78125 314.835938 531.789062 314.710938 531.78125 314.582031 C 531.765625 314.328125 531.875 314.210938 532.132812 314.226562 C 532.257812 314.234375 532.386719 314.226562 532.515625 314.226562 C 553.023438 314.226562 573.535156 314.226562 594.042969 314.226562 C 594.875 314.226562 594.796875 314.148438 594.796875 314.996094 C 594.800781 318.699219 594.800781 322.402344 594.796875 326.109375 C 594.796875 326.234375 594.789062 326.363281 594.796875 326.488281 C 594.816406 326.746094 594.703125 326.859375 594.445312 326.84375 C 594.285156 326.835938 594.121094 326.84375 593.957031 326.84375 C 583.730469 326.84375 573.5 326.84375 563.273438 326.84375 Z M 563.273438 326.84375 " fill-opacity="1" fill-rule="nonzero"/><path fill="#ffffff" d="M 562.796875 304.941406 C 568.191406 304.941406 573.582031 304.941406 578.976562 304.941406 C 579.121094 304.941406 579.265625 304.9375 579.414062 304.941406 C 579.820312 304.957031 579.832031 304.960938 579.835938 305.382812 C 579.839844 306.691406 579.839844 308 579.835938 309.304688 C 579.832031 309.75 579.824219 309.75 579.371094 309.761719 C 579.277344 309.761719 579.1875 309.761719 579.097656 309.761719 C 568.21875 309.761719 557.339844 309.761719 546.464844 309.757812 C 545.632812 309.757812 545.714844 309.839844 545.714844 308.992188 C 545.710938 307.828125 545.710938 306.667969 545.714844 305.507812 C 545.714844 304.945312 545.71875 304.941406 546.289062 304.941406 C 551.789062 304.941406 557.292969 304.941406 562.796875 304.941406 Z M 562.796875 304.941406 " fill-opacity="1" fill-rule="nonzero"/><path fill="#009a76" d="M 561.585938 253.308594 C 570.015625 253.308594 578.445312 253.308594 586.875 253.3125 C 587.707031 253.3125 587.609375 253.179688 587.609375 254.015625 C 587.609375 267.835938 587.609375 281.652344 587.609375 295.472656 C 587.609375 296.242188 587.710938 296.136719 586.949219 296.136719 C 570.054688 296.140625 553.160156 296.140625 536.261719 296.136719 C 535.5 296.136719 535.605469 296.214844 535.605469 295.464844 C 535.605469 281.644531 535.605469 267.824219 535.605469 254.003906 C 535.605469 253.207031 535.507812 253.308594 536.296875 253.308594 C 544.726562 253.308594 553.15625 253.308594 561.585938 253.308594 Z M 561.585938 253.308594 " fill-opacity="1" fill-rule="nonzero"/></svg>