<svg width="116" height="48" viewBox="0 0 116 48" fill="none" xmlns="http://www.w3.org/2000/svg">
<g clip-path="url(#clip0_5279_5999)">
<path d="M76.9124 26.1599C74.6689 26.1599 72.9343 26.5676 71.6982 26.9548C71.6982 28.7077 71.6982 36.1776 71.6982 37.2681C71.6982 39.3878 72.9447 40.9878 77.5668 40.9878C82.002 40.9878 85.0869 37.4617 85.0869 33.5789C85.0973 29.6554 82.0955 26.1599 76.9124 26.1599ZM77.5772 37.0846C75.801 37.1254 75.5829 36.8095 75.5829 35.8515C75.5829 35.077 75.5933 30.2873 75.5933 30.2873C76.0296 30.165 76.5074 30.0121 77.1513 30.0121C79.7688 30.0121 81.1503 31.7446 81.1503 33.5076C81.1399 35.5152 79.5299 37.0337 77.5772 37.0846Z" fill="#00A786"/>
<path d="M110.503 32.0299C108.841 31.6223 107.262 31.449 107.169 30.756C107.096 30.2771 107.677 29.8694 108.882 29.8694C112.746 29.8694 115.104 31.449 115.104 31.449C115.104 31.449 115.104 29.7064 115.104 29.1255C115.104 27.7089 113.525 26.1701 109.506 26.1701C105.008 26.1701 103.159 28.3612 103.159 30.8172C103.159 33.5688 105.237 34.4961 107.927 35.0566C110.98 35.6987 111.531 35.9636 111.531 36.4528C111.531 37.1254 110.513 37.2885 109.817 37.2885C105.974 37.2885 103.595 35.7089 103.595 35.7089C103.595 35.7089 103.585 37.4515 103.585 38.0324C103.585 39.449 105.05 40.9878 108.986 40.9878C112.809 40.9878 114.73 39.398 115.281 37.6044C116.714 32.9879 111.604 32.3051 110.503 32.0299Z" fill="#00A786"/>
<path d="M62.3497 26.1497C58.1742 26.1497 54.7881 29.472 54.7881 33.5688C54.7881 37.6655 58.1742 40.9878 62.3497 40.9878C66.5252 40.9878 69.9113 37.6655 69.9113 33.5688C69.9113 29.472 66.5252 26.1497 62.3497 26.1497ZM62.3497 37.1152C60.3554 37.1152 58.7351 35.5254 58.7351 33.5688C58.7351 31.6121 60.3554 30.0223 62.3497 30.0223C64.344 30.0223 65.9643 31.6121 65.9643 33.5688C65.9643 35.5254 64.344 37.1152 62.3497 37.1152Z" fill="#00A786"/>
<path d="M94.2687 26.1497C90.0931 26.1497 86.707 29.472 86.707 33.5688C86.707 37.6655 90.0931 40.9878 94.2687 40.9878C98.4442 40.9878 101.83 37.6655 101.83 33.5688C101.83 29.472 98.4442 26.1497 94.2687 26.1497ZM94.2687 37.1152C92.2744 37.1152 90.654 35.5254 90.654 33.5688C90.654 31.6121 92.2744 30.0223 94.2687 30.0223C96.2629 30.0223 97.8833 31.6121 97.8833 33.5688C97.8833 35.5254 96.2629 37.1152 94.2687 37.1152Z" fill="#00A786"/>
<path d="M54.8088 25.365C54.8088 25.365 45.5438 26.4758 42.4589 26.8529C41.7318 26.9446 41.1709 27.5561 41.1709 28.2898C41.1709 28.7077 41.1709 29.9815 41.1709 29.9815H45.9592V38.8579C45.9592 40.3356 46.9148 40.8553 48.1405 40.8553H49.927V29.9815C49.927 29.9815 51.9213 29.9815 52.5964 29.9815C53.8221 29.9815 54.8088 29.0134 54.8088 27.8109C54.8088 27.2504 54.8088 25.365 54.8088 25.365Z" fill="#00A786"/>
<path d="M41.1807 19.1689V8.13205H48.3995V9.83394H43.2269V12.5651H47.8386V14.2364H43.2269V17.467H48.7942V19.1689H41.1807Z" fill="#FFB912"/>
<path d="M50.1862 11.1078C50.5601 11.0059 51.0587 10.904 51.6611 10.8021C52.2635 10.7104 52.9387 10.6594 53.6761 10.6594C54.3721 10.6594 54.9433 10.7511 55.4107 10.9346C55.8782 11.118 56.2417 11.383 56.5221 11.7193C56.8026 12.0556 56.9896 12.453 57.1038 12.932C57.2181 13.4008 57.27 13.9205 57.27 14.481V19.1587H55.3069V14.7766C55.3069 14.3282 55.2757 13.9511 55.2134 13.6352C55.1511 13.3193 55.0576 13.0645 54.9226 12.8709C54.7875 12.6772 54.6006 12.5346 54.3721 12.4428C54.1436 12.3511 53.8527 12.3104 53.5203 12.3104C53.2711 12.3104 53.0114 12.3307 52.7413 12.3613C52.4713 12.3919 52.2739 12.4225 52.1389 12.4428V19.1587H50.1758V11.1078H50.1862Z" fill="#FFB912"/>
<path d="M58.7969 15.0415C58.7969 14.3078 58.9111 13.6658 59.1293 13.1154C59.3474 12.5651 59.6486 12.1065 60.0121 11.7397C60.3757 11.3728 60.8015 11.0976 61.2793 10.9142C61.7571 10.7308 62.2453 10.639 62.7439 10.639C63.9072 10.639 64.8212 10.9957 65.4756 11.7091C66.13 12.4225 66.4624 13.4823 66.4624 14.8887C66.4624 14.9906 66.4624 15.1129 66.452 15.2454C66.4416 15.3778 66.4416 15.5001 66.4312 15.602H60.8327C60.8846 16.2747 61.1235 16.7842 61.5598 17.1511C61.9856 17.518 62.6088 17.7014 63.419 17.7014C63.8968 17.7014 64.3331 17.6606 64.7278 17.5791C65.1225 17.4976 65.4341 17.4058 65.6626 17.3039L65.9222 18.8835C65.8184 18.9345 65.6626 18.9956 65.4756 19.0466C65.2887 19.1077 65.0705 19.1587 64.8316 19.2097C64.5927 19.2606 64.3227 19.3014 64.0422 19.3319C63.7618 19.3625 63.471 19.3829 63.1801 19.3829C62.4323 19.3829 61.7883 19.2708 61.2378 19.0568C60.6873 18.8428 60.2303 18.537 59.8771 18.1498C59.524 17.7625 59.2539 17.3039 59.0773 16.7842C58.8904 16.2441 58.7969 15.6734 58.7969 15.0415ZM64.4992 14.1855C64.4992 13.9205 64.4577 13.6658 64.385 13.4314C64.3123 13.197 64.198 12.983 64.0526 12.8097C63.9072 12.6365 63.7306 12.4938 63.5125 12.3919C63.3048 12.29 63.0451 12.239 62.7543 12.239C62.453 12.239 62.183 12.29 61.9545 12.4021C61.726 12.5142 61.539 12.6569 61.3832 12.8403C61.2274 13.0237 61.1028 13.2275 61.0197 13.4619C60.9366 13.6963 60.8742 13.9307 60.8431 14.1753H64.4992V14.1855Z" fill="#FFB912"/>
<path d="M72.9646 12.5753C72.7985 12.5244 72.5803 12.4632 72.2895 12.4123C71.9987 12.3511 71.6663 12.3206 71.2924 12.3206C71.0742 12.3206 70.8457 12.3409 70.6068 12.3817C70.3679 12.4225 70.1914 12.4632 70.0979 12.4938V19.1689H68.1348V11.2403C68.5087 11.0976 68.9865 10.9753 69.5578 10.8531C70.129 10.7308 70.7523 10.6696 71.4482 10.6696C71.5728 10.6696 71.7286 10.6798 71.9052 10.69C72.0818 10.7104 72.248 10.7308 72.4245 10.7511C72.6011 10.7817 72.7673 10.8123 72.9231 10.8429C73.0893 10.8836 73.2139 10.9142 73.3074 10.9448L72.9646 12.5753Z" fill="#FFB912"/>
<path d="M81.2741 18.323C81.2741 19.6479 80.9313 20.616 80.2458 21.2377C79.5602 21.8491 78.5112 22.165 77.0882 22.165C76.5688 22.165 76.0599 22.1243 75.5717 22.0428C75.0835 21.9612 74.6369 21.8491 74.2318 21.7064L74.5849 20.0657C74.9173 20.2084 75.3016 20.3103 75.7275 20.402C76.1534 20.4835 76.6208 20.5243 77.1193 20.5243C77.9087 20.5243 78.4696 20.3612 78.802 20.0453C79.1344 19.7294 79.3006 19.2504 79.3006 18.6288V18.3129C79.1032 18.4046 78.8436 18.5065 78.5319 18.5982C78.21 18.6899 77.8464 18.7409 77.4413 18.7409C76.9012 18.7409 76.4026 18.6593 75.956 18.4861C75.5094 18.3129 75.1251 18.0683 74.8031 17.7422C74.4811 17.416 74.2318 16.9982 74.0552 16.509C73.8786 16.0199 73.7852 15.4492 73.7852 14.797C73.7852 14.1957 73.8786 13.6352 74.0656 13.1256C74.2526 12.6161 74.533 12.1779 74.8965 11.8212C75.2601 11.4645 75.6963 11.1792 76.2157 10.9753C76.735 10.7715 77.3271 10.6696 77.9814 10.6696C78.615 10.6696 79.2279 10.7206 79.7991 10.8123C80.3704 10.904 80.8586 11.0059 81.2637 11.118V18.323H81.2741ZM75.8106 14.7868C75.8106 15.6021 75.9872 16.2033 76.3507 16.5804C76.7142 16.9575 77.1817 17.1409 77.7529 17.1409C78.0645 17.1409 78.3658 17.1001 78.6358 17.0186C78.9163 16.9371 79.1344 16.8352 79.311 16.7129V12.4021C79.1655 12.3715 78.9994 12.3409 78.7916 12.3104C78.5839 12.2798 78.3242 12.2696 78.0126 12.2696C77.2959 12.2696 76.7558 12.504 76.3715 12.9626C75.9976 13.4314 75.8106 14.0326 75.8106 14.7868Z" fill="#FFB912"/>
<path d="M85.564 8.40722C85.564 8.7639 85.4498 9.05944 85.2109 9.26326C84.972 9.47727 84.6916 9.57918 84.3696 9.57918C84.0372 9.57918 83.7463 9.47727 83.5074 9.26326C83.2685 9.04925 83.1543 8.7639 83.1543 8.40722C83.1543 8.04034 83.2685 7.74481 83.5074 7.53079C83.7463 7.31678 84.0372 7.21487 84.3696 7.21487C84.6916 7.21487 84.972 7.31678 85.2109 7.53079C85.4394 7.74481 85.564 8.03015 85.564 8.40722ZM85.3459 19.1689H83.3828V10.8429H85.3459V19.1689Z" fill="#FFB912"/>
<path d="M90.2688 10.639C90.9128 10.639 91.4633 10.7206 91.91 10.8734C92.3566 11.0365 92.7097 11.2505 92.9694 11.546C93.2395 11.8314 93.4264 12.1779 93.5407 12.5855C93.6549 12.9932 93.7069 13.4416 93.7069 13.9307V18.9753C93.4057 19.0364 92.9486 19.1179 92.3358 19.2097C91.723 19.3014 91.0375 19.3421 90.2688 19.3421C89.7599 19.3421 89.2925 19.2912 88.877 19.1995C88.4511 19.1077 88.098 18.9549 87.7968 18.7409C87.4956 18.5269 87.267 18.2517 87.1008 17.9154C86.9347 17.5791 86.8516 17.1613 86.8516 16.6619C86.8516 16.1829 86.945 15.7855 87.132 15.4492C87.319 15.1231 87.5786 14.8479 87.9006 14.6441C88.2226 14.4403 88.5966 14.2874 89.0328 14.1957C89.4587 14.104 89.9053 14.0632 90.3727 14.0632C90.5908 14.0632 90.8193 14.0734 91.0582 14.104C91.2971 14.1345 91.5464 14.1753 91.8165 14.2365V13.9205C91.8165 13.6963 91.7853 13.4823 91.7334 13.2887C91.6814 13.0849 91.588 12.9116 91.4529 12.7588C91.3179 12.6059 91.1413 12.4836 90.9128 12.4021C90.6947 12.3206 90.4143 12.2798 90.0819 12.2798C89.6249 12.2798 89.2094 12.3104 88.8355 12.3715C88.4615 12.4327 88.1499 12.5142 87.911 12.5957L87.6721 11.0365C87.9214 10.955 88.2849 10.8632 88.7627 10.7817C89.2198 10.6798 89.7287 10.639 90.2688 10.639ZM90.4246 17.8135C91.0271 17.8135 91.4945 17.7829 91.8061 17.7218V15.5919C91.7022 15.5613 91.536 15.5307 91.3387 15.5001C91.1309 15.4696 90.9024 15.4492 90.6532 15.4492C90.435 15.4492 90.2169 15.4696 89.9988 15.5001C89.7807 15.5307 89.5729 15.5919 89.3963 15.6734C89.2198 15.7549 89.0743 15.8772 88.9705 16.0301C88.8666 16.1829 88.8043 16.3766 88.8043 16.611C88.8043 17.0695 88.9497 17.3855 89.2405 17.5587C89.5314 17.732 89.9261 17.8135 90.4246 17.8135Z" fill="#FFB912"/>
<path d="M106.254 18.9141C105.87 19.0262 105.372 19.1383 104.79 19.23C104.198 19.3217 103.585 19.3727 102.931 19.3727C102.256 19.3727 101.663 19.2708 101.134 19.067C100.604 18.8632 100.147 18.5778 99.7834 18.2007C99.4095 17.8237 99.1187 17.3651 98.9213 16.8351C98.724 16.295 98.6201 15.6938 98.6201 15.0313C98.6201 14.3689 98.7032 13.7779 98.8694 13.2377C99.0356 12.6976 99.2849 12.239 99.6069 11.8619C99.9289 11.4849 100.324 11.1893 100.791 10.9753C101.258 10.7715 101.788 10.6696 102.401 10.6696C102.816 10.6696 103.17 10.7206 103.492 10.8123C103.803 10.904 104.073 11.0161 104.302 11.1282V7.13333L106.265 6.81741V18.9141H106.254ZM100.614 14.9804C100.614 15.8262 100.822 16.4988 101.227 16.9778C101.643 17.4568 102.204 17.7014 102.931 17.7014C103.242 17.7014 103.512 17.6912 103.73 17.6606C103.949 17.63 104.136 17.6097 104.271 17.5689V12.7893C104.094 12.6772 103.865 12.5651 103.585 12.4632C103.294 12.3613 102.993 12.3104 102.671 12.3104C101.954 12.3104 101.435 12.5447 101.103 13.0237C100.781 13.5129 100.614 14.1651 100.614 14.9804Z" fill="#FFB912"/>
<path d="M107.875 15.0415C107.875 14.3078 107.989 13.6658 108.207 13.1154C108.426 12.5651 108.727 12.1065 109.09 11.7397C109.454 11.3728 109.88 11.0976 110.357 10.9142C110.835 10.7308 111.323 10.639 111.822 10.639C112.985 10.639 113.899 10.9957 114.554 11.7091C115.208 12.4225 115.54 13.4823 115.54 14.8887C115.54 14.9906 115.541 15.1129 115.53 15.2454C115.52 15.3778 115.52 15.5001 115.509 15.602H109.911C109.963 16.2747 110.202 16.7842 110.638 17.1511C111.064 17.518 111.687 17.7014 112.497 17.7014C112.975 17.7014 113.411 17.6606 113.806 17.5791C114.201 17.4976 114.512 17.4058 114.741 17.3039L115 18.8835C114.897 18.9345 114.741 18.9956 114.554 19.0466C114.367 19.1077 114.149 19.1587 113.91 19.2097C113.671 19.2606 113.401 19.3014 113.12 19.3319C112.84 19.3625 112.549 19.3829 112.258 19.3829C111.51 19.3829 110.866 19.2708 110.316 19.0568C109.765 18.8428 109.308 18.537 108.955 18.1498C108.602 17.7625 108.332 17.3039 108.155 16.7842C107.958 16.2441 107.875 15.6734 107.875 15.0415ZM113.567 14.1855C113.567 13.9205 113.525 13.6658 113.453 13.4314C113.38 13.197 113.266 12.983 113.12 12.8097C112.975 12.6365 112.798 12.4938 112.58 12.3919C112.373 12.29 112.113 12.239 111.822 12.239C111.521 12.239 111.251 12.29 111.022 12.4021C110.794 12.5142 110.607 12.6569 110.451 12.8403C110.295 13.0237 110.17 13.2275 110.087 13.4619C110.004 13.6963 109.942 13.9307 109.911 14.1753H113.567V14.1855Z" fill="#FFB912"/>
<path d="M25.5771 35.1409L10.6719 40.5799L11.4648 42.6718L26.37 37.2328L25.5771 35.1409Z" fill="#FFB912"/>
<path d="M12.9187 44.4833C13.8639 46.4196 15.8893 47.6731 18.0705 47.6731C21.2178 47.6731 23.7833 45.1559 23.7833 42.068V39.2248L12.3682 43.3827L12.9187 44.4833ZM21.4878 42.4349C21.3009 44.1164 19.8363 45.4311 18.0705 45.4311C17.2084 45.4311 16.3671 45.105 15.7335 44.5343L21.4878 42.4349Z" fill="#FFB912"/>
<path d="M28.0517 15.9587C28.0517 15.3677 27.9997 14.7664 27.8959 14.1855L27.7504 13.36L26.9091 13.2683C26.5663 13.2276 26.2132 13.2072 25.86 13.2072C22.6505 13.2072 19.6591 14.9091 18.0595 17.6403C17.6025 18.425 17.2701 19.2606 17.0728 20.1472V20.1574C16.4911 19.5154 15.816 18.9753 15.0577 18.5371C12.97 17.3447 10.3629 17.1511 8.25433 18.0377L7.26758 18.4555L7.63112 19.4441C9.09566 23.4593 12.97 26.1905 17.3117 26.272C17.4259 27.0567 17.4882 27.9128 17.4882 28.8198V30.8376H19.763V28.8198C19.763 27.8516 19.7006 26.9344 19.5864 26.0784C24.4994 25.1306 28.0517 20.9116 28.0517 15.9587ZM10.2694 19.7804C11.4846 19.5867 12.7934 19.8313 13.9048 20.4734C15.2031 21.2173 16.1587 22.4096 16.7508 24.0096C14.0502 23.7447 11.5573 22.1243 10.2694 19.7804ZM19.1086 23.8975C19.0982 23.8771 19.0982 23.8568 19.0878 23.8364C18.9528 22.5523 19.1397 21.36 19.2644 20.7791L19.2955 20.6262C19.441 19.974 19.6902 19.3422 20.033 18.7613C21.2171 16.7333 23.3983 15.4798 25.7562 15.4492C25.7666 15.6224 25.7769 15.7957 25.7769 15.9689C25.7769 19.8619 22.9829 23.1638 19.1086 23.8975Z" fill="#00A786"/>
<path d="M30.6696 5.22763C27.325 1.94614 22.8691 0.132141 18.1327 0.132141C13.3963 0.132141 8.94033 1.94614 5.59577 5.22763C2.2512 8.50913 0.402344 12.8811 0.402344 17.5281C0.402344 21.044 1.47219 24.4376 3.48724 27.3319C4.88946 29.3497 6.65522 31.0108 8.75337 32.2949L6.38517 32.9879L7.03954 35.128L9.76089 34.3331L13.2405 33.3344L12.1291 29.7166L11.3812 27.2503L9.2 27.8924L9.95824 30.3994C5.45035 27.6478 2.67706 22.7765 2.67706 17.5281C2.67706 9.16135 9.61548 2.36397 18.1327 2.36397C26.6499 2.36397 33.5883 9.17154 33.5883 17.5281C33.5883 23.5816 29.7556 29.258 24.0428 31.6325L10.6749 36.5139L11.4643 38.6031L24.8841 33.7114L24.9049 33.7012C28.0729 32.3866 30.7943 30.1853 32.7678 27.3319C34.7932 24.4071 35.863 21.0135 35.863 17.5281C35.863 12.8811 34.0246 8.50913 30.6696 5.22763Z" fill="#FFB912"/>
</g>
<defs>
<clipPath id="clip0_5279_5999">
<rect width="115.138" height="47.5409" fill="white" transform="translate(0.402344 0.132141)"/>
</clipPath>
</defs>
</svg>
