<svg width="137" height="49" viewBox="0 0 137 49" fill="none" xmlns="http://www.w3.org/2000/svg">
<rect width="23.9172" height="23.0314" transform="translate(2.96875 5.05197)" fill="#E75B5B"/>
<rect width="22.1456" height="17.7165" transform="translate(17.126 28.0831)" fill="#E75B5B"/>
<rect width="22.1456" height="15.9448" transform="translate(8.26758 24.5398)" fill="#E75B5B"/>
<mask id="mask0_5279_5947" style="mask-type:luminance" maskUnits="userSpaceOnUse" x="0" y="0" width="137" height="49">
<path d="M136.782 0.985382H0.365234V48.8198H136.782V0.985382Z" fill="white"/>
</mask>
<g mask="url(#mask0_5279_5947)">
<path d="M56.4454 0.985383H57.7915C58.0727 0.985106 58.3511 1.04021 58.611 1.14754C58.8708 1.25487 59.1069 1.41232 59.3058 1.61088C59.5046 1.80944 59.6623 2.04522 59.7698 2.3047C59.8772 2.56418 59.9324 2.84229 59.9321 3.12309V13.9657C59.9327 14.8753 60.295 15.7475 60.9393 16.3906C61.5836 17.0337 62.4573 17.3949 63.3682 17.3949H67.305C67.6058 17.3949 67.9037 17.4541 68.1816 17.569C68.4596 17.6839 68.7121 17.8524 68.9248 18.0648C69.1375 18.2773 69.3063 18.5295 69.4213 18.807C69.5365 19.0845 69.5958 19.382 69.5958 19.6824V20.8895C69.5958 21.4962 69.3544 22.078 68.9248 22.507C68.4952 22.936 67.9126 23.177 67.305 23.177H61.9523C59.9251 23.177 57.9809 22.3733 56.5469 20.9424C55.1129 19.5116 54.3064 17.5706 54.3047 15.5463V3.12309C54.3044 2.84229 54.3596 2.56418 54.4671 2.3047C54.5746 2.04522 54.7323 1.80944 54.9311 1.61088C55.1299 1.41232 55.366 1.25487 55.6259 1.14754C55.8857 1.04021 56.1642 0.985106 56.4454 0.985383Z" fill="#11202A"/>
<path d="M70.7393 16.6731V9.35249C70.7393 8.81857 70.9516 8.3065 71.3297 7.92895C71.7077 7.5514 72.2205 7.33929 72.7552 7.33929H73.9491C74.2139 7.33929 74.476 7.39137 74.7206 7.49254C74.9653 7.59371 75.1874 7.74201 75.3747 7.92895C75.5619 8.1159 75.7103 8.33783 75.8117 8.58208C75.913 8.82633 75.9652 9.08812 75.9652 9.35249V16.2467C75.9652 17.323 76.5589 18.6103 78.2072 18.6103C79.8026 18.6103 80.4197 17.6184 80.4197 16.194V9.35249C80.4202 8.81837 80.6331 8.30631 81.0115 7.92882C81.3899 7.55133 81.9029 7.33929 82.4378 7.33929H83.6297C84.1643 7.33929 84.6771 7.5514 85.0551 7.92895C85.4332 8.3065 85.6456 8.81857 85.6456 9.35249V22.0521C85.6456 22.332 85.5343 22.6004 85.3362 22.7982C85.138 22.9961 84.8693 23.1072 84.589 23.1072H81.9391C81.6589 23.1072 81.3901 22.9961 81.192 22.7982C80.9938 22.6004 80.8825 22.332 80.8825 22.0521C80.052 22.9257 78.2959 23.5799 76.7386 23.5799C72.9349 23.5799 70.7393 20.8598 70.7393 16.6731Z" fill="#11202A"/>
<path d="M87.2676 15.2339C87.2676 10.3487 90.7478 6.87305 95.2026 6.87305C96.7475 6.87305 98.0275 7.36896 98.9744 8.22573V3.0218C98.9744 2.48207 99.1888 1.96442 99.5715 1.58258C99.9533 1.20074 100.471 0.985941 101.012 0.985382H102.176C102.717 0.985382 103.235 1.19993 103.618 1.58183C104.001 1.96374 104.215 2.4817 104.215 3.0218V22.0523C104.215 22.3321 104.104 22.6004 103.906 22.7983C103.707 22.9962 103.439 23.1074 103.159 23.1074H100.487C100.208 23.1074 99.9391 22.9962 99.7407 22.7983C99.5422 22.6004 99.4306 22.3321 99.4306 22.0523C98.4846 23.0272 96.937 23.5801 95.2044 23.5801C90.7478 23.5801 87.2676 20.1192 87.2676 15.2339ZM99.1622 15.2339C99.1622 12.9654 97.7068 11.6866 95.8298 11.6866C93.9536 11.6866 92.5044 12.9654 92.5044 15.2339C92.5044 17.5025 93.9456 18.7813 95.8236 18.7813C97.7024 18.7813 99.1622 17.5025 99.1622 15.2339Z" fill="#11202A"/>
<path d="M105.777 15.234C105.777 10.2917 109.401 6.87305 114.353 6.87305C119.304 6.87305 122.93 10.2917 122.93 15.234C122.93 20.1762 119.291 23.5801 114.355 23.5801C109.418 23.5801 105.777 20.1636 105.777 15.234ZM117.702 15.234C117.702 13.1976 116.223 11.7584 114.353 11.7584C112.482 11.7584 111.004 13.1976 111.004 15.234C111.004 17.2704 112.482 18.68 114.353 18.68C116.223 18.68 117.702 17.2556 117.702 15.234Z" fill="#11202A"/>
<path d="M124.724 18.5153L127.893 18.2494C128.046 18.2389 128.198 18.271 128.333 18.3422C128.467 18.4134 128.58 18.5209 128.656 18.6524C128.829 18.91 129.062 19.1216 129.335 19.2687C129.607 19.4158 129.912 19.4941 130.222 19.4965C131.036 19.4965 131.547 19.2202 131.547 18.7411C131.547 18.1735 131.196 17.9688 130.149 17.5488L127.6 16.5591C125.176 15.6263 124.193 14.1428 124.193 11.8616C124.193 8.86503 126.668 6.90247 130.571 6.90247C134.125 6.89403 136.027 8.52949 136.526 10.8402C136.544 10.9236 136.544 11.0098 136.526 11.0933C136.509 11.1767 136.474 11.2555 136.423 11.3241C136.372 11.3929 136.308 11.45 136.233 11.4917C136.159 11.5334 136.076 11.5589 135.991 11.5662L132.435 11.8638C132.313 11.8725 132.191 11.8445 132.086 11.7831C131.98 11.7217 131.895 11.6299 131.843 11.5197C131.717 11.2982 131.531 11.116 131.307 10.9937C131.084 10.8715 130.83 10.8139 130.576 10.8276C129.861 10.8276 129.438 11.0766 129.438 11.4606C129.438 11.8447 129.65 12.0557 130.385 12.3618L132.903 13.3494C135.452 14.3243 136.777 15.7783 136.777 18.3359C136.777 21.6238 134.419 23.542 130.227 23.542C126.751 23.542 124.733 22.0648 124.005 19.5556C123.972 19.4395 123.965 19.3174 123.985 19.1983C124.005 19.0791 124.05 18.9657 124.119 18.8663C124.188 18.7668 124.277 18.6838 124.382 18.6231C124.486 18.5624 124.603 18.5256 124.724 18.5153Z" fill="#11202A"/>
<path d="M54.3047 46.6772V27.8831C54.3047 27.6033 54.416 27.3349 54.6142 27.1371C54.8124 26.9392 55.0811 26.828 55.3613 26.828H58.0324C58.3126 26.828 58.5814 26.9392 58.7795 27.1371C58.9777 27.3349 59.089 27.6033 59.089 27.8831C60.0357 26.9082 61.7706 26.3552 63.3154 26.3552C67.7699 26.3552 71.2504 29.8161 71.2504 34.7014C71.2504 39.5867 67.7741 43.0623 63.3175 43.0623C61.7748 43.0623 60.4922 42.5685 59.5454 41.7244V46.6772C59.5454 47.2528 59.3166 47.8047 58.9093 48.2119C58.502 48.619 57.9494 48.8481 57.3731 48.8487H56.4792C55.9024 48.8487 55.3494 48.6198 54.9416 48.2126C54.5338 47.8054 54.3047 47.2531 54.3047 46.6772ZM66.0097 34.7014C66.0097 32.4286 64.5684 31.1625 62.7025 31.1625C60.8366 31.1625 59.368 32.4413 59.368 34.7099C59.368 36.9784 60.8239 38.2572 62.7025 38.2572C64.5811 38.2572 66.0097 36.9699 66.0097 34.7014Z" fill="#11202A"/>
<path d="M72.6895 40.5274V27.9523C72.6895 27.8036 72.7188 27.6563 72.7758 27.5189C72.8329 27.3816 72.9165 27.2568 73.0219 27.1518C73.1273 27.0467 73.2524 26.9634 73.3901 26.9067C73.5278 26.85 73.6753 26.8209 73.8242 26.8212H76.3452C76.4941 26.8209 76.6416 26.85 76.7793 26.9067C76.917 26.9634 77.0421 27.0467 77.1475 27.1518C77.2529 27.2568 77.3366 27.3816 77.3936 27.5189C77.4507 27.6563 77.48 27.8036 77.48 27.9523V27.9692C78.3105 27.0976 80.0433 26.4413 81.6155 26.4413H81.6282C81.9566 26.4413 82.2716 26.5716 82.5038 26.8036C82.736 27.0355 82.8665 27.35 82.8665 27.678V30.3391C82.8665 30.6704 82.7347 30.9881 82.5001 31.2224C82.2655 31.4567 81.9473 31.5883 81.6155 31.5883H80.7702C79.1262 31.5883 77.9322 32.9262 77.9322 34.6545V40.5253C77.9317 41.074 77.713 41.6 77.3243 41.9878C76.9356 42.3755 76.4087 42.5933 75.8592 42.5933H74.7625C74.2133 42.5933 73.6867 42.3759 73.2981 41.9885C72.9094 41.6012 72.6905 41.0758 72.6895 40.5274Z" fill="#11202A"/>
<path d="M83.5557 34.7628C83.5536 32.589 84.3964 30.4991 85.9064 28.9334C87.4164 27.3676 89.4756 26.4479 91.6512 26.3681C96.8076 26.1339 100.674 29.5736 100.717 34.6362C100.724 36.8163 99.8805 38.9136 98.3666 40.4843C96.8528 42.055 94.7861 42.9758 92.6043 43.052C87.4249 43.2714 83.5789 39.8148 83.5557 34.7628ZM95.4806 34.7164C95.4806 32.6799 94.0013 31.2408 92.1313 31.2408C90.2605 31.2408 88.7816 32.6799 88.7816 34.7164C88.7816 36.7528 90.2605 38.1625 92.1313 38.1625C94.0013 38.1625 95.4806 36.738 95.4806 34.7164Z" fill="#11202A"/>
<path d="M42.2972 1.00879H6.35612C4.76723 1.00879 3.24343 1.6391 2.11993 2.76105C0.996415 3.88302 0.365234 5.40472 0.365234 6.99142V22.8037C0.365234 29.7151 3.1146 36.3436 8.00849 41.2307C12.9024 46.1179 19.5399 48.8634 26.461 48.8634H42.2972C43.0838 48.8634 43.8628 48.7087 44.5895 48.408C45.3162 48.1073 45.9765 47.6666 46.5326 47.111C47.0887 46.5555 47.5299 45.8959 47.8307 45.1701C48.1315 44.4442 48.2862 43.6664 48.2859 42.8809V6.99142C48.2862 6.20586 48.1315 5.42796 47.8307 4.70212C47.5299 3.97629 47.0887 3.31675 46.5326 2.76119C45.9765 2.20562 45.3162 1.76491 44.5895 1.46423C43.8628 1.16355 43.0838 1.00879 42.2972 1.00879ZM36.7416 40.0615C36.7416 40.4146 36.6011 40.7534 36.3511 41.0031C36.101 41.2528 35.7618 41.3931 35.4082 41.3931H27.3908C22.4689 41.3931 17.7486 39.4406 14.2683 35.9651C10.788 32.4895 8.83277 27.7758 8.83277 22.8606V9.80863C8.83277 9.45603 8.97303 9.11788 9.2227 8.86855C9.47238 8.61922 9.81103 8.47916 10.1641 8.47916H18.4879C18.841 8.47916 19.1797 8.61922 19.4293 8.86855C19.679 9.11788 19.8192 9.45603 19.8192 9.80863V20.1891C19.8192 22.9052 20.8997 25.5101 22.823 27.4307C24.7462 29.3512 27.3547 30.4302 30.0745 30.4302H35.4082C35.5832 30.4299 35.7565 30.4641 35.9184 30.5308C36.0801 30.5975 36.2271 30.6954 36.3509 30.8189C36.4748 30.9424 36.5731 31.089 36.64 31.2505C36.7071 31.4118 36.7416 31.5849 36.7416 31.7597V40.0615ZM34.0853 21.4552C32.9453 21.4548 31.8309 21.1168 30.8832 20.484C29.9354 19.8512 29.1969 18.952 28.7609 17.9C28.3249 16.848 28.2111 15.6906 28.4337 14.574C28.6564 13.4575 29.2056 12.4319 30.0119 11.627C30.8182 10.8221 31.8454 10.274 32.9636 10.052C34.0818 9.83008 35.2408 9.9442 36.294 10.38C37.3473 10.8158 38.2474 11.5537 38.8808 12.5003C39.5142 13.4469 39.8522 14.5599 39.8522 15.6984C39.8522 16.4546 39.703 17.2033 39.4132 17.9019C39.1233 18.6005 38.6985 19.2352 38.163 19.7698C37.6275 20.3044 36.9917 20.7285 36.2921 21.0176C35.5925 21.3068 34.8425 21.4555 34.0853 21.4552Z" fill="#11202A"/>
</g>
</svg>
