<svg width="130" height="50" viewBox="0 0 130 50" fill="none" xmlns="http://www.w3.org/2000/svg">
<g clip-path="url(#clip0_5279_5965)">
<path d="M22.0589 22.8597C23.7641 21.5994 25.3946 20.2571 27.2491 19.3307C30.647 17.6292 33.3542 18.4547 35.4949 21.9838C36.6649 24.0501 37.2716 26.3942 37.253 28.7759C37.2345 31.1578 36.5912 33.4918 35.3891 35.5391C30.7341 43.0572 23.8139 47.9475 20.4844 46.6052C12.9045 43.3282 7.60225 37.7825 5.6357 34.5938C4.20742 32.1127 3.35611 29.3347 3.14639 26.4707C3.14639 26.1808 3.07793 25.1347 3.09038 24.8386C3.29675 26.0206 3.85732 27.1096 4.69598 27.9579C5.41878 28.5953 6.27141 29.0636 7.19326 29.3294C8.11505 29.5951 9.0834 29.6519 10.0293 29.4956C11.6633 29.2388 13.2308 28.6562 14.6408 27.7815C15.5182 27.2837 20.4782 23.9878 22.0589 22.8597Z" fill="#F39200"/>
<path d="M17.2542 26.1051C16.134 26.8361 15.5179 27.2836 14.6218 27.7814C13.2118 28.6561 11.6444 29.2387 10.0104 29.4955C9.06442 29.6518 8.09608 29.595 7.17429 29.3292C6.25245 29.0635 5.39981 28.5952 4.67702 27.9578C3.83663 27.1159 3.27554 26.0302 3.07142 24.851C2.83493 21.4858 5.29312 18.9839 8.25538 19.8536C9.94189 20.3452 11.367 21.4858 12.7548 22.6138C14.1426 23.7419 15.7109 25.059 17.2667 26.1051" fill="#2FAC66"/>
<path d="M18.7733 8.24582C18.7733 11.1132 17.1552 13.4763 15.0393 13.8418C12.7118 14.2389 10.403 12.4617 9.69352 9.70154C9.121 7.47071 9.32016 5.35326 10.7079 3.59505C12.7803 0.967172 16.396 1.60366 17.9891 4.7987C18.5262 5.86505 18.7956 7.04901 18.7733 8.24582Z" fill="#F39200"/>
<path d="M6.53825 11.0691C7.06806 11.7884 7.40398 12.6348 7.51312 13.5254C7.6222 14.4159 7.50071 15.3198 7.16056 16.1484C6.28309 18.1776 4.21074 18.8267 2.58025 17.5915C1.8293 16.9437 1.27937 16.0897 0.996709 15.1327C0.714043 14.1755 0.710703 13.1561 0.98709 12.1971C1.82101 9.31717 4.75839 8.71851 6.53825 11.0691Z" fill="#F39200"/>
<path d="M22.0657 7.06099C22.0657 9.93463 23.69 12.2978 25.7997 12.657C28.1272 13.0603 30.436 11.2769 31.1455 8.52305C31.718 6.28587 31.5189 4.16844 30.1373 2.41652C28.0712 -0.236555 24.4368 0.399931 22.8623 3.60128C22.3172 4.66964 22.0434 5.85866 22.0657 7.06099Z" fill="#2FAC66"/>
<path d="M34.7174 9.38651C34.1848 10.1044 33.847 10.951 33.7378 11.8421C33.6287 12.7333 33.7518 13.6378 34.0951 14.4658C34.9601 16.5139 37.0325 17.1441 38.663 15.8837C39.4167 15.2378 39.9695 14.3846 40.2545 13.4272C40.5394 12.4699 40.5443 11.4494 40.2686 10.4893C39.4284 7.63456 36.4972 7.06111 34.7174 9.38651Z" fill="#2FAC66"/>
<path d="M77.7759 38.8034C77.7759 36.8561 77.7759 34.9089 77.7759 32.9616C77.7759 32.4827 77.6828 31.9659 78.3483 31.8021C82.0825 30.8883 85.7541 30.359 89.3076 32.4323C90.8218 33.3393 92.0293 34.6893 92.7711 36.3045C93.5136 37.9198 93.7551 39.7247 93.4646 41.4817C93.1871 43.312 92.3527 45.009 91.0782 46.3363C89.803 47.6636 88.1504 48.5551 86.3513 48.8864C84.5726 49.1635 82.7568 49.0756 81.0123 48.628C78.9772 48.1113 77.8629 46.7816 77.8008 44.6642C77.7387 42.7169 77.8008 40.7696 77.8008 38.8223L77.7759 38.8034ZM82.4122 39.7865C82.4122 40.757 82.4122 41.7275 82.4122 42.698C82.3687 43.7819 82.9349 44.1852 83.9183 44.2609C86.5878 44.4625 88.8035 42.6476 88.8966 40.1457C88.9904 37.6439 87.0795 35.8163 84.3417 35.7785C82.5053 35.7785 82.4743 35.7785 82.4308 37.6691C82.406 38.3749 82.4122 39.0807 82.4122 39.7865Z" fill="#2FAC66"/>
<path d="M104.369 31.0081C106.117 31.0317 107.82 31.5784 109.263 32.5794C110.705 33.5804 111.824 34.991 112.477 36.6338C113.13 38.2767 113.289 40.0784 112.934 41.8124C112.578 43.5465 111.724 45.1354 110.48 46.3793C109.235 47.6232 107.654 48.4667 105.938 48.8036C104.22 49.1405 102.444 48.9559 100.83 48.2727C99.216 47.5897 97.8384 46.4388 96.8687 44.9647C95.8996 43.4906 95.3825 41.7593 95.3819 39.9883C95.3788 38.7979 95.6097 37.6187 96.0617 36.5198C96.5136 35.4209 97.1773 34.4241 98.0135 33.588C98.8504 32.7518 99.8437 32.093 100.934 31.65C102.026 31.2071 103.193 30.9888 104.369 31.0081ZM104.281 35.766C103.725 35.7635 103.174 35.8727 102.659 36.0871C102.144 36.3016 101.677 36.6172 101.283 37.0155C100.89 37.414 100.579 37.8874 100.366 38.4084C100.155 38.9295 100.047 39.4879 100.05 40.0513C100.091 41.1658 100.551 42.2222 101.337 43.0037C102.123 43.7853 103.174 44.2329 104.275 44.2546C104.829 44.2538 105.376 44.1418 105.887 43.9251C106.397 43.7084 106.86 43.3913 107.248 42.9921C107.637 42.5929 107.943 42.1196 108.15 41.5996C108.356 41.0797 108.458 40.5234 108.451 39.963C108.45 39.4112 108.341 38.8649 108.131 38.3558C107.92 37.8468 107.613 37.3849 107.225 36.997C106.837 36.6091 106.378 36.3029 105.872 36.096C105.367 35.889 104.826 35.7854 104.281 35.7912V35.766Z" fill="#2FAC66"/>
<path d="M57.9742 39.9882C57.9791 38.213 58.5031 36.4791 59.4802 35.0051C60.4572 33.5312 61.8434 32.3833 63.4641 31.7062C65.0844 31.0292 66.8668 30.8533 68.5858 31.2009C70.3049 31.5484 71.8842 32.4038 73.1234 33.6591C74.3631 34.9143 75.2081 36.5133 75.5514 38.2541C75.8947 39.995 75.7209 41.7997 75.0523 43.4408C74.3836 45.0818 73.25 46.4856 71.7942 47.4749C70.339 48.4643 68.6268 48.9949 66.8736 48.9999C65.7009 49.0134 64.5381 48.7895 63.4523 48.3414C62.3664 47.8933 61.3801 47.2301 60.551 46.3906C59.7219 45.551 59.067 44.5522 58.6244 43.4528C58.1819 42.3533 57.9609 41.1754 57.9742 39.9882ZM66.7923 35.7912C65.6879 35.7961 64.6287 36.2411 63.8453 37.0299C63.0612 37.8188 62.6157 38.8882 62.6043 40.0071C62.5902 40.5837 62.691 41.1572 62.901 41.6935C63.1102 42.2297 63.425 42.7176 63.8248 43.1281C64.2252 43.5385 64.7026 43.8631 65.2297 44.0824C65.7561 44.3017 66.3211 44.4112 66.891 44.4045C67.4603 44.3977 68.0227 44.2747 68.5442 44.043C69.0657 43.8111 69.5357 43.4753 69.9262 43.0554C70.3167 42.6356 70.6196 42.1403 70.817 41.5992C71.0138 41.0582 71.1014 40.4824 71.0741 39.9063C71.0337 38.7896 70.5625 37.7335 69.7623 36.9643C68.962 36.1951 67.8961 35.774 66.7923 35.7912Z" fill="#2FAC66"/>
<path d="M115.215 42.6412C117.037 43.6242 119.034 44.2264 121.09 44.4121C121.83 44.4625 122.572 44.4625 123.312 44.4121C123.785 44.3679 124.326 44.2167 124.401 43.6306C124.475 43.0445 123.94 42.8303 123.48 42.7042C122.235 42.3513 120.941 42.074 119.677 41.7022C119.003 41.5274 118.338 41.317 117.686 41.0721C116.012 40.4419 114.904 39.2634 114.742 37.3728C114.562 35.3247 115.122 33.5098 116.92 32.4448C120.219 30.5038 123.685 30.5542 127.089 32.1738C128.583 32.8922 129.349 35.4634 128.72 36.9443C128.427 37.6312 128.035 37.0893 127.767 36.9443C125.814 36.0429 123.691 35.5786 121.544 35.5831C120.779 35.5831 119.677 35.5075 119.571 36.4401C119.435 37.4674 120.611 37.4422 121.302 37.6501C122.683 38.0597 124.114 38.2803 125.496 38.7151C127.849 39.4398 129.193 40.9838 129.286 42.9311C129.336 44.0475 129.04 45.1517 128.44 46.0895C127.839 47.0273 126.965 47.7517 125.938 48.1616C123.405 49.218 120.584 49.3297 117.978 48.4767C115.838 47.8465 115.227 46.8634 115.221 44.5696L115.215 42.6412Z" fill="#2FAC66"/>
<path d="M47.6119 41.5446C47.6119 39.9943 47.5621 38.4441 47.6119 36.8938C47.6555 35.9359 47.3008 35.6334 46.4046 35.7154C45.2284 35.7784 44.046 35.7154 42.8636 35.7154C42.1728 35.7154 41.9799 35.4823 41.955 34.7953C41.8741 32.5267 42.1666 32.0477 44.3945 31.7452C48.6388 31.1718 52.9017 30.6928 57.146 30.1382C57.9052 30.0374 58.0733 30.321 58.0235 30.989C58.0235 31.386 58.0235 31.783 58.0235 32.1864C58.0235 34.8268 57.1584 35.7028 54.5695 35.7091C52.2794 35.7091 52.2794 35.7091 52.2794 38.0345C52.2794 41.2673 52.2483 44.5001 52.2794 47.733C52.2794 48.6153 52.0118 48.943 51.1592 48.8484C50.6364 48.7918 50.1075 48.8484 49.5847 48.7854C49.3092 48.7776 49.0381 48.7135 48.7876 48.597C48.5371 48.4805 48.3125 48.3139 48.1271 48.1074C47.9418 47.9008 47.7995 47.6585 47.7088 47.3949C47.6181 47.1314 47.581 46.8519 47.5995 46.5735C47.5559 44.8909 47.5995 43.2083 47.5995 41.532L47.6119 41.5446Z" fill="#2FAC66"/>
<path d="M86.0474 19.3243C86.0474 17.7804 85.9909 16.2238 86.0474 14.6799C86.0908 13.722 85.7295 13.451 84.8399 13.4951C83.6572 13.5581 82.4752 13.4951 81.2987 13.4951C80.6078 13.4951 80.4085 13.2619 80.3837 12.5751C80.303 10.3064 80.5954 9.82113 82.8235 9.52497C87.068 8.95146 91.3305 8.47251 95.5812 7.918C96.3343 7.81717 96.5019 8.10073 96.4523 8.76874C96.4523 9.15946 96.4523 9.56278 96.4523 9.95978C96.4523 12.6065 95.5875 13.4762 93.0049 13.4888C90.7085 13.4888 90.7147 13.4888 90.7147 15.8142C90.7147 19.047 90.6836 22.2799 90.7147 25.5065C90.7147 26.3887 90.4471 26.7164 89.5941 26.6219C89.0714 26.5652 88.5424 26.6219 88.0259 26.5589C87.7503 26.5518 87.4783 26.4884 87.2269 26.3722C86.9761 26.256 86.7507 26.0897 86.5645 25.8831C86.3783 25.6764 86.2355 25.4338 86.1442 25.1698C86.0536 24.9058 86.0163 24.6259 86.0343 24.3469C85.9971 22.6706 86.0343 20.9817 86.0343 19.3054L86.0474 19.3243Z" fill="#F39200"/>
<path d="M58.3283 3.33656C54.7748 1.28215 51.0844 1.8115 47.3691 2.70637C46.7032 2.87022 46.7965 3.38066 46.7965 3.86591C46.7965 5.81528 46.7965 7.76254 46.7965 9.70774C46.7965 11.4596 46.7965 13.2116 46.7965 14.9635C46.7468 16.4129 46.7965 17.8623 46.7965 19.3055C46.7965 20.9881 46.7965 22.677 46.7965 24.3469C46.7726 24.63 46.8064 24.915 46.8958 25.1843C46.9852 25.4536 47.1283 25.7014 47.3162 25.9123C47.5041 26.1233 47.7328 26.2929 47.9881 26.4107C48.2435 26.5284 48.5199 26.5917 48.8005 26.5967C49.317 26.666 49.8522 26.5967 50.3749 26.6597C51.2213 26.7542 51.5013 26.4266 51.4951 25.5443C51.4951 23.6537 51.4951 21.7317 51.4951 19.8285C52.7889 20.0207 54.1034 20.0207 55.3972 19.8285C57.197 19.4902 58.8476 18.5911 60.1183 17.2568C61.3891 15.9226 62.2167 14.2196 62.4855 12.3861C62.7757 10.629 62.5341 8.82409 61.792 7.20878C61.05 5.59354 59.8424 4.24358 58.3283 3.33656ZM52.9078 15.1777C51.9308 15.1021 51.3645 14.7051 51.408 13.6212C51.4453 12.6507 51.408 11.6802 51.408 10.7097C51.408 10.0039 51.408 9.29181 51.408 8.58599C51.408 6.73326 51.4827 6.69545 53.3123 6.69545C56.0568 6.72695 57.9735 8.58599 57.874 11.0626C57.7744 13.5393 55.5838 15.3857 52.9078 15.1777Z" fill="#F39200"/>
<path d="M70.0345 20.295C71.2792 19.9421 72.5736 19.6648 73.837 19.293C74.5124 19.121 75.1773 18.9106 75.8286 18.6628C77.5029 18.0326 78.6104 16.8542 78.7725 14.9636C78.8252 14.4504 78.8252 13.9329 78.7725 13.4196C78.7749 13.3966 78.7749 13.3734 78.7725 13.3503C78.7979 12.4082 78.4875 11.4883 77.8977 10.7591C77.308 10.03 76.4779 9.54044 75.561 9.38016C73.8159 8.93482 72 8.8491 70.2213 9.12808C68.6848 9.42155 67.2526 10.1212 66.0693 11.1559C64.886 12.1908 63.9939 13.524 63.483 15.0205C62.9727 16.517 62.8619 18.1235 63.162 19.6773C63.4625 21.2311 64.1634 22.6769 65.1933 23.8681C65.8011 24.7104 66.6287 25.365 67.5829 25.7587C70.1139 26.8131 72.9324 26.9225 75.5361 26.0675C77.6829 25.4373 78.2932 24.4542 78.2932 22.1603V20.295C76.4742 21.2788 74.4783 21.8811 72.4246 22.0658C71.6846 22.1162 70.9427 22.1162 70.2027 22.0658C69.7296 22.0217 69.1821 21.8704 69.1076 21.2844C69.0331 20.6983 69.5744 20.4399 70.0345 20.295ZM68.0497 16.3122C68.4607 15.4474 69.1268 14.7335 69.9569 14.2695C70.7863 13.8054 71.738 13.6141 72.6798 13.7221C72.9157 13.7174 73.1497 13.7658 73.3651 13.8639C73.58 13.962 73.7712 14.1073 73.9245 14.2893C73.8494 15.0707 72.8226 15.0644 72.1943 15.2535C70.844 15.682 69.4186 15.8837 68.0497 16.3311V16.3122Z" fill="#F39200"/>
<path d="M98.07 20.3958V16.81C98.07 16.5202 98.0135 16.1798 98.4245 16.1042C100.702 15.5433 102.968 15.2156 105.145 16.476C106.085 17.0508 106.83 17.9013 107.281 18.9145C107.732 19.9278 107.869 21.0561 107.673 22.1497C107.476 23.2433 106.956 24.2506 106.182 25.0381C105.407 25.8256 104.414 26.3559 103.335 26.559C102.243 26.7295 101.128 26.678 100.055 26.4077C99.4929 26.3081 98.9845 26.0068 98.6232 25.559C98.2625 25.1112 98.0725 24.5468 98.0886 23.9689C98.0514 22.7779 98.0886 21.5805 98.0886 20.3894L98.07 20.3958ZM100.914 21.026C100.914 21.6184 100.914 22.217 100.914 22.8094C100.914 23.4018 101.237 23.7231 101.835 23.7672C102.201 23.8163 102.573 23.7892 102.929 23.6873C103.285 23.5856 103.616 23.4113 103.903 23.1753C104.189 22.9393 104.425 22.6465 104.596 22.3148C104.767 21.9832 104.869 21.6196 104.897 21.2465C104.959 19.7152 103.783 18.5871 102.096 18.5682C100.976 18.5682 100.945 18.5682 100.933 19.7215C100.914 20.1311 100.914 20.5659 100.914 21.0008V21.026Z" fill="#2FAC66"/>
<path d="M113.161 22.5699C113.939 22.3556 114.717 22.1665 115.495 21.9397C115.917 21.8311 116.333 21.6985 116.74 21.5427C117.233 21.394 117.67 21.0977 117.993 20.6927C118.316 20.2877 118.51 19.7931 118.551 19.274C118.582 18.9597 118.582 18.643 118.551 18.3287C118.551 18.3287 118.551 18.2972 118.551 18.2846C118.558 17.7064 118.358 17.1451 117.988 16.704C117.619 16.2629 117.105 15.9715 116.54 15.8836C115.471 15.6079 114.358 15.5544 113.268 15.726C112.323 15.9036 111.442 16.3308 110.714 16.9642C109.985 17.5977 109.435 18.4149 109.119 19.3331C108.804 20.2512 108.733 21.2377 108.915 22.1924C109.097 23.1471 109.525 24.0361 110.155 24.7692C110.528 25.2902 111.037 25.6959 111.624 25.9413C113.177 26.5886 114.907 26.6555 116.503 26.1304C117.816 25.7334 118.19 25.141 118.196 23.7357V22.5383C117.079 23.1426 115.854 23.5133 114.593 23.6285C114.139 23.6601 113.683 23.6601 113.23 23.6285C112.937 23.6285 112.608 23.5151 112.558 23.1559C112.508 22.7967 112.881 22.6518 113.161 22.5699ZM111.948 20.1247C112.201 19.5958 112.61 19.1593 113.118 18.875C113.626 18.5907 114.209 18.4725 114.785 18.5367C114.934 18.5335 115.081 18.5634 115.217 18.6244C115.352 18.6854 115.473 18.7759 115.57 18.8896C115.52 19.3622 114.892 19.3622 114.505 19.4756C113.659 19.7277 112.807 19.8727 111.948 20.1247Z" fill="#2FAC66"/>
</g>
<defs>
<clipPath id="clip0_5279_5965">
<rect width="128.509" height="48.2838" fill="white" transform="translate(0.782227 0.760712)"/>
</clipPath>
</defs>
</svg>
