<svg width="93" height="48" viewBox="0 0 93 48" fill="none" xmlns="http://www.w3.org/2000/svg">
<g clip-path="url(#clip0_5279_5983)">
<path d="M0.290797 21.5097V6.81957C0.28419 6.52679 0.296465 6.23389 0.327542 5.94271C0.367314 5.73015 0.439936 5.52517 0.542766 5.33524C0.773738 4.88624 1.34067 4.6591 2.21731 4.6591C2.83204 4.59968 3.45091 4.7169 4.0021 4.99717C4.15555 5.11485 4.2819 5.26452 4.37251 5.43593C4.46311 5.60734 4.51582 5.79643 4.52703 5.99025C5.16395 5.1169 6.15958 4.68199 7.51392 4.68551C8.86825 4.68903 10.1561 5.33348 11.3774 6.61884C12.5346 7.82348 13.1815 9.43339 13.1815 11.1088C13.1815 12.7843 12.5346 14.3942 11.3774 15.5988C10.1841 16.9088 8.905 17.5638 7.54016 17.5638C6.17533 17.5638 5.1832 17.1765 4.56378 16.4017V21.4833C4.56861 21.762 4.55634 22.0407 4.52703 22.3179C4.48778 22.5422 4.41149 22.7582 4.30131 22.9571C4.23631 23.0837 4.14653 23.1957 4.03738 23.2865C3.92822 23.3773 3.80194 23.4449 3.66614 23.4853C3.26669 23.5979 2.85236 23.6478 2.43779 23.6332C2.02152 23.6469 1.60559 23.5971 1.20419 23.4853C1.06866 23.4511 0.941281 23.3901 0.829509 23.3057C0.717736 23.2214 0.62382 23.1154 0.553265 22.9941C0.443369 22.7988 0.367053 22.5863 0.327542 22.3655C0.297361 22.0813 0.285088 21.7955 0.290797 21.5097ZM5.24094 9.64033C4.87535 10.0479 4.67005 10.5757 4.66351 11.1247C4.66645 11.6732 4.87664 12.2001 5.25144 12.5984C5.43735 12.814 5.66838 12.9855 5.92796 13.1006C6.18753 13.2157 6.46921 13.2715 6.75276 13.264C7.04178 13.268 7.3285 13.2118 7.59497 13.0991C7.86143 12.9864 8.10191 12.8196 8.30132 12.609C8.5014 12.4176 8.66084 12.1874 8.77001 11.9323C8.87918 11.6772 8.93582 11.4024 8.93649 11.1247C8.93233 10.5712 8.71827 10.0403 8.33807 9.64033C8.14046 9.41957 7.89684 9.24544 7.62461 9.13038C7.35238 9.01533 7.05826 8.96219 6.76326 8.97476C6.47621 8.96413 6.19044 9.01841 5.92699 9.13359C5.66354 9.24877 5.42911 9.42194 5.24094 9.64033Z" fill="#0650C6"/>
<path d="M23.1415 4.81227C23.4496 4.90711 23.7234 5.09076 23.9289 5.3405C24.1673 5.68013 24.2789 6.09357 24.2439 6.5079C24.2239 7.12549 24.0603 7.72977 23.7662 8.27219C23.6591 8.5512 23.4712 8.79145 23.227 8.96189C22.9827 9.13234 22.6933 9.22514 22.3961 9.22829C22.0961 9.22779 21.8 9.15917 21.5299 9.02757C21.1881 8.87634 20.8164 8.80587 20.4433 8.82156C19.9804 8.82857 19.5346 8.99867 19.1835 9.30225C19.0018 9.43474 18.8538 9.60862 18.7516 9.80967C18.6494 10.0107 18.5959 10.2333 18.5956 10.4591V15.7414C18.6009 16.0307 18.5886 16.32 18.5588 16.6077C18.5178 16.8413 18.4379 17.0663 18.3226 17.2733C18.0706 17.7117 17.4197 17.9283 16.3698 17.9283C15.7646 17.9817 15.159 17.8312 14.648 17.5004C14.504 17.3599 14.3898 17.1916 14.3122 17.0055C14.2346 16.8193 14.1953 16.6194 14.1966 16.4175V6.84597C14.1911 6.55671 14.2034 6.26739 14.2333 5.97966C14.2732 5.75314 14.3513 5.53517 14.4643 5.33522C14.6953 4.88622 15.3462 4.65908 16.4118 4.65908C17.4774 4.65908 18.0339 4.84925 18.2858 5.23486C18.46 5.47819 18.5553 5.76963 18.5588 6.06946C18.6683 5.91758 18.7894 5.77452 18.921 5.6416C19.2283 5.37172 19.5688 5.14271 19.9341 4.96018C20.344 4.70817 20.809 4.56125 21.2885 4.53231C21.6186 4.52831 21.9485 4.5495 22.2754 4.59569C22.5695 4.64365 22.8592 4.71609 23.1415 4.81227Z" fill="#0650C6"/>
<path d="M48.2914 9.11209L46.6641 9.01173V12.4822C46.6384 12.8222 46.7133 13.1622 46.8793 13.4594C46.9783 13.5708 47.1025 13.6563 47.2415 13.7087C47.3804 13.7612 47.5299 13.7789 47.6772 13.7605C48.0709 13.7605 48.3701 13.7605 48.5801 13.7975C48.8144 13.8336 49.0392 13.9162 49.2415 14.0405C49.6247 14.2571 49.8137 14.817 49.8137 15.7256C49.8137 16.782 49.5827 17.4265 49.1155 17.6589C48.9064 17.7623 48.6837 17.8352 48.4541 17.8755C48.175 17.9025 47.8946 17.9148 47.6142 17.9124C45.8819 17.9124 44.5696 17.5163 43.6667 16.7292C42.7638 15.9421 42.3176 14.6163 42.3176 12.7305V9.03286C41.97 9.08436 41.6191 9.10908 41.2678 9.10681C41.0932 9.10996 40.9203 9.07306 40.762 8.99893C40.6037 8.92479 40.4643 8.81536 40.3544 8.67894C40.0723 8.24857 39.9446 7.73431 39.9922 7.22102C39.9743 6.71944 40.0166 6.21752 40.1181 5.72612C40.1703 5.47476 40.2902 5.24268 40.4646 5.05527C40.7515 4.83344 41.1056 4.71779 41.4672 4.72776L42.2914 4.83341V2.24507C42.2857 1.95933 42.2979 1.67351 42.3281 1.38933C42.3658 1.17467 42.4462 0.969861 42.5643 0.787149C42.8111 0.343434 43.4515 0.132141 44.5171 0.132141C45.5827 0.132141 46.3229 0.443798 46.5434 1.06183C46.639 1.48258 46.6796 1.9141 46.6641 2.34544V4.81228C47.399 4.74361 47.9554 4.70663 48.3281 4.70663C48.6122 4.70267 48.8962 4.71679 49.1785 4.74889C49.4119 4.78548 49.6363 4.86613 49.84 4.9866C50.2757 5.20317 50.4909 5.84762 50.4909 6.91993C50.4909 7.99224 50.2652 8.62612 49.8137 8.85854C49.606 8.96434 49.3826 9.03569 49.1523 9.06984C48.8665 9.10236 48.579 9.11648 48.2914 9.11209Z" fill="#0650C6"/>
<path d="M64.4963 9.69844C64.5296 10.1125 64.4794 10.529 64.3486 10.923C64.2178 11.317 64.0091 11.6803 63.7351 11.991C63.5159 12.2205 63.2537 12.4041 62.9635 12.531C62.6734 12.6579 62.3612 12.7257 62.0448 12.7305H56.1235C56.1381 12.9853 56.2229 13.231 56.3685 13.44C56.5141 13.649 56.7146 13.813 56.9477 13.9137C57.4459 14.2155 58.0145 14.3795 58.596 14.3891C59.3668 14.4171 60.1368 14.3153 60.8742 14.0881L61.1472 13.9877C61.4571 13.8274 61.7968 13.7339 62.1446 13.713C62.6695 13.713 63.1367 14.0881 63.5199 14.8434C63.71 15.2009 63.8211 15.5955 63.8454 16.0003C63.8454 17.4934 62.0711 18.24 58.5225 18.24C57.3943 18.2603 56.2745 18.0407 55.2364 17.5955C54.3593 17.2318 53.5894 16.648 53.0002 15.8999C51.9727 14.6083 51.4168 13.001 51.4254 11.3465C51.3838 10.4045 51.5442 9.46458 51.8956 8.5905C52.2471 7.71641 52.7813 6.92867 53.4621 6.28078C54.8493 5.00215 56.6791 4.32138 58.5593 4.38442C60.8725 4.38442 62.5715 5.20494 63.6564 6.84598C64.2117 7.69175 64.5041 8.68478 64.4963 9.69844ZM59.2469 10.4432C59.8821 10.4432 60.1971 10.1738 60.1971 9.64033C60.2018 9.46112 60.1648 9.28327 60.0892 9.12095C60.0136 8.95863 59.9013 8.81632 59.7614 8.70536C59.3956 8.45128 58.9555 8.32848 58.512 8.35673C57.9133 8.37873 57.3419 8.6147 56.9005 9.0223C56.6684 9.1825 56.4755 9.39363 56.3364 9.63978C56.1973 9.88593 56.1155 10.1607 56.0973 10.4432H59.2469Z" fill="#0650C6"/>
<path d="M74.1498 16.2538C73.5146 17.0884 72.5067 17.511 71.1209 17.511C69.7351 17.511 68.4437 16.8665 67.2364 15.5829C66.0718 14.3822 65.4199 12.7708 65.4199 11.093C65.4199 9.41512 66.0718 7.80376 67.2364 6.60298C67.7286 6.01454 68.3391 5.53758 69.0276 5.20346C69.7161 4.86934 70.467 4.68562 71.2311 4.66437C71.7721 4.6541 72.3091 4.76036 72.8059 4.97603C73.1567 5.11645 73.4828 5.31264 73.7718 5.55708C73.9244 5.70649 74.0616 5.87108 74.1813 6.04834C74.1955 5.84617 74.2492 5.64881 74.3393 5.46754C74.4293 5.28627 74.554 5.12463 74.7062 4.99187C75.122 4.71238 75.6201 4.58383 76.1183 4.62739C76.5974 4.60765 77.0768 4.65927 77.5409 4.78058C77.6776 4.82034 77.8049 4.88767 77.915 4.97848C78.0251 5.06928 78.1157 5.18167 78.1813 5.30881C78.2902 5.50778 78.3647 5.7239 78.4018 5.94797C78.4343 6.23199 78.4483 6.51785 78.4437 6.80371V17.1835C78.471 18.0645 78.3023 18.9406 77.9499 19.7475C77.5975 20.5545 77.0703 21.2721 76.407 21.8478C75.1827 22.9878 73.5763 23.6216 71.9083 23.6226C70.6419 23.623 69.396 23.3013 68.2862 22.6877C67.1384 22.0679 66.5627 21.5062 66.5592 21.0026C66.5605 20.6776 66.6278 20.3563 66.7569 20.0584C66.886 19.7604 67.0741 19.4922 67.3098 19.27C67.5334 19.0061 67.7793 18.7622 68.0448 18.541C68.2207 18.4056 68.4375 18.3348 68.6589 18.3403C68.9273 18.3552 69.1827 18.4614 69.3833 18.6414C70.1208 19.2368 71.0363 19.5644 71.9818 19.5711C72.2852 19.5813 72.5866 19.5181 72.8607 19.3866C73.1348 19.2552 73.3734 19.0594 73.5566 18.8157C73.962 18.3013 74.1755 17.6602 74.1603 17.0039L74.1498 16.2538ZM69.6983 11.1088C69.7017 11.3851 69.7601 11.6579 69.8701 11.911C69.9801 12.1642 70.1395 12.3925 70.3387 12.5826C70.5386 12.7922 70.7793 12.9581 71.0457 13.0698C71.3122 13.1816 71.5987 13.2369 71.8873 13.2323C72.1723 13.2391 72.4553 13.1831 72.7165 13.0681C72.9777 12.9531 73.2107 12.782 73.3991 12.5667C73.7781 12.1767 73.9926 11.6543 73.9975 11.1088C73.9882 10.5604 73.7832 10.0336 73.4201 9.62447C73.232 9.39738 72.9945 9.21686 72.726 9.09687C72.4575 8.97688 72.1651 8.92064 71.8715 8.93249C71.5754 8.92262 71.2808 8.97857 71.0086 9.09635C70.7364 9.21413 70.4933 9.39084 70.2967 9.61391C69.9163 10.018 69.7024 10.5522 69.6983 11.1088Z" fill="#0650C6"/>
<path d="M92.4013 9.69844C92.4344 10.1133 92.3831 10.5306 92.2504 10.9248C92.1177 11.319 91.9065 11.6818 91.6296 11.991C91.4112 12.2201 91.1498 12.4035 90.8606 12.5304C90.5714 12.6573 90.26 12.7253 89.9445 12.7305H84.0285C84.0441 12.9857 84.13 13.2315 84.2764 13.4405C84.4229 13.6495 84.6242 13.8133 84.8579 13.9137C85.3557 14.2167 85.9246 14.3808 86.5062 14.3891C87.2753 14.4172 88.0436 14.3154 88.7792 14.0881L89.0522 13.9877C89.3637 13.8267 89.7052 13.7332 90.0548 13.713C90.5797 13.713 91.0469 14.0881 91.4301 14.8434C91.6189 15.2011 91.7282 15.5959 91.7503 16.0003C91.7503 17.4934 89.976 18.24 86.4275 18.24C85.2993 18.2593 84.1797 18.0398 83.1414 17.5955C82.2659 17.2289 81.4967 16.6457 80.9052 15.8999C79.8777 14.6083 79.3218 13.001 79.3303 11.3465C79.2898 10.4047 79.4507 9.46502 79.802 8.59109C80.1534 7.71716 80.6871 6.92931 81.3671 6.28078C82.7516 5.00475 84.5772 4.32417 86.4537 4.38442C88.7704 4.38442 90.4695 5.20494 91.5509 6.84599C92.1099 7.69056 92.406 8.68369 92.4013 9.69844ZM87.1519 10.4432C87.7818 10.4432 88.102 10.1739 88.102 9.64034C88.107 9.46055 88.0696 9.28214 87.993 9.11965C87.9163 8.95716 87.8026 8.81521 87.6611 8.70536C87.2957 8.45053 86.8554 8.32765 86.4117 8.35673C85.8151 8.38133 85.2463 8.61703 84.8054 9.0223C84.5746 9.18334 84.383 9.39479 84.2448 9.64084C84.1066 9.8869 84.0255 10.1612 84.0075 10.4432H87.1519Z" fill="#0650C6"/>
<path d="M32.1596 18.0551C31.0243 18.0556 29.9063 17.7753 28.9038 17.239C27.9014 16.7027 27.0452 15.9267 26.4107 14.9793C25.7762 14.032 25.3828 12.9422 25.2649 11.8059C25.1471 10.6696 25.3086 9.52164 25.7351 8.46288C26.1616 7.40411 26.8402 6.46703 27.711 5.73404C28.5819 5.00106 29.6184 4.49462 30.7293 4.25928C31.8403 4.02394 32.9917 4.06691 34.0823 4.3844C35.1729 4.70189 36.1693 5.28417 36.9838 6.08005C37.0775 6.16462 37.1533 6.26738 37.2066 6.38216C37.2598 6.49693 37.2895 6.62135 37.2938 6.74795C37.2981 6.87456 37.2769 7.00073 37.2316 7.11889C37.1862 7.23705 37.1176 7.34477 37.0298 7.43558C36.942 7.52639 36.8369 7.59842 36.7208 7.64734C36.6047 7.69626 36.4799 7.72107 36.3541 7.72027C36.2282 7.71948 36.1038 7.69309 35.9883 7.6427C35.8728 7.59231 35.7686 7.51896 35.682 7.42704C34.8438 6.60935 33.7504 6.10844 32.5872 6.00918C31.4239 5.90993 30.2624 6.21845 29.2993 6.88245C28.3363 7.54645 27.631 8.52509 27.3031 9.65252C26.9751 10.7799 27.0446 11.9868 27.4997 13.0686C27.9549 14.1503 28.7678 15.0405 29.8006 15.5881C30.8334 16.1358 32.0226 16.3072 33.1666 16.0735C34.3107 15.8397 35.3392 15.2151 36.078 14.3054C36.8167 13.3958 37.2202 12.2572 37.22 11.0824C37.22 10.833 37.3185 10.5939 37.4937 10.4176C37.6689 10.2412 37.9066 10.1422 38.1544 10.1422C38.4022 10.1422 38.6399 10.2412 38.8151 10.4176C38.9903 10.5939 39.0888 10.833 39.0888 11.0824C39.0874 12.9312 38.3569 14.704 37.0578 16.0113C35.7586 17.3186 33.9969 18.0537 32.1596 18.0551Z" fill="#0650C6"/>
<path d="M2.23324 28.0017H17.0417C17.4677 27.9771 17.8939 28.0455 18.291 28.2024C18.4163 28.2672 18.5274 28.3568 18.6175 28.4657C18.7077 28.5746 18.7752 28.7006 18.816 28.8363C18.9145 29.2028 18.9588 29.5819 18.9472 29.9614C18.9595 30.3358 18.9153 30.7098 18.816 31.0707C18.784 31.1927 18.7275 31.3068 18.6498 31.4059C18.5721 31.5049 18.475 31.5868 18.3645 31.6465C17.9355 31.8301 17.4706 31.9132 17.0049 31.8895H11.9288V45.37C11.9335 45.6734 11.9195 45.9769 11.8868 46.2785C11.8461 46.5189 11.7663 46.751 11.6506 46.9652C11.4927 47.2283 11.238 47.4181 10.9419 47.4935C10.5093 47.6112 10.0619 47.6646 9.61385 47.6519C9.16753 47.6654 8.72171 47.612 8.29101 47.4935C8.14749 47.4553 8.01288 47.3889 7.89488 47.2983C7.77688 47.2077 7.67781 47.0945 7.60334 46.9652C7.48219 46.7492 7.40042 46.513 7.36187 46.268C7.32977 45.9609 7.31575 45.6523 7.31987 45.3436V31.8895H2.207C1.78106 31.9136 1.35495 31.8451 0.957648 31.6888C0.831438 31.6266 0.71954 31.5386 0.629139 31.4303C0.538737 31.322 0.47183 31.196 0.432712 31.0602C0.330617 30.6942 0.282856 30.315 0.290979 29.935C0.278999 29.559 0.323237 29.1833 0.422213 28.8205C0.454758 28.698 0.512132 28.5836 0.590727 28.4845C0.669321 28.3854 0.767438 28.3038 0.878908 28.2447C1.30664 28.0629 1.76943 27.9799 2.23324 28.0017Z" fill="#00C4B1"/>
<path d="M42.7267 28.0017L47.6506 28.0281C48.9108 28.0215 50.1598 28.2659 51.3256 28.7473C52.4914 29.2287 53.551 29.9376 54.4433 30.833C55.3856 31.7047 56.1338 32.7673 56.6387 33.9509C57.1436 35.1344 57.3936 36.4122 57.3725 37.7C57.3909 39.0023 57.1469 40.2948 56.6551 41.4996C56.1634 42.7043 55.4342 43.7963 54.5116 44.7097C53.6214 45.6597 52.5451 46.4137 51.3506 46.9237C50.1561 47.4338 48.8694 47.689 47.5719 47.6731H42.7005C41.6139 47.6731 40.942 47.4512 40.6742 47.0022C40.429 46.4651 40.319 45.8755 40.354 45.2854V30.3629C40.3491 30.0489 40.3631 29.7349 40.396 29.4226C40.4397 29.1774 40.525 28.9416 40.648 28.7254C40.8947 28.2447 41.5876 28.0017 42.7267 28.0017ZM51.1257 41.4716C51.626 41.0176 52.0229 40.4601 52.2893 39.8374C52.5556 39.2148 52.6852 38.5415 52.669 37.8638C52.6857 37.1863 52.5601 36.5129 52.3005 35.8876C52.0409 35.2622 51.6531 34.699 51.1625 34.2348C50.7008 33.767 50.151 33.3967 49.5452 33.1454C48.9395 32.8942 48.29 32.7671 47.6349 32.7716H45.068V42.919H47.6506C48.9489 42.9098 50.1922 42.3904 51.1152 41.4716H51.1257Z" fill="#00C4B1"/>
<path d="M79.294 44.7044C78.9092 44.2964 78.6724 43.7697 78.6221 43.2095C78.6221 42.7658 78.9948 42.153 79.7349 41.4505C79.9132 41.2548 80.1286 41.097 80.3684 40.9864C80.6082 40.8757 80.8676 40.8144 81.1313 40.806C81.6142 40.806 82.2861 41.2392 83.147 42.1055C83.4462 42.4471 83.8013 42.7348 84.1969 42.9559C84.5691 43.198 84.9983 43.3365 85.441 43.3574C87.0438 43.3574 87.8452 42.6989 87.8452 41.3818C87.836 41.1698 87.7696 40.9644 87.653 40.7875C87.5365 40.6107 87.3743 40.4692 87.1838 40.3782C86.6759 40.0842 86.1192 39.8855 85.5407 39.7918C84.8268 39.6512 84.1248 39.4552 83.441 39.2055C82.716 38.9501 82.0136 38.6338 81.3412 38.26C80.6417 37.8504 80.072 37.2496 79.6982 36.5274C79.2361 35.6521 79.0082 34.6709 79.0368 33.6802C79.027 32.9435 79.1652 32.2124 79.443 31.5307C79.7208 30.849 80.1326 30.2308 80.6536 29.7131C81.7804 28.5757 83.3185 28.007 85.2678 28.007C86.226 27.9966 87.1802 28.1337 88.0972 28.4137C88.7329 28.5764 89.3341 28.8538 89.8714 29.2325L90.5171 29.7237C90.9366 30.0307 91.2224 30.4885 91.315 31.002C91.2438 31.5276 91.0294 32.023 90.6956 32.4335C90.1129 33.2998 89.5092 33.733 88.8898 33.733C88.4003 33.6857 87.9333 33.5029 87.5407 33.2048C87.4381 33.124 87.3399 33.0376 87.2468 32.9459C87.1198 32.8242 86.9847 32.7112 86.8426 32.6079C86.4233 32.3664 85.9447 32.2492 85.462 32.2698C84.9659 32.2502 84.4766 32.3909 84.0657 32.6713C83.887 32.796 83.7425 32.9639 83.6452 33.1596C83.548 33.3553 83.5012 33.5725 83.5092 33.7911C83.5096 34.0252 83.5708 34.2552 83.6869 34.4581C83.8029 34.6611 83.9697 34.8299 84.1706 34.9479C84.6668 35.2656 85.2256 35.471 85.8084 35.5501C86.5333 35.6746 87.2503 35.8421 87.9554 36.0519C88.6922 36.254 89.4105 36.5191 90.1024 36.8443C90.8045 37.2021 91.3787 37.7706 91.7455 38.4712C92.2076 39.3463 92.4338 40.328 92.4016 41.3184C92.4243 42.352 92.1936 43.3752 91.7297 44.2977C91.3279 45.1042 90.7212 45.7895 89.9712 46.2838C88.6506 47.1824 87.0929 47.6625 85.4987 47.6625C84.7226 47.6684 83.9492 47.5689 83.1995 47.3667C82.5801 47.2093 81.9875 46.9601 81.441 46.6272C80.7108 46.2129 80.0701 45.6562 79.5565 44.9896L79.294 44.7044Z" fill="#00C4B1"/>
<path d="M28.7323 47.6731C26.1409 47.6703 23.6563 46.6331 21.8239 44.7892C19.9915 42.9452 18.9608 40.4451 18.958 37.8374C18.9589 36.374 19.2872 34.9297 19.9186 33.6115C20.1661 33.0824 20.4631 32.5783 20.8058 32.106C20.9127 31.9091 21.0599 31.7373 21.2378 31.6019C21.4156 31.4665 21.62 31.3707 21.8374 31.3208C22.0548 31.2709 22.2802 31.2679 22.4988 31.3123C22.7174 31.3566 22.9242 31.4471 23.1054 31.5778C23.2866 31.7086 23.4382 31.8766 23.5501 32.0707C23.662 32.2648 23.7316 32.4806 23.7544 32.7038C23.7772 32.927 23.7526 33.1526 23.6823 33.3655C23.612 33.5784 23.4975 33.7739 23.3465 33.939C23.1143 34.2612 22.9122 34.6042 22.7428 34.9638C22.3126 35.8635 22.0901 36.8495 22.0919 37.8479C22.0929 39.1693 22.4833 40.4607 23.2135 41.5589C23.9438 42.6571 24.9813 43.5127 26.1948 44.0177C27.4082 44.5226 28.7432 44.6542 30.031 44.3958C31.3188 44.1373 32.5015 43.5005 33.4297 42.5658C34.3578 41.6311 34.9898 40.4404 35.2456 39.1443C35.5013 37.8483 35.3695 36.505 34.8668 35.2843C34.364 34.0636 33.5129 33.0203 32.421 32.2863C31.3291 31.5523 30.0455 31.1605 28.7323 31.1605C28.3147 31.1605 27.9141 30.9936 27.6188 30.6964C27.3234 30.3992 27.1575 29.9961 27.1575 29.5758C27.1575 29.1555 27.3234 28.7525 27.6188 28.4553C27.9141 28.1581 28.3147 27.9911 28.7323 27.9911C31.3246 27.9911 33.8108 29.0274 35.6438 30.8719C37.4768 32.7165 38.5066 35.2182 38.5066 37.8268C38.5066 40.4354 37.4768 42.9371 35.6438 44.7817C33.8108 46.6262 31.3246 47.6625 28.7323 47.6625V47.6731Z" fill="#00C4B1"/>
<path d="M68.4641 47.1448C67.489 47.1433 66.5202 46.9882 65.5927 46.6853C63.9843 46.1588 62.5507 45.1973 61.4487 43.9061C60.3467 42.6148 59.6189 41.0435 59.3447 39.364C59.0705 37.6845 59.2605 35.9614 59.894 34.3833C60.5275 32.8051 61.5801 31.4327 62.9366 30.416C64.2932 29.3994 65.9014 28.7776 67.5854 28.6189C69.2695 28.4601 70.9645 28.7704 72.4851 29.5158C74.0056 30.2612 75.2932 31.413 76.207 32.8453C77.1208 34.2776 77.6257 35.9351 77.6663 37.6367C77.6766 38.1899 77.6397 38.7431 77.556 39.29C77.4886 39.6745 77.2738 40.017 76.958 40.2437C76.6422 40.4705 76.2505 40.5634 75.8672 40.5025C75.484 40.4416 75.1398 40.2317 74.9088 39.918C74.6779 39.6043 74.5785 39.2119 74.6321 38.8252C74.6881 38.4547 74.7127 38.08 74.7056 37.7053C74.6913 36.7634 74.4652 35.8369 74.0442 34.9955C73.6713 34.2571 73.1574 33.5998 72.5321 33.0612C71.9067 32.5226 71.182 32.1132 70.3994 31.8564C69.6168 31.5996 68.7916 31.5005 67.9709 31.5646C67.1503 31.6288 66.3502 31.8549 65.6163 32.2302C64.8825 32.6055 64.2294 33.1225 63.6941 33.7518C63.1589 34.3811 62.752 35.1104 62.4969 35.8979C62.2417 36.6854 62.1431 37.5158 62.2069 38.3416C62.2706 39.1674 62.4954 39.9725 62.8683 40.711C63.6327 42.1919 64.9466 43.3098 66.5249 43.8221C68.1032 44.3344 69.8186 44.1997 71.2988 43.4472C71.4728 43.335 71.6682 43.2607 71.8724 43.229C72.0767 43.1974 72.2853 43.2091 72.4848 43.2635C72.6842 43.3179 72.8702 43.4137 73.0306 43.5448C73.1911 43.6758 73.3225 43.8393 73.4164 44.0245C73.5103 44.2098 73.5646 44.4128 73.5758 44.6204C73.587 44.8281 73.5549 45.0358 73.4815 45.2302C73.4081 45.4246 73.2951 45.6014 73.1497 45.7492C73.0043 45.897 72.8298 46.0126 72.6374 46.0884C71.3488 46.7675 69.9186 47.1295 68.4641 47.1448Z" fill="#00C4B1"/>
</g>
<defs>
<clipPath id="clip0_5279_5983">
<rect width="92.1105" height="47.5409" fill="white" transform="translate(0.291016 0.132141)"/>
</clipPath>
</defs>
</svg>
